<ttFont>
<head>
    <!-- Most of this table will be recalculated by the compiler -->
    <tableVersion value="1.0"/>
    <fontRevision value="5.0"/>
    <checkSumAdjustment value="0x765fd3e8"/>
    <magicNumber value="0x5f0f3cf5"/>
    <flags value="00000000 00001011"/>
    <unitsPerEm value="2048"/>
    <created value="Sun May 15 08:57:39 2005"/>
    <modified value="Fri Apr 15 05:54:35 2011"/>
    <xMin value="-137"/>
    <yMin value="-1178"/>
    <xMax value="9434"/>
    <yMax value="2296"/>
    <macStyle value="00000000 00000000"/>
    <lowestRecPPEM value="8"/>
    <fontDirectionHint value="2"/>
    <indexToLocFormat value="1"/>
    <glyphDataFormat value="0"/>
  </head>
    <TTGlyph name=".notdef" xMin="142" yMin="226" xMax="842" yMax="1588">
      <contour>
        <pt x="142" y="226" on="1"/>
        <pt x="142" y="1588" on="1"/>
        <pt x="842" y="1588" on="1"/>
        <pt x="842" y="226" on="1"/>
      </contour>
      <contour>
        <pt x="284" y="368" on="1"/>
        <pt x="700" y="368" on="1"/>
        <pt x="700" y="1447" on="1"/>
        <pt x="284" y="1447" on="1"/>
      </contour>
    </TTGlyph>
    <TTGlyph name=".null" xMin="142" yMin="226" xMax="842" yMax="1588">
      <contour>
        <pt x="142" y="226" on="1"/>
        <pt x="142" y="1588" on="1"/>
        <pt x="842" y="1588" on="1"/>
        <pt x="842" y="226" on="1"/>
      </contour>
      <contour>
        <pt x="284" y="368" on="1"/>
        <pt x="700" y="368" on="1"/>
        <pt x="700" y="1447" on="1"/>
        <pt x="284" y="1447" on="1"/>
      </contour>
    </TTGlyph>
    <TTGlyph name="afii57381" xMin="142" yMin="226" xMax="842" yMax="1588">
      <contour>
        <pt x="142" y="226" on="1"/>
        <pt x="142" y="1588" on="1"/>
        <pt x="842" y="1588" on="1"/>
        <pt x="842" y="226" on="1"/>
      </contour>
      <contour>
        <pt x="284" y="368" on="1"/>
        <pt x="700" y="368" on="1"/>
        <pt x="700" y="1447" on="1"/>
        <pt x="284" y="1447" on="1"/>
      </contour>
    </TTGlyph>
    <TTGlyph name="afii57388" xMin="142" yMin="226" xMax="842" yMax="1588">
      <contour>
        <pt x="142" y="226" on="1"/>
        <pt x="142" y="1588" on="1"/>
        <pt x="842" y="1588" on="1"/>
        <pt x="842" y="226" on="1"/>
      </contour>
      <contour>
        <pt x="284" y="368" on="1"/>
        <pt x="700" y="368" on="1"/>
        <pt x="700" y="1447" on="1"/>
        <pt x="284" y="1447" on="1"/>
      </contour>
    </TTGlyph>
    <TTGlyph name="afii57396" xMin="142" yMin="226" xMax="842" yMax="1588">
      <contour>
        <pt x="142" y="226" on="1"/>
        <pt x="142" y="1588" on="1"/>
        <pt x="842" y="1588" on="1"/>
        <pt x="842" y="226" on="1"/>
      </contour>
      <contour>
        <pt x="284" y="368" on="1"/>
        <pt x="700" y="368" on="1"/>
        <pt x="700" y="1447" on="1"/>
        <pt x="284" y="1447" on="1"/>
      </contour>
    </TTGlyph>
    <TTGlyph name="afii57397" xMin="142" yMin="226" xMax="842" yMax="1588">
      <contour>
        <pt x="142" y="226" on="1"/>
        <pt x="142" y="1588" on="1"/>
        <pt x="842" y="1588" on="1"/>
        <pt x="842" y="226" on="1"/>
      </contour>
      <contour>
        <pt x="284" y="368" on="1"/>
        <pt x="700" y="368" on="1"/>
        <pt x="700" y="1447" on="1"/>
        <pt x="284" y="1447" on="1"/>
      </contour>
    </TTGlyph>
    <TTGlyph name="afii57398" xMin="142" yMin="226" xMax="842" yMax="1588">
      <contour>
        <pt x="142" y="226" on="1"/>
        <pt x="142" y="1588" on="1"/>
        <pt x="842" y="1588" on="1"/>
        <pt x="842" y="226" on="1"/>
      </contour>
      <contour>
        <pt x="284" y="368" on="1"/>
        <pt x="700" y="368" on="1"/>
        <pt x="700" y="1447" on="1"/>
        <pt x="284" y="1447" on="1"/>
      </contour>
    </TTGlyph>
    <TTGlyph name="afii57403" xMin="142" yMin="226" xMax="842" yMax="1588">
      <contour>
        <pt x="142" y="226" on="1"/>
        <pt x="142" y="1588" on="1"/>
        <pt x="842" y="1588" on="1"/>
        <pt x="842" y="226" on="1"/>
      </contour>
      <contour>
        <pt x="284" y="368" on="1"/>
        <pt x="700" y="368" on="1"/>
        <pt x="700" y="1447" on="1"/>
        <pt x="284" y="1447" on="1"/>
      </contour>
    </TTGlyph>
    <TTGlyph name="afii57407" xMin="142" yMin="226" xMax="842" yMax="1588">
      <contour>
        <pt x="142" y="226" on="1"/>
        <pt x="142" y="1588" on="1"/>
        <pt x="842" y="1588" on="1"/>
        <pt x="842" y="226" on="1"/>
      </contour>
      <contour>
        <pt x="284" y="368" on="1"/>
        <pt x="700" y="368" on="1"/>
        <pt x="700" y="1447" on="1"/>
        <pt x="284" y="1447" on="1"/>
      </contour>
    </TTGlyph>
    <TTGlyph name="afii57440" xMin="142" yMin="226" xMax="842" yMax="1588">
      <contour>
        <pt x="142" y="226" on="1"/>
        <pt x="142" y="1588" on="1"/>
        <pt x="842" y="1588" on="1"/>
        <pt x="842" y="226" on="1"/>
      </contour>
      <contour>
        <pt x="284" y="368" on="1"/>
        <pt x="700" y="368" on="1"/>
        <pt x="700" y="1447" on="1"/>
        <pt x="284" y="1447" on="1"/>
      </contour>
    </TTGlyph>
    <TTGlyph name="afii57451" xMin="142" yMin="226" xMax="842" yMax="1588">
      <contour>
        <pt x="142" y="226" on="1"/>
        <pt x="142" y="1588" on="1"/>
        <pt x="842" y="1588" on="1"/>
        <pt x="842" y="226" on="1"/>
      </contour>
      <contour>
        <pt x="284" y="368" on="1"/>
        <pt x="700" y="368" on="1"/>
        <pt x="700" y="1447" on="1"/>
        <pt x="284" y="1447" on="1"/>
      </contour>
    </TTGlyph>
    <TTGlyph name="afii57452" xMin="142" yMin="226" xMax="842" yMax="1588">
      <contour>
        <pt x="142" y="226" on="1"/>
        <pt x="142" y="1588" on="1"/>
        <pt x="842" y="1588" on="1"/>
        <pt x="842" y="226" on="1"/>
      </contour>
      <contour>
        <pt x="284" y="368" on="1"/>
        <pt x="700" y="368" on="1"/>
        <pt x="700" y="1447" on="1"/>
        <pt x="284" y="1447" on="1"/>
      </contour>
    </TTGlyph>
    <TTGlyph name="afii57453" xMin="142" yMin="226" xMax="842" yMax="1588">
      <contour>
        <pt x="142" y="226" on="1"/>
        <pt x="142" y="1588" on="1"/>
        <pt x="842" y="1588" on="1"/>
        <pt x="842" y="226" on="1"/>
      </contour>
      <contour>
        <pt x="284" y="368" on="1"/>
        <pt x="700" y="368" on="1"/>
        <pt x="700" y="1447" on="1"/>
        <pt x="284" y="1447" on="1"/>
      </contour>
    </TTGlyph>
    <TTGlyph name="afii57454" xMin="142" yMin="226" xMax="842" yMax="1588">
      <contour>
        <pt x="142" y="226" on="1"/>
        <pt x="142" y="1588" on="1"/>
        <pt x="842" y="1588" on="1"/>
        <pt x="842" y="226" on="1"/>
      </contour>
      <contour>
        <pt x="284" y="368" on="1"/>
        <pt x="700" y="368" on="1"/>
        <pt x="700" y="1447" on="1"/>
        <pt x="284" y="1447" on="1"/>
      </contour>
    </TTGlyph>
    <TTGlyph name="afii57455" xMin="142" yMin="226" xMax="842" yMax="1588">
      <contour>
        <pt x="142" y="226" on="1"/>
        <pt x="142" y="1588" on="1"/>
        <pt x="842" y="1588" on="1"/>
        <pt x="842" y="226" on="1"/>
      </contour>
      <contour>
        <pt x="284" y="368" on="1"/>
        <pt x="700" y="368" on="1"/>
        <pt x="700" y="1447" on="1"/>
        <pt x="284" y="1447" on="1"/>
      </contour>
    </TTGlyph>
    <TTGlyph name="afii57456" xMin="142" yMin="226" xMax="842" yMax="1588">
      <contour>
        <pt x="142" y="226" on="1"/>
        <pt x="142" y="1588" on="1"/>
        <pt x="842" y="1588" on="1"/>
        <pt x="842" y="226" on="1"/>
      </contour>
      <contour>
        <pt x="284" y="368" on="1"/>
        <pt x="700" y="368" on="1"/>
        <pt x="700" y="1447" on="1"/>
        <pt x="284" y="1447" on="1"/>
      </contour>
    </TTGlyph>
    <TTGlyph name="afii57457" xMin="142" yMin="226" xMax="842" yMax="1588">
      <contour>
        <pt x="142" y="226" on="1"/>
        <pt x="142" y="1588" on="1"/>
        <pt x="842" y="1588" on="1"/>
        <pt x="842" y="226" on="1"/>
      </contour>
      <contour>
        <pt x="284" y="368" on="1"/>
        <pt x="700" y="368" on="1"/>
        <pt x="700" y="1447" on="1"/>
        <pt x="284" y="1447" on="1"/>
      </contour>
    </TTGlyph>
    <TTGlyph name="afii57458" xMin="142" yMin="226" xMax="842" yMax="1588">
      <contour>
        <pt x="142" y="226" on="1"/>
        <pt x="142" y="1588" on="1"/>
        <pt x="842" y="1588" on="1"/>
        <pt x="842" y="226" on="1"/>
      </contour>
      <contour>
        <pt x="284" y="368" on="1"/>
        <pt x="700" y="368" on="1"/>
        <pt x="700" y="1447" on="1"/>
        <pt x="284" y="1447" on="1"/>
      </contour>
    </TTGlyph>
    <TTGlyph name="afii57505" xMin="142" yMin="226" xMax="842" yMax="1588">
      <contour>
        <pt x="142" y="226" on="1"/>
        <pt x="142" y="1588" on="1"/>
        <pt x="842" y="1588" on="1"/>
        <pt x="842" y="226" on="1"/>
      </contour>
      <contour>
        <pt x="284" y="368" on="1"/>
        <pt x="700" y="368" on="1"/>
        <pt x="700" y="1447" on="1"/>
        <pt x="284" y="1447" on="1"/>
      </contour>
    </TTGlyph>
    <TTGlyph name="afii57506" xMin="142" yMin="226" xMax="842" yMax="1588">
      <contour>
        <pt x="142" y="226" on="1"/>
        <pt x="142" y="1588" on="1"/>
        <pt x="842" y="1588" on="1"/>
        <pt x="842" y="226" on="1"/>
      </contour>
      <contour>
        <pt x="284" y="368" on="1"/>
        <pt x="700" y="368" on="1"/>
        <pt x="700" y="1447" on="1"/>
        <pt x="284" y="1447" on="1"/>
      </contour>
    </TTGlyph>
    <TTGlyph name="afii57507" xMin="142" yMin="226" xMax="842" yMax="1588">
      <contour>
        <pt x="142" y="226" on="1"/>
        <pt x="142" y="1588" on="1"/>
        <pt x="842" y="1588" on="1"/>
        <pt x="842" y="226" on="1"/>
      </contour>
      <contour>
        <pt x="284" y="368" on="1"/>
        <pt x="700" y="368" on="1"/>
        <pt x="700" y="1447" on="1"/>
        <pt x="284" y="1447" on="1"/>
      </contour>
    </TTGlyph>
    <TTGlyph name="afii57508" xMin="142" yMin="226" xMax="842" yMax="1588">
      <contour>
        <pt x="142" y="226" on="1"/>
        <pt x="142" y="1588" on="1"/>
        <pt x="842" y="1588" on="1"/>
        <pt x="842" y="226" on="1"/>
      </contour>
      <contour>
        <pt x="284" y="368" on="1"/>
        <pt x="700" y="368" on="1"/>
        <pt x="700" y="1447" on="1"/>
        <pt x="284" y="1447" on="1"/>
      </contour>
    </TTGlyph>
    <TTGlyph name="afii57509" xMin="142" yMin="226" xMax="842" yMax="1588">
      <contour>
        <pt x="142" y="226" on="1"/>
        <pt x="142" y="1588" on="1"/>
        <pt x="842" y="1588" on="1"/>
        <pt x="842" y="226" on="1"/>
      </contour>
      <contour>
        <pt x="284" y="368" on="1"/>
        <pt x="700" y="368" on="1"/>
        <pt x="700" y="1447" on="1"/>
        <pt x="284" y="1447" on="1"/>
      </contour>
    </TTGlyph>
    <TTGlyph name="afii57511" xMin="142" yMin="226" xMax="842" yMax="1588">
      <contour>
        <pt x="142" y="226" on="1"/>
        <pt x="142" y="1588" on="1"/>
        <pt x="842" y="1588" on="1"/>
        <pt x="842" y="226" on="1"/>
      </contour>
      <contour>
        <pt x="284" y="368" on="1"/>
        <pt x="700" y="368" on="1"/>
        <pt x="700" y="1447" on="1"/>
        <pt x="284" y="1447" on="1"/>
      </contour>
    </TTGlyph>
    <TTGlyph name="afii57512" xMin="142" yMin="226" xMax="842" yMax="1588">
      <contour>
        <pt x="142" y="226" on="1"/>
        <pt x="142" y="1588" on="1"/>
        <pt x="842" y="1588" on="1"/>
        <pt x="842" y="226" on="1"/>
      </contour>
      <contour>
        <pt x="284" y="368" on="1"/>
        <pt x="700" y="368" on="1"/>
        <pt x="700" y="1447" on="1"/>
        <pt x="284" y="1447" on="1"/>
      </contour>
    </TTGlyph>
    <TTGlyph name="afii57513" xMin="142" yMin="226" xMax="842" yMax="1588">
      <contour>
        <pt x="142" y="226" on="1"/>
        <pt x="142" y="1588" on="1"/>
        <pt x="842" y="1588" on="1"/>
        <pt x="842" y="226" on="1"/>
      </contour>
      <contour>
        <pt x="284" y="368" on="1"/>
        <pt x="700" y="368" on="1"/>
        <pt x="700" y="1447" on="1"/>
        <pt x="284" y="1447" on="1"/>
      </contour>
    </TTGlyph>
    <TTGlyph name="afii57514" xMin="142" yMin="226" xMax="842" yMax="1588">
      <contour>
        <pt x="142" y="226" on="1"/>
        <pt x="142" y="1588" on="1"/>
        <pt x="842" y="1588" on="1"/>
        <pt x="842" y="226" on="1"/>
      </contour>
      <contour>
        <pt x="284" y="368" on="1"/>
        <pt x="700" y="368" on="1"/>
        <pt x="700" y="1447" on="1"/>
        <pt x="284" y="1447" on="1"/>
      </contour>
    </TTGlyph>
    <TTGlyph name="afii57519" xMin="142" yMin="226" xMax="842" yMax="1588">
      <contour>
        <pt x="142" y="226" on="1"/>
        <pt x="142" y="1588" on="1"/>
        <pt x="842" y="1588" on="1"/>
        <pt x="842" y="226" on="1"/>
      </contour>
      <contour>
        <pt x="284" y="368" on="1"/>
        <pt x="700" y="368" on="1"/>
        <pt x="700" y="1447" on="1"/>
        <pt x="284" y="1447" on="1"/>
      </contour>
    </TTGlyph>
    <TTGlyph name="afii57534" xMin="142" yMin="226" xMax="842" yMax="1588">
      <contour>
        <pt x="142" y="226" on="1"/>
        <pt x="142" y="1588" on="1"/>
        <pt x="842" y="1588" on="1"/>
        <pt x="842" y="226" on="1"/>
      </contour>
      <contour>
        <pt x="284" y="368" on="1"/>
        <pt x="700" y="368" on="1"/>
        <pt x="700" y="1447" on="1"/>
        <pt x="284" y="1447" on="1"/>
      </contour>
    </TTGlyph>
    <TTGlyph name="afii63167" xMin="142" yMin="226" xMax="842" yMax="1588">
      <contour>
        <pt x="142" y="226" on="1"/>
        <pt x="142" y="1588" on="1"/>
        <pt x="842" y="1588" on="1"/>
        <pt x="842" y="226" on="1"/>
      </contour>
      <contour>
        <pt x="284" y="368" on="1"/>
        <pt x="700" y="368" on="1"/>
        <pt x="700" y="1447" on="1"/>
        <pt x="284" y="1447" on="1"/>
      </contour>
    </TTGlyph>
    <TTGlyph name="alefmaksurainitial" xMin="142" yMin="226" xMax="842" yMax="1588">
      <contour>
        <pt x="142" y="226" on="1"/>
        <pt x="142" y="1588" on="1"/>
        <pt x="842" y="1588" on="1"/>
        <pt x="842" y="226" on="1"/>
      </contour>
      <contour>
        <pt x="284" y="368" on="1"/>
        <pt x="700" y="368" on="1"/>
        <pt x="700" y="1447" on="1"/>
        <pt x="284" y="1447" on="1"/>
      </contour>
    </TTGlyph>
    <TTGlyph name="alefwaslafinalarabic" xMin="142" yMin="226" xMax="842" yMax="1588">
      <contour>
        <pt x="142" y="226" on="1"/>
        <pt x="142" y="1588" on="1"/>
        <pt x="842" y="1588" on="1"/>
        <pt x="842" y="226" on="1"/>
      </contour>
      <contour>
        <pt x="284" y="368" on="1"/>
        <pt x="700" y="368" on="1"/>
        <pt x="700" y="1447" on="1"/>
        <pt x="284" y="1447" on="1"/>
      </contour>
    </TTGlyph>
    <TTGlyph name="ampersand" xMin="142" yMin="226" xMax="842" yMax="1588">
      <contour>
        <pt x="142" y="226" on="1"/>
        <pt x="142" y="1588" on="1"/>
        <pt x="842" y="1588" on="1"/>
        <pt x="842" y="226" on="1"/>
      </contour>
      <contour>
        <pt x="284" y="368" on="1"/>
        <pt x="700" y="368" on="1"/>
        <pt x="700" y="1447" on="1"/>
        <pt x="284" y="1447" on="1"/>
      </contour>
    </TTGlyph>
    <TTGlyph name="asterisk" xMin="142" yMin="226" xMax="842" yMax="1588">
      <contour>
        <pt x="142" y="226" on="1"/>
        <pt x="142" y="1588" on="1"/>
        <pt x="842" y="1588" on="1"/>
        <pt x="842" y="226" on="1"/>
      </contour>
      <contour>
        <pt x="284" y="368" on="1"/>
        <pt x="700" y="368" on="1"/>
        <pt x="700" y="1447" on="1"/>
        <pt x="284" y="1447" on="1"/>
      </contour>
    </TTGlyph>
    <TTGlyph name="behmeemisolatedarabic" xMin="142" yMin="226" xMax="842" yMax="1588">
      <contour>
        <pt x="142" y="226" on="1"/>
        <pt x="142" y="1588" on="1"/>
        <pt x="842" y="1588" on="1"/>
        <pt x="842" y="226" on="1"/>
      </contour>
      <contour>
        <pt x="284" y="368" on="1"/>
        <pt x="700" y="368" on="1"/>
        <pt x="700" y="1447" on="1"/>
        <pt x="284" y="1447" on="1"/>
      </contour>
    </TTGlyph>
    <TTGlyph name="behnoonfinalarabic" xMin="142" yMin="226" xMax="842" yMax="1588">
      <contour>
        <pt x="142" y="226" on="1"/>
        <pt x="142" y="1588" on="1"/>
        <pt x="842" y="1588" on="1"/>
        <pt x="842" y="226" on="1"/>
      </contour>
      <contour>
        <pt x="284" y="368" on="1"/>
        <pt x="700" y="368" on="1"/>
        <pt x="700" y="1447" on="1"/>
        <pt x="284" y="1447" on="1"/>
      </contour>
    </TTGlyph>
    <TTGlyph name="colon" xMin="142" yMin="226" xMax="842" yMax="1588">
      <contour>
        <pt x="142" y="226" on="1"/>
        <pt x="142" y="1588" on="1"/>
        <pt x="842" y="1588" on="1"/>
        <pt x="842" y="226" on="1"/>
      </contour>
      <contour>
        <pt x="284" y="368" on="1"/>
        <pt x="700" y="368" on="1"/>
        <pt x="700" y="1447" on="1"/>
        <pt x="284" y="1447" on="1"/>
      </contour>
    </TTGlyph>
    <TTGlyph name="dagger" xMin="142" yMin="226" xMax="842" yMax="1588">
      <contour>
        <pt x="142" y="226" on="1"/>
        <pt x="142" y="1588" on="1"/>
        <pt x="842" y="1588" on="1"/>
        <pt x="842" y="226" on="1"/>
      </contour>
      <contour>
        <pt x="284" y="368" on="1"/>
        <pt x="700" y="368" on="1"/>
        <pt x="700" y="1447" on="1"/>
        <pt x="284" y="1447" on="1"/>
      </contour>
    </TTGlyph>
    <TTGlyph name="dalringfinal" xMin="142" yMin="226" xMax="842" yMax="1588">
      <contour>
        <pt x="142" y="226" on="1"/>
        <pt x="142" y="1588" on="1"/>
        <pt x="842" y="1588" on="1"/>
        <pt x="842" y="226" on="1"/>
      </contour>
      <contour>
        <pt x="284" y="368" on="1"/>
        <pt x="700" y="368" on="1"/>
        <pt x="700" y="1447" on="1"/>
        <pt x="284" y="1447" on="1"/>
      </contour>
    </TTGlyph>
    <TTGlyph name="ddalfinalarabic" xMin="142" yMin="226" xMax="842" yMax="1588">
      <contour>
        <pt x="142" y="226" on="1"/>
        <pt x="142" y="1588" on="1"/>
        <pt x="842" y="1588" on="1"/>
        <pt x="842" y="226" on="1"/>
      </contour>
      <contour>
        <pt x="284" y="368" on="1"/>
        <pt x="700" y="368" on="1"/>
        <pt x="700" y="1447" on="1"/>
        <pt x="284" y="1447" on="1"/>
      </contour>
    </TTGlyph>
    <TTGlyph name="divide" xMin="142" yMin="226" xMax="842" yMax="1588">
      <contour>
        <pt x="142" y="226" on="1"/>
        <pt x="142" y="1588" on="1"/>
        <pt x="842" y="1588" on="1"/>
        <pt x="842" y="226" on="1"/>
      </contour>
      <contour>
        <pt x="284" y="368" on="1"/>
        <pt x="700" y="368" on="1"/>
        <pt x="700" y="1447" on="1"/>
        <pt x="284" y="1447" on="1"/>
      </contour>
    </TTGlyph>
    <TTGlyph name="dollar" xMin="142" yMin="226" xMax="842" yMax="1588">
      <contour>
        <pt x="142" y="226" on="1"/>
        <pt x="142" y="1588" on="1"/>
        <pt x="842" y="1588" on="1"/>
        <pt x="842" y="226" on="1"/>
      </contour>
      <contour>
        <pt x="284" y="368" on="1"/>
        <pt x="700" y="368" on="1"/>
        <pt x="700" y="1447" on="1"/>
        <pt x="284" y="1447" on="1"/>
      </contour>
    </TTGlyph>
    <TTGlyph name="dotlessyehfinalarabic" xMin="142" yMin="226" xMax="842" yMax="1588">
      <contour>
        <pt x="142" y="226" on="1"/>
        <pt x="142" y="1588" on="1"/>
        <pt x="842" y="1588" on="1"/>
        <pt x="842" y="226" on="1"/>
      </contour>
      <contour>
        <pt x="284" y="368" on="1"/>
        <pt x="700" y="368" on="1"/>
        <pt x="700" y="1447" on="1"/>
        <pt x="284" y="1447" on="1"/>
      </contour>
    </TTGlyph>
    <TTGlyph name="dotlessyehinitialarabic" xMin="142" yMin="226" xMax="842" yMax="1588">
      <contour>
        <pt x="142" y="226" on="1"/>
        <pt x="142" y="1588" on="1"/>
        <pt x="842" y="1588" on="1"/>
        <pt x="842" y="226" on="1"/>
      </contour>
      <contour>
        <pt x="284" y="368" on="1"/>
        <pt x="700" y="368" on="1"/>
        <pt x="700" y="1447" on="1"/>
        <pt x="284" y="1447" on="1"/>
      </contour>
    </TTGlyph>
    <TTGlyph name="dotlessyehmedialarabic" xMin="142" yMin="226" xMax="842" yMax="1588">
      <contour>
        <pt x="142" y="226" on="1"/>
        <pt x="142" y="1588" on="1"/>
        <pt x="842" y="1588" on="1"/>
        <pt x="842" y="226" on="1"/>
      </contour>
      <contour>
        <pt x="284" y="368" on="1"/>
        <pt x="700" y="368" on="1"/>
        <pt x="700" y="1447" on="1"/>
        <pt x="284" y="1447" on="1"/>
      </contour>
    </TTGlyph>
    <TTGlyph name="elefmaksuramedial" xMin="142" yMin="226" xMax="842" yMax="1588">
      <contour>
        <pt x="142" y="226" on="1"/>
        <pt x="142" y="1588" on="1"/>
        <pt x="842" y="1588" on="1"/>
        <pt x="842" y="226" on="1"/>
      </contour>
      <contour>
        <pt x="284" y="368" on="1"/>
        <pt x="700" y="368" on="1"/>
        <pt x="700" y="1447" on="1"/>
        <pt x="284" y="1447" on="1"/>
      </contour>
    </TTGlyph>
    <TTGlyph name="ellipsis" xMin="142" yMin="226" xMax="842" yMax="1588">
      <contour>
        <pt x="142" y="226" on="1"/>
        <pt x="142" y="1588" on="1"/>
        <pt x="842" y="1588" on="1"/>
        <pt x="842" y="226" on="1"/>
      </contour>
      <contour>
        <pt x="284" y="368" on="1"/>
        <pt x="700" y="368" on="1"/>
        <pt x="700" y="1447" on="1"/>
        <pt x="284" y="1447" on="1"/>
      </contour>
    </TTGlyph>
    <TTGlyph name="emdash" xMin="163" yMin="-774" xMax="2211" yMax="1795">
      <contour>
        <pt x="2103" y="1397" on="1"/>
        <pt x="2103" y="1345" on="0"/>
        <pt x="2082" y="1345" on="1"/>
        <pt x="2074" y="1345" on="0"/>
        <pt x="2051" y="1368" on="1"/>
        <pt x="2014" y="1405" on="0"/>
        <pt x="2012" y="1407" on="1"/>
        <pt x="1992" y="1353" on="0"/>
        <pt x="1921" y="1265" on="1"/>
        <pt x="1845" y="1171" on="0"/>
        <pt x="1814" y="1172" on="1"/>
        <pt x="1771" y="1172" on="1"/>
        <pt x="1771" y="1190" on="0"/>
        <pt x="1772" y="1199" on="1"/>
        <pt x="1834" y="1271" on="0"/>
        <pt x="1955" y="1434" on="1"/>
        <pt x="1955" y="1461" on="1"/>
        <pt x="1935" y="1479" on="0"/>
        <pt x="1914" y="1499" on="1"/>
        <pt x="1889" y="1526" on="0"/>
        <pt x="1889" y="1555" on="1"/>
        <pt x="1889" y="1594" on="0"/>
        <pt x="1924" y="1672" on="1"/>
        <pt x="1962" y="1755" on="0"/>
        <pt x="1988" y="1755" on="1"/>
        <pt x="2024" y="1755" on="0"/>
        <pt x="2035" y="1647" on="1"/>
        <pt x="2040" y="1582" on="0"/>
        <pt x="2045" y="1516" on="1"/>
        <pt x="2060" y="1497" on="0"/>
        <pt x="2074" y="1477" on="1"/>
        <pt x="2099" y="1442" on="0"/>
        <pt x="2101" y="1412" on="1"/>
        <pt x="2102" y="1414" on="0"/>
        <pt x="2102" y="1414" on="1"/>
        <pt x="2103" y="1415" on="0"/>
        <pt x="2103" y="1412" on="1"/>
        <pt x="2103" y="1407" on="0"/>
      </contour>
      <contour>
        <pt x="1835" y="1446" on="1"/>
        <pt x="1826" y="1371" on="0"/>
        <pt x="1760" y="1324" on="1"/>
        <pt x="1710" y="1294" on="0"/>
        <pt x="1660" y="1263" on="1"/>
        <pt x="1652" y="1274" on="0"/>
        <pt x="1647" y="1274" on="1"/>
        <pt x="1645" y="1280" on="0"/>
        <pt x="1645" y="1286" on="1"/>
        <pt x="1645" y="1305" on="0"/>
        <pt x="1667" y="1333" on="1"/>
        <pt x="1702" y="1375" on="0"/>
        <pt x="1711" y="1391" on="1"/>
        <pt x="1703" y="1407" on="0"/>
        <pt x="1684" y="1407" on="1"/>
        <pt x="1676" y="1407" on="0"/>
        <pt x="1656" y="1396" on="1"/>
        <pt x="1630" y="1382" on="0"/>
        <pt x="1616" y="1377" on="1"/>
        <pt x="1616" y="1420" on="1"/>
        <pt x="1616" y="1446" on="0"/>
        <pt x="1653" y="1489" on="1"/>
        <pt x="1687" y="1529" on="0"/>
        <pt x="1699" y="1529" on="1"/>
        <pt x="1717" y="1529" on="0"/>
      </contour>
      <contour>
        <pt x="2139" y="173" on="1"/>
        <pt x="2139" y="116" on="0"/>
        <pt x="2126" y="54" on="1"/>
        <pt x="2109" y="-25" on="0"/>
        <pt x="2078" y="-54" on="1"/>
        <pt x="2064" y="-67" on="0"/>
        <pt x="2017" y="-67" on="1"/>
        <pt x="1966" y="-67" on="0"/>
        <pt x="1937" y="-36" on="1"/>
        <pt x="1895" y="7" on="0"/>
        <pt x="1856" y="137" on="1"/>
        <pt x="1821" y="79" on="0"/>
        <pt x="1756" y="-3" on="1"/>
        <pt x="1730" y="-23" on="0"/>
        <pt x="1672" y="-46" on="1"/>
        <pt x="1621" y="-67" on="0"/>
        <pt x="1606" y="-67" on="1"/>
        <pt x="1579" y="-67" on="0"/>
        <pt x="1527" y="-1" on="0"/>
        <pt x="1527" y="40" on="1"/>
        <pt x="1527" y="82" on="0"/>
        <pt x="1552" y="147" on="1"/>
        <pt x="1562" y="143" on="0"/>
        <pt x="1598" y="118" on="1"/>
        <pt x="1628" y="96" on="0"/>
        <pt x="1636" y="96" on="1"/>
        <pt x="1678" y="96" on="0"/>
        <pt x="1747" y="152" on="1"/>
        <pt x="1830" y="219" on="0"/>
        <pt x="1830" y="301" on="1"/>
        <pt x="1830" y="314" on="0"/>
        <pt x="1788" y="662" on="0"/>
        <pt x="1788" y="674" on="1"/>
        <pt x="1788" y="699" on="0"/>
        <pt x="1801" y="822" on="1"/>
        <pt x="1825" y="822" on="0"/>
        <pt x="1833" y="800" on="1"/>
        <pt x="1856" y="608" on="0"/>
        <pt x="1880" y="416" on="1"/>
        <pt x="1927" y="96" on="0"/>
        <pt x="2006" y="96" on="1"/>
        <pt x="2080" y="96" on="0"/>
        <pt x="2080" y="147" on="1"/>
        <pt x="2080" y="157" on="0"/>
        <pt x="2020" y="288" on="0"/>
        <pt x="2020" y="301" on="1"/>
        <pt x="2020" y="335" on="0"/>
        <pt x="2046" y="424" on="1"/>
        <pt x="2086" y="399" on="0"/>
        <pt x="2114" y="316" on="1"/>
        <pt x="2139" y="241" on="0"/>
      </contour>
      <contour>
        <pt x="2211" y="-354" on="1"/>
        <pt x="2211" y="-392" on="0"/>
        <pt x="2189" y="-421" on="1"/>
        <pt x="2171" y="-446" on="0"/>
        <pt x="2154" y="-446" on="1"/>
        <pt x="2148" y="-446" on="0"/>
        <pt x="2114" y="-425" on="0"/>
        <pt x="2106" y="-425" on="1"/>
        <pt x="2101" y="-425" on="0"/>
        <pt x="2064" y="-487" on="0"/>
        <pt x="2053" y="-487" on="1"/>
        <pt x="2030" y="-487" on="0"/>
        <pt x="2009" y="-451" on="1"/>
        <pt x="1991" y="-421" on="0"/>
        <pt x="1991" y="-405" on="1"/>
        <pt x="1991" y="-379" on="0"/>
        <pt x="2027" y="-293" on="0"/>
        <pt x="2041" y="-293" on="1"/>
        <pt x="2059" y="-293" on="0"/>
        <pt x="2095" y="-334" on="1"/>
        <pt x="2098" y="-330" on="0"/>
        <pt x="2124" y="-290" on="1"/>
        <pt x="2143" y="-262" on="0"/>
        <pt x="2151" y="-262" on="1"/>
        <pt x="2169" y="-262" on="0"/>
        <pt x="2191" y="-305" on="1"/>
        <pt x="2211" y="-343" on="0"/>
      </contour>
      <contour>
        <pt x="824" y="1760" on="1"/>
        <pt x="824" y="1714" on="0"/>
        <pt x="752" y="1636" on="1"/>
        <pt x="707" y="1591" on="0"/>
        <pt x="661" y="1547" on="1"/>
        <pt x="586" y="1467" on="0"/>
        <pt x="456" y="1346" on="1"/>
        <pt x="456" y="1349" on="0"/>
        <pt x="449" y="1366" on="0"/>
        <pt x="449" y="1381" on="1"/>
        <pt x="449" y="1427" on="0"/>
        <pt x="508" y="1492" on="1"/>
        <pt x="544" y="1527" on="0"/>
        <pt x="581" y="1562" on="1"/>
        <pt x="711" y="1698" on="0"/>
        <pt x="796" y="1795" on="1"/>
        <pt x="816" y="1795" on="1"/>
        <pt x="824" y="1782" on="0"/>
      </contour>
      <contour>
        <pt x="1473" y="173" on="1"/>
        <pt x="1473" y="41" on="0"/>
        <pt x="1424" y="-101" on="1"/>
        <pt x="1366" y="-269" on="0"/>
        <pt x="1274" y="-330" on="1"/>
        <pt x="1261" y="-339" on="0"/>
        <pt x="1189" y="-353" on="1"/>
        <pt x="1122" y="-364" on="0"/>
        <pt x="1107" y="-364" on="1"/>
        <pt x="1060" y="-364" on="0"/>
        <pt x="1005" y="-341" on="1"/>
        <pt x="987" y="-334" on="0"/>
        <pt x="967" y="-299" on="1"/>
        <pt x="986" y="-241" on="0"/>
        <pt x="1005" y="-241" on="1"/>
        <pt x="1013" y="-241" on="0"/>
        <pt x="1099" y="-272" on="0"/>
        <pt x="1107" y="-272" on="1"/>
        <pt x="1114" y="-272" on="0"/>
        <pt x="1143" y="-247" on="0"/>
        <pt x="1147" y="-245" on="1"/>
        <pt x="1190" y="-234" on="0"/>
        <pt x="1224" y="-208" on="1"/>
        <pt x="1274" y="-172" on="0"/>
        <pt x="1345" y="-45" on="1"/>
        <pt x="1419" y="88" on="0"/>
        <pt x="1419" y="152" on="1"/>
        <pt x="1419" y="185" on="0"/>
        <pt x="1373" y="251" on="1"/>
        <pt x="1347" y="287" on="0"/>
        <pt x="1320" y="323" on="1"/>
        <pt x="1306" y="350" on="0"/>
        <pt x="1306" y="387" on="1"/>
        <pt x="1306" y="414" on="0"/>
        <pt x="1313" y="441" on="1"/>
        <pt x="1322" y="475" on="0"/>
        <pt x="1336" y="475" on="1"/>
        <pt x="1363" y="475" on="0"/>
        <pt x="1408" y="404" on="1"/>
        <pt x="1450" y="338" on="0"/>
        <pt x="1458" y="297" on="1"/>
        <pt x="1473" y="221" on="0"/>
      </contour>
      <contour>
        <pt x="1097" y="285" on="1"/>
        <pt x="1097" y="210" on="0"/>
        <pt x="1065" y="129" on="1"/>
        <pt x="1047" y="85" on="0"/>
        <pt x="992" y="57" on="1"/>
        <pt x="945" y="34" on="0"/>
        <pt x="904" y="34" on="1"/>
        <pt x="857" y="34" on="0"/>
        <pt x="833" y="85" on="1"/>
        <pt x="820" y="113" on="0"/>
        <pt x="809" y="179" on="1"/>
        <pt x="801" y="229" on="0"/>
        <pt x="791" y="229" on="1"/>
        <pt x="785" y="229" on="0"/>
        <pt x="744" y="169" on="1"/>
        <pt x="700" y="103" on="0"/>
        <pt x="679" y="88" on="1"/>
        <pt x="508" y="-27" on="0"/>
        <pt x="374" y="-27" on="1"/>
        <pt x="367" y="-27" on="0"/>
        <pt x="338" y="-10" on="0"/>
        <pt x="332" y="-9" on="1"/>
        <pt x="255" y="-1" on="0"/>
        <pt x="207" y="84" on="1"/>
        <pt x="163" y="165" on="0"/>
        <pt x="163" y="275" on="1"/>
        <pt x="163" y="438" on="0"/>
        <pt x="248" y="577" on="1"/>
        <pt x="262" y="577" on="0"/>
        <pt x="276" y="553" on="1"/>
        <pt x="260" y="501" on="0"/>
        <pt x="228" y="398" on="0"/>
        <pt x="228" y="347" on="1"/>
        <pt x="228" y="295" on="0"/>
        <pt x="243" y="259" on="1"/>
        <pt x="245" y="255" on="0"/>
        <pt x="281" y="189" on="1"/>
        <pt x="287" y="178" on="0"/>
        <pt x="321" y="164" on="1"/>
        <pt x="362" y="147" on="0"/>
        <pt x="425" y="147" on="1"/>
        <pt x="534" y="147" on="0"/>
        <pt x="633" y="209" on="1"/>
        <pt x="749" y="281" on="0"/>
        <pt x="788" y="404" on="1"/>
        <pt x="734" y="1115" on="1"/>
        <pt x="743" y="1194" on="0"/>
        <pt x="760" y="1253" on="1"/>
        <pt x="792" y="1240" on="0"/>
        <pt x="797" y="1167" on="1"/>
        <pt x="803" y="1097" on="0"/>
        <pt x="810" y="972" on="1"/>
        <pt x="815" y="867" on="0"/>
        <pt x="839" y="532" on="1"/>
        <pt x="851" y="370" on="0"/>
        <pt x="873" y="236" on="1"/>
        <pt x="877" y="209" on="0"/>
        <pt x="931" y="209" on="1"/>
        <pt x="1004" y="209" on="0"/>
        <pt x="1038" y="256" on="1"/>
        <pt x="1025" y="303" on="0"/>
        <pt x="999" y="366" on="1"/>
        <pt x="984" y="401" on="0"/>
        <pt x="984" y="439" on="1"/>
        <pt x="984" y="449" on="0"/>
        <pt x="991" y="510" on="0"/>
        <pt x="992" y="535" on="1"/>
        <pt x="993" y="535" on="0"/>
        <pt x="1006" y="546" on="0"/>
        <pt x="1014" y="546" on="1"/>
        <pt x="1048" y="546" on="0"/>
        <pt x="1076" y="421" on="1"/>
        <pt x="1097" y="324" on="0"/>
      </contour>
      <contour>
        <pt x="645" y="557" on="1"/>
        <pt x="645" y="472" on="0"/>
        <pt x="590" y="407" on="1"/>
        <pt x="544" y="352" on="0"/>
        <pt x="508" y="352" on="1"/>
        <pt x="494" y="352" on="0"/>
        <pt x="463" y="374" on="1"/>
        <pt x="428" y="401" on="0"/>
        <pt x="419" y="427" on="1"/>
        <pt x="417" y="464" on="0"/>
        <pt x="440" y="464" on="1"/>
        <pt x="447" y="464" on="0"/>
        <pt x="486" y="444" on="0"/>
        <pt x="493" y="444" on="1"/>
        <pt x="522" y="444" on="0"/>
        <pt x="544" y="470" on="1"/>
        <pt x="542" y="473" on="0"/>
        <pt x="504" y="514" on="1"/>
        <pt x="478" y="542" on="0"/>
        <pt x="478" y="582" on="1"/>
        <pt x="478" y="632" on="0"/>
        <pt x="516" y="741" on="1"/>
        <pt x="559" y="864" on="0"/>
        <pt x="597" y="864" on="1"/>
        <pt x="610" y="864" on="0"/>
        <pt x="639" y="831" on="0"/>
        <pt x="639" y="813" on="1"/>
        <pt x="639" y="785" on="0"/>
        <pt x="624" y="745" on="1"/>
        <pt x="607" y="700" on="0"/>
        <pt x="589" y="700" on="1"/>
        <pt x="586" y="700" on="0"/>
        <pt x="574" y="705" on="1"/>
        <pt x="565" y="709" on="0"/>
        <pt x="555" y="702" on="1"/>
        <pt x="555" y="697" on="0"/>
        <pt x="549" y="671" on="0"/>
        <pt x="549" y="665" on="1"/>
        <pt x="562" y="647" on="0"/>
        <pt x="612" y="619" on="1"/>
        <pt x="645" y="601" on="0"/>
      </contour>
      <contour>
        <pt x="1371" y="-528" on="1"/>
        <pt x="1371" y="-579" on="0"/>
        <pt x="1346" y="-597" on="1"/>
        <pt x="1312" y="-615" on="0"/>
        <pt x="1250" y="-654" on="1"/>
        <pt x="1209" y="-687" on="0"/>
        <pt x="1095" y="-774" on="1"/>
        <pt x="1075" y="-774" on="1"/>
        <pt x="1068" y="-760" on="0"/>
        <pt x="1068" y="-743" on="1"/>
        <pt x="1068" y="-691" on="0"/>
        <pt x="1088" y="-675" on="1"/>
        <pt x="1318" y="-498" on="0"/>
        <pt x="1334" y="-498" on="1"/>
        <pt x="1364" y="-498" on="1"/>
        <pt x="1371" y="-511" on="0"/>
      </contour>
      <contour>
        <pt x="925" y="-231" on="1"/>
        <pt x="925" y="-262" on="0"/>
        <pt x="899" y="-300" on="1"/>
        <pt x="878" y="-334" on="0"/>
        <pt x="871" y="-334" on="1"/>
        <pt x="864" y="-334" on="0"/>
        <pt x="820" y="-282" on="0"/>
        <pt x="812" y="-282" on="1"/>
        <pt x="802" y="-282" on="0"/>
        <pt x="767" y="-354" on="0"/>
        <pt x="746" y="-354" on="1"/>
        <pt x="728" y="-354" on="0"/>
        <pt x="686" y="-291" on="0"/>
        <pt x="686" y="-267" on="1"/>
        <pt x="686" y="-248" on="0"/>
        <pt x="726" y="-159" on="0"/>
        <pt x="738" y="-159" on="1"/>
        <pt x="744" y="-159" on="0"/>
        <pt x="789" y="-211" on="0"/>
        <pt x="797" y="-211" on="1"/>
        <pt x="803" y="-211" on="0"/>
        <pt x="851" y="-129" on="0"/>
        <pt x="860" y="-129" on="1"/>
        <pt x="874" y="-129" on="0"/>
        <pt x="900" y="-172" on="1"/>
        <pt x="925" y="-213" on="0"/>
      </contour>
    </TTGlyph>
    <TTGlyph name="endash" xMin="163" yMin="-774" xMax="1187" yMax="1795">
      <contour>
        <pt x="1133" y="1397" on="1"/>
        <pt x="1133" y="1345" on="0"/>
        <pt x="1123" y="1345" on="1"/>
        <pt x="1119" y="1345" on="0"/>
        <pt x="1107" y="1368" on="1"/>
        <pt x="1088" y="1405" on="0"/>
        <pt x="1088" y="1407" on="1"/>
        <pt x="1078" y="1353" on="0"/>
        <pt x="1042" y="1265" on="1"/>
        <pt x="1004" y="1171" on="0"/>
        <pt x="988" y="1172" on="1"/>
        <pt x="967" y="1172" on="1"/>
        <pt x="967" y="1190" on="0"/>
        <pt x="967" y="1199" on="1"/>
        <pt x="999" y="1271" on="0"/>
        <pt x="1059" y="1434" on="1"/>
        <pt x="1059" y="1461" on="1"/>
        <pt x="1049" y="1479" on="0"/>
        <pt x="1039" y="1499" on="1"/>
        <pt x="1026" y="1526" on="0"/>
        <pt x="1026" y="1555" on="1"/>
        <pt x="1026" y="1594" on="0"/>
        <pt x="1044" y="1672" on="1"/>
        <pt x="1062" y="1755" on="0"/>
        <pt x="1075" y="1755" on="1"/>
        <pt x="1093" y="1755" on="0"/>
        <pt x="1099" y="1647" on="1"/>
        <pt x="1102" y="1582" on="0"/>
        <pt x="1104" y="1516" on="1"/>
        <pt x="1111" y="1497" on="0"/>
        <pt x="1119" y="1477" on="1"/>
        <pt x="1131" y="1442" on="0"/>
        <pt x="1132" y="1412" on="1"/>
        <pt x="1132" y="1414" on="0"/>
        <pt x="1132" y="1414" on="1"/>
        <pt x="1133" y="1415" on="0"/>
        <pt x="1133" y="1412" on="1"/>
        <pt x="1133" y="1407" on="0"/>
      </contour>
      <contour>
        <pt x="999" y="1446" on="1"/>
        <pt x="995" y="1371" on="0"/>
        <pt x="962" y="1324" on="1"/>
        <pt x="937" y="1294" on="0"/>
        <pt x="912" y="1263" on="1"/>
        <pt x="908" y="1274" on="0"/>
        <pt x="905" y="1274" on="1"/>
        <pt x="904" y="1280" on="0"/>
        <pt x="904" y="1286" on="1"/>
        <pt x="904" y="1305" on="0"/>
        <pt x="915" y="1333" on="1"/>
        <pt x="932" y="1375" on="0"/>
        <pt x="937" y="1391" on="1"/>
        <pt x="933" y="1407" on="0"/>
        <pt x="924" y="1407" on="1"/>
        <pt x="920" y="1407" on="0"/>
        <pt x="909" y="1396" on="1"/>
        <pt x="897" y="1382" on="0"/>
        <pt x="890" y="1377" on="1"/>
        <pt x="890" y="1420" on="1"/>
        <pt x="890" y="1446" on="0"/>
        <pt x="908" y="1489" on="1"/>
        <pt x="925" y="1529" on="0"/>
        <pt x="931" y="1529" on="1"/>
        <pt x="940" y="1529" on="0"/>
      </contour>
      <contour>
        <pt x="1151" y="173" on="1"/>
        <pt x="1151" y="116" on="0"/>
        <pt x="1145" y="54" on="1"/>
        <pt x="1136" y="-25" on="0"/>
        <pt x="1121" y="-54" on="1"/>
        <pt x="1113" y="-67" on="0"/>
        <pt x="1090" y="-67" on="1"/>
        <pt x="1065" y="-67" on="0"/>
        <pt x="1050" y="-36" on="1"/>
        <pt x="1029" y="7" on="0"/>
        <pt x="1009" y="137" on="1"/>
        <pt x="992" y="79" on="0"/>
        <pt x="960" y="-3" on="1"/>
        <pt x="946" y="-23" on="0"/>
        <pt x="917" y="-46" on="1"/>
        <pt x="892" y="-67" on="0"/>
        <pt x="885" y="-67" on="1"/>
        <pt x="871" y="-67" on="0"/>
        <pt x="845" y="-1" on="0"/>
        <pt x="845" y="40" on="1"/>
        <pt x="845" y="82" on="0"/>
        <pt x="858" y="147" on="1"/>
        <pt x="863" y="143" on="0"/>
        <pt x="880" y="118" on="1"/>
        <pt x="896" y="96" on="0"/>
        <pt x="900" y="96" on="1"/>
        <pt x="921" y="96" on="0"/>
        <pt x="955" y="152" on="1"/>
        <pt x="996" y="219" on="0"/>
        <pt x="996" y="301" on="1"/>
        <pt x="996" y="314" on="0"/>
        <pt x="976" y="662" on="0"/>
        <pt x="976" y="674" on="1"/>
        <pt x="976" y="699" on="0"/>
        <pt x="982" y="822" on="1"/>
        <pt x="994" y="822" on="0"/>
        <pt x="998" y="800" on="1"/>
        <pt x="1010" y="608" on="0"/>
        <pt x="1021" y="416" on="1"/>
        <pt x="1045" y="96" on="0"/>
        <pt x="1084" y="96" on="1"/>
        <pt x="1121" y="96" on="0"/>
        <pt x="1121" y="147" on="1"/>
        <pt x="1121" y="157" on="0"/>
        <pt x="1092" y="288" on="0"/>
        <pt x="1092" y="301" on="1"/>
        <pt x="1092" y="335" on="0"/>
        <pt x="1104" y="424" on="1"/>
        <pt x="1124" y="399" on="0"/>
        <pt x="1138" y="316" on="1"/>
        <pt x="1151" y="241" on="0"/>
      </contour>
      <contour>
        <pt x="1187" y="-354" on="1"/>
        <pt x="1187" y="-392" on="0"/>
        <pt x="1176" y="-421" on="1"/>
        <pt x="1167" y="-446" on="0"/>
        <pt x="1159" y="-446" on="1"/>
        <pt x="1156" y="-446" on="0"/>
        <pt x="1138" y="-425" on="0"/>
        <pt x="1135" y="-425" on="1"/>
        <pt x="1132" y="-425" on="0"/>
        <pt x="1114" y="-487" on="0"/>
        <pt x="1108" y="-487" on="1"/>
        <pt x="1097" y="-487" on="0"/>
        <pt x="1086" y="-451" on="1"/>
        <pt x="1077" y="-421" on="0"/>
        <pt x="1077" y="-405" on="1"/>
        <pt x="1077" y="-379" on="0"/>
        <pt x="1095" y="-293" on="0"/>
        <pt x="1102" y="-293" on="1"/>
        <pt x="1111" y="-293" on="0"/>
        <pt x="1129" y="-334" on="1"/>
        <pt x="1131" y="-330" on="0"/>
        <pt x="1143" y="-290" on="1"/>
        <pt x="1153" y="-262" on="0"/>
        <pt x="1157" y="-262" on="1"/>
        <pt x="1166" y="-262" on="0"/>
        <pt x="1177" y="-305" on="1"/>
        <pt x="1187" y="-343" on="0"/>
      </contour>
      <contour>
        <pt x="493" y="1760" on="1"/>
        <pt x="493" y="1714" on="0"/>
        <pt x="458" y="1636" on="1"/>
        <pt x="435" y="1591" on="0"/>
        <pt x="412" y="1547" on="1"/>
        <pt x="374" y="1467" on="0"/>
        <pt x="310" y="1346" on="1"/>
        <pt x="310" y="1349" on="0"/>
        <pt x="306" y="1366" on="0"/>
        <pt x="306" y="1381" on="1"/>
        <pt x="306" y="1427" on="0"/>
        <pt x="336" y="1492" on="1"/>
        <pt x="354" y="1527" on="0"/>
        <pt x="372" y="1562" on="1"/>
        <pt x="437" y="1698" on="0"/>
        <pt x="480" y="1795" on="1"/>
        <pt x="490" y="1795" on="1"/>
        <pt x="493" y="1782" on="0"/>
      </contour>
      <contour>
        <pt x="818" y="173" on="1"/>
        <pt x="818" y="41" on="0"/>
        <pt x="793" y="-101" on="1"/>
        <pt x="765" y="-269" on="0"/>
        <pt x="719" y="-330" on="1"/>
        <pt x="712" y="-339" on="0"/>
        <pt x="676" y="-353" on="1"/>
        <pt x="643" y="-364" on="0"/>
        <pt x="635" y="-364" on="1"/>
        <pt x="612" y="-364" on="0"/>
        <pt x="584" y="-341" on="1"/>
        <pt x="575" y="-334" on="0"/>
        <pt x="565" y="-299" on="1"/>
        <pt x="575" y="-241" on="0"/>
        <pt x="584" y="-241" on="1"/>
        <pt x="588" y="-241" on="0"/>
        <pt x="631" y="-272" on="0"/>
        <pt x="635" y="-272" on="1"/>
        <pt x="638" y="-272" on="0"/>
        <pt x="653" y="-247" on="0"/>
        <pt x="655" y="-245" on="1"/>
        <pt x="677" y="-234" on="0"/>
        <pt x="694" y="-208" on="1"/>
        <pt x="718" y="-172" on="0"/>
        <pt x="754" y="-45" on="1"/>
        <pt x="791" y="88" on="0"/>
        <pt x="791" y="152" on="1"/>
        <pt x="791" y="185" on="0"/>
        <pt x="768" y="251" on="1"/>
        <pt x="755" y="287" on="0"/>
        <pt x="742" y="323" on="1"/>
        <pt x="734" y="350" on="0"/>
        <pt x="734" y="387" on="1"/>
        <pt x="734" y="414" on="0"/>
        <pt x="738" y="441" on="1"/>
        <pt x="743" y="475" on="0"/>
        <pt x="749" y="475" on="1"/>
        <pt x="763" y="475" on="0"/>
        <pt x="785" y="404" on="1"/>
        <pt x="807" y="338" on="0"/>
        <pt x="810" y="297" on="1"/>
        <pt x="818" y="221" on="0"/>
      </contour>
      <contour>
        <pt x="630" y="285" on="1"/>
        <pt x="630" y="210" on="0"/>
        <pt x="614" y="129" on="1"/>
        <pt x="605" y="85" on="0"/>
        <pt x="577" y="57" on="1"/>
        <pt x="554" y="34" on="0"/>
        <pt x="534" y="34" on="1"/>
        <pt x="510" y="34" on="0"/>
        <pt x="498" y="85" on="1"/>
        <pt x="492" y="113" on="0"/>
        <pt x="486" y="179" on="1"/>
        <pt x="482" y="229" on="0"/>
        <pt x="477" y="229" on="1"/>
        <pt x="474" y="229" on="0"/>
        <pt x="453" y="169" on="1"/>
        <pt x="431" y="103" on="0"/>
        <pt x="421" y="88" on="1"/>
        <pt x="335" y="-27" on="0"/>
        <pt x="269" y="-27" on="1"/>
        <pt x="265" y="-27" on="0"/>
        <pt x="251" y="-10" on="0"/>
        <pt x="248" y="-9" on="1"/>
        <pt x="209" y="-1" on="0"/>
        <pt x="185" y="84" on="1"/>
        <pt x="163" y="165" on="0"/>
        <pt x="163" y="275" on="1"/>
        <pt x="163" y="438" on="0"/>
        <pt x="206" y="577" on="1"/>
        <pt x="212" y="577" on="0"/>
        <pt x="219" y="553" on="1"/>
        <pt x="211" y="501" on="0"/>
        <pt x="196" y="398" on="0"/>
        <pt x="196" y="347" on="1"/>
        <pt x="196" y="295" on="0"/>
        <pt x="203" y="259" on="1"/>
        <pt x="204" y="255" on="0"/>
        <pt x="222" y="189" on="1"/>
        <pt x="225" y="178" on="0"/>
        <pt x="242" y="164" on="1"/>
        <pt x="262" y="147" on="0"/>
        <pt x="294" y="147" on="1"/>
        <pt x="348" y="147" on="0"/>
        <pt x="398" y="209" on="1"/>
        <pt x="456" y="281" on="0"/>
        <pt x="476" y="404" on="1"/>
        <pt x="449" y="1115" on="1"/>
        <pt x="453" y="1194" on="0"/>
        <pt x="461" y="1253" on="1"/>
        <pt x="477" y="1240" on="0"/>
        <pt x="480" y="1167" on="1"/>
        <pt x="483" y="1097" on="0"/>
        <pt x="486" y="972" on="1"/>
        <pt x="489" y="867" on="0"/>
        <pt x="501" y="532" on="1"/>
        <pt x="507" y="370" on="0"/>
        <pt x="518" y="236" on="1"/>
        <pt x="520" y="209" on="0"/>
        <pt x="547" y="209" on="1"/>
        <pt x="584" y="209" on="0"/>
        <pt x="601" y="256" on="1"/>
        <pt x="594" y="303" on="0"/>
        <pt x="581" y="366" on="1"/>
        <pt x="574" y="401" on="0"/>
        <pt x="574" y="439" on="1"/>
        <pt x="574" y="449" on="0"/>
        <pt x="577" y="510" on="0"/>
        <pt x="577" y="535" on="1"/>
        <pt x="578" y="535" on="0"/>
        <pt x="584" y="546" on="0"/>
        <pt x="589" y="546" on="1"/>
        <pt x="606" y="546" on="0"/>
        <pt x="619" y="421" on="1"/>
        <pt x="630" y="324" on="0"/>
      </contour>
      <contour>
        <pt x="404" y="557" on="1"/>
        <pt x="404" y="472" on="0"/>
        <pt x="377" y="407" on="1"/>
        <pt x="353" y="352" on="0"/>
        <pt x="336" y="352" on="1"/>
        <pt x="328" y="352" on="0"/>
        <pt x="313" y="374" on="1"/>
        <pt x="296" y="401" on="0"/>
        <pt x="291" y="427" on="1"/>
        <pt x="290" y="464" on="0"/>
        <pt x="301" y="464" on="1"/>
        <pt x="305" y="464" on="0"/>
        <pt x="324" y="444" on="0"/>
        <pt x="328" y="444" on="1"/>
        <pt x="343" y="444" on="0"/>
        <pt x="353" y="470" on="1"/>
        <pt x="353" y="473" on="0"/>
        <pt x="334" y="514" on="1"/>
        <pt x="321" y="542" on="0"/>
        <pt x="321" y="582" on="1"/>
        <pt x="321" y="632" on="0"/>
        <pt x="339" y="741" on="1"/>
        <pt x="361" y="864" on="0"/>
        <pt x="380" y="864" on="1"/>
        <pt x="386" y="864" on="0"/>
        <pt x="401" y="831" on="0"/>
        <pt x="401" y="813" on="1"/>
        <pt x="401" y="785" on="0"/>
        <pt x="393" y="745" on="1"/>
        <pt x="385" y="700" on="0"/>
        <pt x="376" y="700" on="1"/>
        <pt x="374" y="700" on="0"/>
        <pt x="368" y="705" on="1"/>
        <pt x="364" y="709" on="0"/>
        <pt x="359" y="702" on="1"/>
        <pt x="359" y="697" on="0"/>
        <pt x="356" y="671" on="0"/>
        <pt x="356" y="665" on="1"/>
        <pt x="363" y="647" on="0"/>
        <pt x="388" y="619" on="1"/>
        <pt x="404" y="601" on="0"/>
      </contour>
      <contour>
        <pt x="767" y="-528" on="1"/>
        <pt x="767" y="-579" on="0"/>
        <pt x="754" y="-597" on="1"/>
        <pt x="738" y="-615" on="0"/>
        <pt x="707" y="-654" on="1"/>
        <pt x="686" y="-687" on="0"/>
        <pt x="629" y="-774" on="1"/>
        <pt x="619" y="-774" on="1"/>
        <pt x="615" y="-760" on="0"/>
        <pt x="615" y="-743" on="1"/>
        <pt x="615" y="-691" on="0"/>
        <pt x="625" y="-675" on="1"/>
        <pt x="741" y="-498" on="0"/>
        <pt x="748" y="-498" on="1"/>
        <pt x="763" y="-498" on="1"/>
        <pt x="767" y="-511" on="0"/>
      </contour>
      <contour>
        <pt x="544" y="-231" on="1"/>
        <pt x="544" y="-262" on="0"/>
        <pt x="531" y="-300" on="1"/>
        <pt x="520" y="-334" on="0"/>
        <pt x="517" y="-334" on="1"/>
        <pt x="513" y="-334" on="0"/>
        <pt x="491" y="-282" on="0"/>
        <pt x="487" y="-282" on="1"/>
        <pt x="483" y="-282" on="0"/>
        <pt x="465" y="-354" on="0"/>
        <pt x="455" y="-354" on="1"/>
        <pt x="445" y="-354" on="0"/>
        <pt x="425" y="-291" on="0"/>
        <pt x="425" y="-267" on="1"/>
        <pt x="425" y="-248" on="0"/>
        <pt x="445" y="-159" on="0"/>
        <pt x="450" y="-159" on="1"/>
        <pt x="454" y="-159" on="0"/>
        <pt x="476" y="-211" on="0"/>
        <pt x="480" y="-211" on="1"/>
        <pt x="483" y="-211" on="0"/>
        <pt x="507" y="-129" on="0"/>
        <pt x="511" y="-129" on="1"/>
        <pt x="519" y="-129" on="0"/>
        <pt x="532" y="-172" on="1"/>
        <pt x="544" y="-213" on="0"/>
      </contour>
    </TTGlyph>
    <TTGlyph name="equal" xMin="142" yMin="226" xMax="842" yMax="1588">
      <contour>
        <pt x="142" y="226" on="1"/>
        <pt x="142" y="1588" on="1"/>
        <pt x="842" y="1588" on="1"/>
        <pt x="842" y="226" on="1"/>
      </contour>
      <contour>
        <pt x="284" y="368" on="1"/>
        <pt x="700" y="368" on="1"/>
        <pt x="700" y="1447" on="1"/>
        <pt x="284" y="1447" on="1"/>
      </contour>
    </TTGlyph>
    <TTGlyph name="exclam" xMin="142" yMin="226" xMax="842" yMax="1588">
      <contour>
        <pt x="142" y="226" on="1"/>
        <pt x="142" y="1588" on="1"/>
        <pt x="842" y="1588" on="1"/>
        <pt x="842" y="226" on="1"/>
      </contour>
      <contour>
        <pt x="284" y="368" on="1"/>
        <pt x="700" y="368" on="1"/>
        <pt x="700" y="1447" on="1"/>
        <pt x="284" y="1447" on="1"/>
      </contour>
    </TTGlyph>
    <TTGlyph name="figuredash" xMin="163" yMin="-774" xMax="3685" yMax="1795">
      <contour>
        <pt x="3500" y="1397" on="1"/>
        <pt x="3500" y="1345" on="0"/>
        <pt x="3464" y="1345" on="1"/>
        <pt x="3450" y="1345" on="0"/>
        <pt x="3409" y="1368" on="1"/>
        <pt x="3346" y="1405" on="0"/>
        <pt x="3343" y="1407" on="1"/>
        <pt x="3309" y="1353" on="0"/>
        <pt x="3187" y="1265" on="1"/>
        <pt x="3056" y="1171" on="0"/>
        <pt x="3002" y="1172" on="1"/>
        <pt x="2929" y="1172" on="1"/>
        <pt x="2928" y="1190" on="0"/>
        <pt x="2930" y="1199" on="1"/>
        <pt x="3037" y="1271" on="0"/>
        <pt x="3245" y="1434" on="1"/>
        <pt x="3245" y="1461" on="1"/>
        <pt x="3210" y="1479" on="0"/>
        <pt x="3175" y="1499" on="1"/>
        <pt x="3132" y="1526" on="0"/>
        <pt x="3132" y="1555" on="1"/>
        <pt x="3132" y="1594" on="0"/>
        <pt x="3192" y="1672" on="1"/>
        <pt x="3256" y="1755" on="0"/>
        <pt x="3301" y="1755" on="1"/>
        <pt x="3363" y="1755" on="0"/>
        <pt x="3382" y="1647" on="1"/>
        <pt x="3391" y="1582" on="0"/>
        <pt x="3400" y="1516" on="1"/>
        <pt x="3425" y="1497" on="0"/>
        <pt x="3450" y="1477" on="1"/>
        <pt x="3493" y="1442" on="0"/>
        <pt x="3496" y="1412" on="1"/>
        <pt x="3497" y="1414" on="0"/>
        <pt x="3497" y="1414" on="1"/>
        <pt x="3499" y="1415" on="0"/>
        <pt x="3500" y="1412" on="1"/>
        <pt x="3500" y="1407" on="0"/>
      </contour>
      <contour>
        <pt x="3039" y="1446" on="1"/>
        <pt x="3023" y="1371" on="0"/>
        <pt x="2910" y="1324" on="1"/>
        <pt x="2824" y="1294" on="0"/>
        <pt x="2738" y="1263" on="1"/>
        <pt x="2724" y="1274" on="0"/>
        <pt x="2715" y="1274" on="1"/>
        <pt x="2712" y="1280" on="0"/>
        <pt x="2712" y="1286" on="1"/>
        <pt x="2712" y="1305" on="0"/>
        <pt x="2750" y="1333" on="1"/>
        <pt x="2809" y="1375" on="0"/>
        <pt x="2825" y="1391" on="1"/>
        <pt x="2811" y="1407" on="0"/>
        <pt x="2779" y="1407" on="1"/>
        <pt x="2765" y="1407" on="0"/>
        <pt x="2730" y="1396" on="1"/>
        <pt x="2686" y="1382" on="0"/>
        <pt x="2662" y="1377" on="1"/>
        <pt x="2662" y="1420" on="1"/>
        <pt x="2662" y="1446" on="0"/>
        <pt x="2725" y="1489" on="1"/>
        <pt x="2784" y="1529" on="0"/>
        <pt x="2804" y="1529" on="1"/>
        <pt x="2836" y="1529" on="0"/>
      </contour>
      <contour>
        <pt x="3562" y="173" on="1"/>
        <pt x="3562" y="116" on="0"/>
        <pt x="3539" y="54" on="1"/>
        <pt x="3510" y="-25" on="0"/>
        <pt x="3457" y="-54" on="1"/>
        <pt x="3432" y="-67" on="0"/>
        <pt x="3352" y="-67" on="1"/>
        <pt x="3264" y="-67" on="0"/>
        <pt x="3214" y="-36" on="1"/>
        <pt x="3142" y="7" on="0"/>
        <pt x="3074" y="137" on="1"/>
        <pt x="3015" y="79" on="0"/>
        <pt x="2903" y="-3" on="1"/>
        <pt x="2857" y="-23" on="0"/>
        <pt x="2758" y="-46" on="1"/>
        <pt x="2670" y="-67" on="0"/>
        <pt x="2645" y="-67" on="1"/>
        <pt x="2598" y="-67" on="0"/>
        <pt x="2508" y="-1" on="0"/>
        <pt x="2508" y="40" on="1"/>
        <pt x="2508" y="82" on="0"/>
        <pt x="2552" y="147" on="1"/>
        <pt x="2569" y="143" on="0"/>
        <pt x="2630" y="118" on="1"/>
        <pt x="2683" y="96" on="0"/>
        <pt x="2697" y="96" on="1"/>
        <pt x="2769" y="96" on="0"/>
        <pt x="2887" y="152" on="1"/>
        <pt x="3029" y="219" on="0"/>
        <pt x="3029" y="301" on="1"/>
        <pt x="3029" y="314" on="0"/>
        <pt x="2958" y="662" on="0"/>
        <pt x="2958" y="674" on="1"/>
        <pt x="2958" y="699" on="0"/>
        <pt x="2980" y="822" on="1"/>
        <pt x="3021" y="822" on="0"/>
        <pt x="3035" y="800" on="1"/>
        <pt x="3075" y="608" on="0"/>
        <pt x="3115" y="416" on="1"/>
        <pt x="3196" y="96" on="0"/>
        <pt x="3332" y="96" on="1"/>
        <pt x="3459" y="96" on="0"/>
        <pt x="3459" y="147" on="1"/>
        <pt x="3459" y="157" on="0"/>
        <pt x="3357" y="288" on="0"/>
        <pt x="3357" y="301" on="1"/>
        <pt x="3357" y="335" on="0"/>
        <pt x="3401" y="424" on="1"/>
        <pt x="3470" y="399" on="0"/>
        <pt x="3518" y="316" on="1"/>
        <pt x="3562" y="241" on="0"/>
      </contour>
      <contour>
        <pt x="3685" y="-354" on="1"/>
        <pt x="3685" y="-392" on="0"/>
        <pt x="3648" y="-421" on="1"/>
        <pt x="3616" y="-446" on="0"/>
        <pt x="3587" y="-446" on="1"/>
        <pt x="3577" y="-446" on="0"/>
        <pt x="3518" y="-425" on="0"/>
        <pt x="3505" y="-425" on="1"/>
        <pt x="3496" y="-425" on="0"/>
        <pt x="3433" y="-487" on="0"/>
        <pt x="3414" y="-487" on="1"/>
        <pt x="3374" y="-487" on="0"/>
        <pt x="3337" y="-451" on="1"/>
        <pt x="3306" y="-421" on="0"/>
        <pt x="3306" y="-405" on="1"/>
        <pt x="3306" y="-379" on="0"/>
        <pt x="3369" y="-293" on="0"/>
        <pt x="3393" y="-293" on="1"/>
        <pt x="3423" y="-293" on="0"/>
        <pt x="3485" y="-334" on="1"/>
        <pt x="3491" y="-330" on="0"/>
        <pt x="3535" y="-290" on="1"/>
        <pt x="3568" y="-262" on="0"/>
        <pt x="3582" y="-262" on="1"/>
        <pt x="3613" y="-262" on="0"/>
        <pt x="3651" y="-305" on="1"/>
        <pt x="3685" y="-343" on="0"/>
      </contour>
      <contour>
        <pt x="1299" y="1760" on="1"/>
        <pt x="1299" y="1714" on="0"/>
        <pt x="1176" y="1636" on="1"/>
        <pt x="1098" y="1591" on="0"/>
        <pt x="1020" y="1547" on="1"/>
        <pt x="890" y="1467" on="0"/>
        <pt x="667" y="1346" on="1"/>
        <pt x="667" y="1349" on="0"/>
        <pt x="655" y="1366" on="0"/>
        <pt x="655" y="1381" on="1"/>
        <pt x="655" y="1427" on="0"/>
        <pt x="757" y="1492" on="1"/>
        <pt x="819" y="1527" on="0"/>
        <pt x="882" y="1562" on="1"/>
        <pt x="1105" y="1698" on="0"/>
        <pt x="1252" y="1795" on="1"/>
        <pt x="1286" y="1795" on="1"/>
        <pt x="1299" y="1782" on="0"/>
      </contour>
      <contour>
        <pt x="2415" y="173" on="1"/>
        <pt x="2415" y="41" on="0"/>
        <pt x="2331" y="-101" on="1"/>
        <pt x="2232" y="-269" on="0"/>
        <pt x="2074" y="-330" on="1"/>
        <pt x="2051" y="-339" on="0"/>
        <pt x="1927" y="-353" on="1"/>
        <pt x="1813" y="-364" on="0"/>
        <pt x="1786" y="-364" on="1"/>
        <pt x="1706" y="-364" on="0"/>
        <pt x="1611" y="-341" on="1"/>
        <pt x="1580" y="-334" on="0"/>
        <pt x="1545" y="-299" on="1"/>
        <pt x="1579" y="-241" on="0"/>
        <pt x="1611" y="-241" on="1"/>
        <pt x="1624" y="-241" on="0"/>
        <pt x="1773" y="-272" on="0"/>
        <pt x="1786" y="-272" on="1"/>
        <pt x="1798" y="-272" on="0"/>
        <pt x="1848" y="-247" on="0"/>
        <pt x="1856" y="-245" on="1"/>
        <pt x="1930" y="-234" on="0"/>
        <pt x="1988" y="-208" on="1"/>
        <pt x="2073" y="-172" on="0"/>
        <pt x="2195" y="-45" on="1"/>
        <pt x="2323" y="88" on="0"/>
        <pt x="2323" y="152" on="1"/>
        <pt x="2323" y="185" on="0"/>
        <pt x="2244" y="251" on="1"/>
        <pt x="2199" y="287" on="0"/>
        <pt x="2153" y="323" on="1"/>
        <pt x="2128" y="350" on="0"/>
        <pt x="2128" y="387" on="1"/>
        <pt x="2128" y="414" on="0"/>
        <pt x="2141" y="441" on="1"/>
        <pt x="2157" y="475" on="0"/>
        <pt x="2180" y="475" on="1"/>
        <pt x="2226" y="475" on="0"/>
        <pt x="2304" y="404" on="1"/>
        <pt x="2377" y="338" on="0"/>
        <pt x="2390" y="297" on="1"/>
        <pt x="2415" y="221" on="0"/>
      </contour>
      <contour>
        <pt x="1770" y="285" on="1"/>
        <pt x="1770" y="210" on="0"/>
        <pt x="1715" y="129" on="1"/>
        <pt x="1683" y="85" on="0"/>
        <pt x="1588" y="57" on="1"/>
        <pt x="1508" y="34" on="0"/>
        <pt x="1438" y="34" on="1"/>
        <pt x="1356" y="34" on="0"/>
        <pt x="1315" y="85" on="1"/>
        <pt x="1293" y="113" on="0"/>
        <pt x="1274" y="179" on="1"/>
        <pt x="1260" y="229" on="0"/>
        <pt x="1243" y="229" on="1"/>
        <pt x="1233" y="229" on="0"/>
        <pt x="1162" y="169" on="1"/>
        <pt x="1086" y="103" on="0"/>
        <pt x="1050" y="88" on="1"/>
        <pt x="756" y="-27" on="0"/>
        <pt x="526" y="-27" on="1"/>
        <pt x="514" y="-27" on="0"/>
        <pt x="464" y="-10" on="0"/>
        <pt x="454" y="-9" on="1"/>
        <pt x="321" y="-1" on="0"/>
        <pt x="239" y="84" on="1"/>
        <pt x="163" y="165" on="0"/>
        <pt x="163" y="275" on="1"/>
        <pt x="163" y="438" on="0"/>
        <pt x="310" y="577" on="1"/>
        <pt x="333" y="577" on="0"/>
        <pt x="357" y="553" on="1"/>
        <pt x="329" y="501" on="0"/>
        <pt x="275" y="398" on="0"/>
        <pt x="275" y="347" on="1"/>
        <pt x="275" y="295" on="0"/>
        <pt x="301" y="259" on="1"/>
        <pt x="304" y="255" on="0"/>
        <pt x="366" y="189" on="1"/>
        <pt x="377" y="178" on="0"/>
        <pt x="435" y="164" on="1"/>
        <pt x="505" y="147" on="0"/>
        <pt x="614" y="147" on="1"/>
        <pt x="801" y="147" on="0"/>
        <pt x="972" y="209" on="1"/>
        <pt x="1171" y="281" on="0"/>
        <pt x="1238" y="404" on="1"/>
        <pt x="1145" y="1115" on="1"/>
        <pt x="1161" y="1194" on="0"/>
        <pt x="1189" y="1253" on="1"/>
        <pt x="1244" y="1240" on="0"/>
        <pt x="1254" y="1167" on="1"/>
        <pt x="1263" y="1097" on="0"/>
        <pt x="1275" y="972" on="1"/>
        <pt x="1284" y="867" on="0"/>
        <pt x="1326" y="532" on="1"/>
        <pt x="1346" y="370" on="0"/>
        <pt x="1384" y="236" on="1"/>
        <pt x="1391" y="209" on="0"/>
        <pt x="1484" y="209" on="1"/>
        <pt x="1610" y="209" on="0"/>
        <pt x="1668" y="256" on="1"/>
        <pt x="1645" y="303" on="0"/>
        <pt x="1600" y="366" on="1"/>
        <pt x="1575" y="401" on="0"/>
        <pt x="1575" y="439" on="1"/>
        <pt x="1575" y="449" on="0"/>
        <pt x="1587" y="510" on="0"/>
        <pt x="1588" y="535" on="1"/>
        <pt x="1591" y="535" on="0"/>
        <pt x="1612" y="546" on="0"/>
        <pt x="1627" y="546" on="1"/>
        <pt x="1685" y="546" on="0"/>
        <pt x="1733" y="421" on="1"/>
        <pt x="1770" y="324" on="0"/>
      </contour>
      <contour>
        <pt x="992" y="557" on="1"/>
        <pt x="992" y="472" on="0"/>
        <pt x="898" y="407" on="1"/>
        <pt x="818" y="352" on="0"/>
        <pt x="757" y="352" on="1"/>
        <pt x="732" y="352" on="0"/>
        <pt x="679" y="374" on="1"/>
        <pt x="619" y="401" on="0"/>
        <pt x="603" y="427" on="1"/>
        <pt x="599" y="464" on="0"/>
        <pt x="639" y="464" on="1"/>
        <pt x="651" y="464" on="0"/>
        <pt x="718" y="444" on="0"/>
        <pt x="731" y="444" on="1"/>
        <pt x="781" y="444" on="0"/>
        <pt x="818" y="470" on="1"/>
        <pt x="815" y="473" on="0"/>
        <pt x="750" y="514" on="1"/>
        <pt x="705" y="542" on="0"/>
        <pt x="705" y="582" on="1"/>
        <pt x="705" y="632" on="0"/>
        <pt x="770" y="741" on="1"/>
        <pt x="844" y="864" on="0"/>
        <pt x="910" y="864" on="1"/>
        <pt x="931" y="864" on="0"/>
        <pt x="981" y="831" on="0"/>
        <pt x="981" y="813" on="1"/>
        <pt x="981" y="785" on="0"/>
        <pt x="955" y="745" on="1"/>
        <pt x="926" y="700" on="0"/>
        <pt x="895" y="700" on="1"/>
        <pt x="890" y="700" on="0"/>
        <pt x="869" y="705" on="1"/>
        <pt x="855" y="709" on="0"/>
        <pt x="837" y="702" on="1"/>
        <pt x="837" y="697" on="0"/>
        <pt x="827" y="671" on="0"/>
        <pt x="827" y="665" on="1"/>
        <pt x="850" y="647" on="0"/>
        <pt x="936" y="619" on="1"/>
        <pt x="992" y="601" on="0"/>
      </contour>
      <contour>
        <pt x="2241" y="-528" on="1"/>
        <pt x="2241" y="-579" on="0"/>
        <pt x="2197" y="-597" on="1"/>
        <pt x="2139" y="-615" on="0"/>
        <pt x="2033" y="-654" on="1"/>
        <pt x="1962" y="-687" on="0"/>
        <pt x="1766" y="-774" on="1"/>
        <pt x="1732" y="-774" on="1"/>
        <pt x="1719" y="-760" on="0"/>
        <pt x="1719" y="-743" on="1"/>
        <pt x="1719" y="-691" on="0"/>
        <pt x="1753" y="-675" on="1"/>
        <pt x="2150" y="-498" on="0"/>
        <pt x="2176" y="-498" on="1"/>
        <pt x="2228" y="-498" on="1"/>
        <pt x="2241" y="-511" on="0"/>
      </contour>
      <contour>
        <pt x="1473" y="-231" on="1"/>
        <pt x="1473" y="-262" on="0"/>
        <pt x="1429" y="-300" on="1"/>
        <pt x="1392" y="-334" on="0"/>
        <pt x="1381" y="-334" on="1"/>
        <pt x="1368" y="-334" on="0"/>
        <pt x="1292" y="-282" on="0"/>
        <pt x="1279" y="-282" on="1"/>
        <pt x="1262" y="-282" on="0"/>
        <pt x="1202" y="-354" on="0"/>
        <pt x="1166" y="-354" on="1"/>
        <pt x="1134" y="-354" on="0"/>
        <pt x="1063" y="-291" on="0"/>
        <pt x="1063" y="-267" on="1"/>
        <pt x="1063" y="-248" on="0"/>
        <pt x="1132" y="-159" on="0"/>
        <pt x="1151" y="-159" on="1"/>
        <pt x="1163" y="-159" on="0"/>
        <pt x="1240" y="-211" on="0"/>
        <pt x="1253" y="-211" on="1"/>
        <pt x="1263" y="-211" on="0"/>
        <pt x="1346" y="-129" on="0"/>
        <pt x="1361" y="-129" on="1"/>
        <pt x="1386" y="-129" on="0"/>
        <pt x="1431" y="-172" on="1"/>
        <pt x="1473" y="-213" on="0"/>
      </contour>
    </TTGlyph>
    <TTGlyph name="gaffinalarabic" xMin="142" yMin="226" xMax="842" yMax="1588">
      <contour>
        <pt x="142" y="226" on="1"/>
        <pt x="142" y="1588" on="1"/>
        <pt x="842" y="1588" on="1"/>
        <pt x="842" y="226" on="1"/>
      </contour>
      <contour>
        <pt x="284" y="368" on="1"/>
        <pt x="700" y="368" on="1"/>
        <pt x="700" y="1447" on="1"/>
        <pt x="284" y="1447" on="1"/>
      </contour>
    </TTGlyph>
    <TTGlyph name="gafinitialarabic" xMin="142" yMin="226" xMax="842" yMax="1588">
      <contour>
        <pt x="142" y="226" on="1"/>
        <pt x="142" y="1588" on="1"/>
        <pt x="842" y="1588" on="1"/>
        <pt x="842" y="226" on="1"/>
      </contour>
      <contour>
        <pt x="284" y="368" on="1"/>
        <pt x="700" y="368" on="1"/>
        <pt x="700" y="1447" on="1"/>
        <pt x="284" y="1447" on="1"/>
      </contour>
    </TTGlyph>
    <TTGlyph name="gafmedialarabic" xMin="142" yMin="226" xMax="842" yMax="1588">
      <contour>
        <pt x="142" y="226" on="1"/>
        <pt x="142" y="1588" on="1"/>
        <pt x="842" y="1588" on="1"/>
        <pt x="842" y="226" on="1"/>
      </contour>
      <contour>
        <pt x="284" y="368" on="1"/>
        <pt x="700" y="368" on="1"/>
        <pt x="700" y="1447" on="1"/>
        <pt x="284" y="1447" on="1"/>
      </contour>
    </TTGlyph>
    <TTGlyph name="glyph41" xMin="142" yMin="226" xMax="842" yMax="1588">
      <contour>
        <pt x="142" y="226" on="1"/>
        <pt x="142" y="1588" on="1"/>
        <pt x="842" y="1588" on="1"/>
        <pt x="842" y="226" on="1"/>
      </contour>
      <contour>
        <pt x="284" y="368" on="1"/>
        <pt x="700" y="368" on="1"/>
        <pt x="700" y="1447" on="1"/>
        <pt x="284" y="1447" on="1"/>
      </contour>
    </TTGlyph>
    <TTGlyph name="glyph42" xMin="142" yMin="226" xMax="842" yMax="1588">
      <contour>
        <pt x="142" y="226" on="1"/>
        <pt x="142" y="1588" on="1"/>
        <pt x="842" y="1588" on="1"/>
        <pt x="842" y="226" on="1"/>
      </contour>
      <contour>
        <pt x="284" y="368" on="1"/>
        <pt x="700" y="368" on="1"/>
        <pt x="700" y="1447" on="1"/>
        <pt x="284" y="1447" on="1"/>
      </contour>
    </TTGlyph>
    <TTGlyph name="glyph43" xMin="142" yMin="226" xMax="842" yMax="1588">
      <contour>
        <pt x="142" y="226" on="1"/>
        <pt x="142" y="1588" on="1"/>
        <pt x="842" y="1588" on="1"/>
        <pt x="842" y="226" on="1"/>
      </contour>
      <contour>
        <pt x="284" y="368" on="1"/>
        <pt x="700" y="368" on="1"/>
        <pt x="700" y="1447" on="1"/>
        <pt x="284" y="1447" on="1"/>
      </contour>
    </TTGlyph>
    <TTGlyph name="glyph44" xMin="142" yMin="226" xMax="842" yMax="1588">
      <contour>
        <pt x="142" y="226" on="1"/>
        <pt x="142" y="1588" on="1"/>
        <pt x="842" y="1588" on="1"/>
        <pt x="842" y="226" on="1"/>
      </contour>
      <contour>
        <pt x="284" y="368" on="1"/>
        <pt x="700" y="368" on="1"/>
        <pt x="700" y="1447" on="1"/>
        <pt x="284" y="1447" on="1"/>
      </contour>
    </TTGlyph>
    <TTGlyph name="glyph45" xMin="142" yMin="226" xMax="842" yMax="1588">
      <contour>
        <pt x="142" y="226" on="1"/>
        <pt x="142" y="1588" on="1"/>
        <pt x="842" y="1588" on="1"/>
        <pt x="842" y="226" on="1"/>
      </contour>
      <contour>
        <pt x="284" y="368" on="1"/>
        <pt x="700" y="368" on="1"/>
        <pt x="700" y="1447" on="1"/>
        <pt x="284" y="1447" on="1"/>
      </contour>
    </TTGlyph>
    <TTGlyph name="glyph46" xMin="142" yMin="226" xMax="842" yMax="1588">
      <contour>
        <pt x="142" y="226" on="1"/>
        <pt x="142" y="1588" on="1"/>
        <pt x="842" y="1588" on="1"/>
        <pt x="842" y="226" on="1"/>
      </contour>
      <contour>
        <pt x="284" y="368" on="1"/>
        <pt x="700" y="368" on="1"/>
        <pt x="700" y="1447" on="1"/>
        <pt x="284" y="1447" on="1"/>
      </contour>
    </TTGlyph>
    <TTGlyph name="glyph47" xMin="142" yMin="226" xMax="842" yMax="1588">
      <contour>
        <pt x="142" y="226" on="1"/>
        <pt x="142" y="1588" on="1"/>
        <pt x="842" y="1588" on="1"/>
        <pt x="842" y="226" on="1"/>
      </contour>
      <contour>
        <pt x="284" y="368" on="1"/>
        <pt x="700" y="368" on="1"/>
        <pt x="700" y="1447" on="1"/>
        <pt x="284" y="1447" on="1"/>
      </contour>
    </TTGlyph>
    <TTGlyph name="glyph48" xMin="142" yMin="226" xMax="842" yMax="1588">
      <contour>
        <pt x="142" y="226" on="1"/>
        <pt x="142" y="1588" on="1"/>
        <pt x="842" y="1588" on="1"/>
        <pt x="842" y="226" on="1"/>
      </contour>
      <contour>
        <pt x="284" y="368" on="1"/>
        <pt x="700" y="368" on="1"/>
        <pt x="700" y="1447" on="1"/>
        <pt x="284" y="1447" on="1"/>
      </contour>
    </TTGlyph>
    <TTGlyph name="glyph50" xMin="142" yMin="226" xMax="842" yMax="1588">
      <contour>
        <pt x="142" y="226" on="1"/>
        <pt x="142" y="1588" on="1"/>
        <pt x="842" y="1588" on="1"/>
        <pt x="842" y="226" on="1"/>
      </contour>
      <contour>
        <pt x="284" y="368" on="1"/>
        <pt x="700" y="368" on="1"/>
        <pt x="700" y="1447" on="1"/>
        <pt x="284" y="1447" on="1"/>
      </contour>
    </TTGlyph>
    <TTGlyph name="glyph51" xMin="142" yMin="226" xMax="842" yMax="1588">
      <contour>
        <pt x="142" y="226" on="1"/>
        <pt x="142" y="1588" on="1"/>
        <pt x="842" y="1588" on="1"/>
        <pt x="842" y="226" on="1"/>
      </contour>
      <contour>
        <pt x="284" y="368" on="1"/>
        <pt x="700" y="368" on="1"/>
        <pt x="700" y="1447" on="1"/>
        <pt x="284" y="1447" on="1"/>
      </contour>
    </TTGlyph>
    <TTGlyph name="greater" xMin="142" yMin="226" xMax="842" yMax="1588">
      <contour>
        <pt x="142" y="226" on="1"/>
        <pt x="142" y="1588" on="1"/>
        <pt x="842" y="1588" on="1"/>
        <pt x="842" y="226" on="1"/>
      </contour>
      <contour>
        <pt x="284" y="368" on="1"/>
        <pt x="700" y="368" on="1"/>
        <pt x="700" y="1447" on="1"/>
        <pt x="284" y="1447" on="1"/>
      </contour>
    </TTGlyph>
    <TTGlyph name="hahhamzabovefinal" xMin="142" yMin="226" xMax="842" yMax="1588">
      <contour>
        <pt x="142" y="226" on="1"/>
        <pt x="142" y="1588" on="1"/>
        <pt x="842" y="1588" on="1"/>
        <pt x="842" y="226" on="1"/>
      </contour>
      <contour>
        <pt x="284" y="368" on="1"/>
        <pt x="700" y="368" on="1"/>
        <pt x="700" y="1447" on="1"/>
        <pt x="284" y="1447" on="1"/>
      </contour>
    </TTGlyph>
    <TTGlyph name="hahhamzaboveinitial" xMin="142" yMin="226" xMax="842" yMax="1588">
      <contour>
        <pt x="142" y="226" on="1"/>
        <pt x="142" y="1588" on="1"/>
        <pt x="842" y="1588" on="1"/>
        <pt x="842" y="226" on="1"/>
      </contour>
      <contour>
        <pt x="284" y="368" on="1"/>
        <pt x="700" y="368" on="1"/>
        <pt x="700" y="1447" on="1"/>
        <pt x="284" y="1447" on="1"/>
      </contour>
    </TTGlyph>
    <TTGlyph name="hahhamzabovemedial" xMin="142" yMin="226" xMax="842" yMax="1588">
      <contour>
        <pt x="142" y="226" on="1"/>
        <pt x="142" y="1588" on="1"/>
        <pt x="842" y="1588" on="1"/>
        <pt x="842" y="226" on="1"/>
      </contour>
      <contour>
        <pt x="284" y="368" on="1"/>
        <pt x="700" y="368" on="1"/>
        <pt x="700" y="1447" on="1"/>
        <pt x="284" y="1447" on="1"/>
      </contour>
    </TTGlyph>
    <TTGlyph name="hahthreedotsabovefinal" xMin="142" yMin="226" xMax="842" yMax="1588">
      <contour>
        <pt x="142" y="226" on="1"/>
        <pt x="142" y="1588" on="1"/>
        <pt x="842" y="1588" on="1"/>
        <pt x="842" y="226" on="1"/>
      </contour>
      <contour>
        <pt x="284" y="368" on="1"/>
        <pt x="700" y="368" on="1"/>
        <pt x="700" y="1447" on="1"/>
        <pt x="284" y="1447" on="1"/>
      </contour>
    </TTGlyph>
    <TTGlyph name="hahthreedotsaboveinitial" xMin="142" yMin="226" xMax="842" yMax="1588">
      <contour>
        <pt x="142" y="226" on="1"/>
        <pt x="142" y="1588" on="1"/>
        <pt x="842" y="1588" on="1"/>
        <pt x="842" y="226" on="1"/>
      </contour>
      <contour>
        <pt x="284" y="368" on="1"/>
        <pt x="700" y="368" on="1"/>
        <pt x="700" y="1447" on="1"/>
        <pt x="284" y="1447" on="1"/>
      </contour>
    </TTGlyph>
    <TTGlyph name="hahthreedotsabovemedial" xMin="142" yMin="226" xMax="842" yMax="1588">
      <contour>
        <pt x="142" y="226" on="1"/>
        <pt x="142" y="1588" on="1"/>
        <pt x="842" y="1588" on="1"/>
        <pt x="842" y="226" on="1"/>
      </contour>
      <contour>
        <pt x="284" y="368" on="1"/>
        <pt x="700" y="368" on="1"/>
        <pt x="700" y="1447" on="1"/>
        <pt x="284" y="1447" on="1"/>
      </contour>
    </TTGlyph>
    <TTGlyph name="hehdoachashmeefinalarabic" xMin="142" yMin="226" xMax="842" yMax="1588">
      <contour>
        <pt x="142" y="226" on="1"/>
        <pt x="142" y="1588" on="1"/>
        <pt x="842" y="1588" on="1"/>
        <pt x="842" y="226" on="1"/>
      </contour>
      <contour>
        <pt x="284" y="368" on="1"/>
        <pt x="700" y="368" on="1"/>
        <pt x="700" y="1447" on="1"/>
        <pt x="284" y="1447" on="1"/>
      </contour>
    </TTGlyph>
    <TTGlyph name="hehdoachashmeeinitialarabic" xMin="142" yMin="226" xMax="842" yMax="1588">
      <contour>
        <pt x="142" y="226" on="1"/>
        <pt x="142" y="1588" on="1"/>
        <pt x="842" y="1588" on="1"/>
        <pt x="842" y="226" on="1"/>
      </contour>
      <contour>
        <pt x="284" y="368" on="1"/>
        <pt x="700" y="368" on="1"/>
        <pt x="700" y="1447" on="1"/>
        <pt x="284" y="1447" on="1"/>
      </contour>
    </TTGlyph>
    <TTGlyph name="hehdoachashmeemedialarabic" xMin="142" yMin="226" xMax="842" yMax="1588">
      <contour>
        <pt x="142" y="226" on="1"/>
        <pt x="142" y="1588" on="1"/>
        <pt x="842" y="1588" on="1"/>
        <pt x="842" y="226" on="1"/>
      </contour>
      <contour>
        <pt x="284" y="368" on="1"/>
        <pt x="700" y="368" on="1"/>
        <pt x="700" y="1447" on="1"/>
        <pt x="284" y="1447" on="1"/>
      </contour>
    </TTGlyph>
    <TTGlyph name="hehfinalaltonearabic" xMin="142" yMin="226" xMax="842" yMax="1588">
      <contour>
        <pt x="142" y="226" on="1"/>
        <pt x="142" y="1588" on="1"/>
        <pt x="842" y="1588" on="1"/>
        <pt x="842" y="226" on="1"/>
      </contour>
      <contour>
        <pt x="284" y="368" on="1"/>
        <pt x="700" y="368" on="1"/>
        <pt x="700" y="1447" on="1"/>
        <pt x="284" y="1447" on="1"/>
      </contour>
    </TTGlyph>
    <TTGlyph name="hehhamzaabovefinalarabic" xMin="142" yMin="226" xMax="842" yMax="1588">
      <contour>
        <pt x="142" y="226" on="1"/>
        <pt x="142" y="1588" on="1"/>
        <pt x="842" y="1588" on="1"/>
        <pt x="842" y="226" on="1"/>
      </contour>
      <contour>
        <pt x="284" y="368" on="1"/>
        <pt x="700" y="368" on="1"/>
        <pt x="700" y="1447" on="1"/>
        <pt x="284" y="1447" on="1"/>
      </contour>
    </TTGlyph>
    <TTGlyph name="hehinitialaltonearabic" xMin="142" yMin="226" xMax="842" yMax="1588">
      <contour>
        <pt x="142" y="226" on="1"/>
        <pt x="142" y="1588" on="1"/>
        <pt x="842" y="1588" on="1"/>
        <pt x="842" y="226" on="1"/>
      </contour>
      <contour>
        <pt x="284" y="368" on="1"/>
        <pt x="700" y="368" on="1"/>
        <pt x="700" y="1447" on="1"/>
        <pt x="284" y="1447" on="1"/>
      </contour>
    </TTGlyph>
    <TTGlyph name="hehmedialaltonearabic" xMin="142" yMin="226" xMax="842" yMax="1588">
      <contour>
        <pt x="142" y="226" on="1"/>
        <pt x="142" y="1588" on="1"/>
        <pt x="842" y="1588" on="1"/>
        <pt x="842" y="226" on="1"/>
      </contour>
      <contour>
        <pt x="284" y="368" on="1"/>
        <pt x="700" y="368" on="1"/>
        <pt x="700" y="1447" on="1"/>
        <pt x="284" y="1447" on="1"/>
      </contour>
    </TTGlyph>
    <TTGlyph name="hyphen" xMin="163" yMin="-774" xMax="3685" yMax="1795">
      <contour>
        <pt x="3500" y="1397" on="1"/>
        <pt x="3500" y="1345" on="0"/>
        <pt x="3464" y="1345" on="1"/>
        <pt x="3450" y="1345" on="0"/>
        <pt x="3409" y="1368" on="1"/>
        <pt x="3346" y="1405" on="0"/>
        <pt x="3343" y="1407" on="1"/>
        <pt x="3309" y="1353" on="0"/>
        <pt x="3187" y="1265" on="1"/>
        <pt x="3056" y="1171" on="0"/>
        <pt x="3002" y="1172" on="1"/>
        <pt x="2929" y="1172" on="1"/>
        <pt x="2928" y="1190" on="0"/>
        <pt x="2930" y="1199" on="1"/>
        <pt x="3037" y="1271" on="0"/>
        <pt x="3245" y="1434" on="1"/>
        <pt x="3245" y="1461" on="1"/>
        <pt x="3210" y="1479" on="0"/>
        <pt x="3175" y="1499" on="1"/>
        <pt x="3132" y="1526" on="0"/>
        <pt x="3132" y="1555" on="1"/>
        <pt x="3132" y="1594" on="0"/>
        <pt x="3192" y="1672" on="1"/>
        <pt x="3256" y="1755" on="0"/>
        <pt x="3301" y="1755" on="1"/>
        <pt x="3363" y="1755" on="0"/>
        <pt x="3382" y="1647" on="1"/>
        <pt x="3391" y="1582" on="0"/>
        <pt x="3400" y="1516" on="1"/>
        <pt x="3425" y="1497" on="0"/>
        <pt x="3450" y="1477" on="1"/>
        <pt x="3493" y="1442" on="0"/>
        <pt x="3496" y="1412" on="1"/>
        <pt x="3497" y="1414" on="0"/>
        <pt x="3497" y="1414" on="1"/>
        <pt x="3499" y="1415" on="0"/>
        <pt x="3500" y="1412" on="1"/>
        <pt x="3500" y="1407" on="0"/>
      </contour>
      <contour>
        <pt x="3039" y="1446" on="1"/>
        <pt x="3023" y="1371" on="0"/>
        <pt x="2910" y="1324" on="1"/>
        <pt x="2824" y="1294" on="0"/>
        <pt x="2738" y="1263" on="1"/>
        <pt x="2724" y="1274" on="0"/>
        <pt x="2715" y="1274" on="1"/>
        <pt x="2712" y="1280" on="0"/>
        <pt x="2712" y="1286" on="1"/>
        <pt x="2712" y="1305" on="0"/>
        <pt x="2750" y="1333" on="1"/>
        <pt x="2809" y="1375" on="0"/>
        <pt x="2825" y="1391" on="1"/>
        <pt x="2811" y="1407" on="0"/>
        <pt x="2779" y="1407" on="1"/>
        <pt x="2765" y="1407" on="0"/>
        <pt x="2730" y="1396" on="1"/>
        <pt x="2686" y="1382" on="0"/>
        <pt x="2662" y="1377" on="1"/>
        <pt x="2662" y="1420" on="1"/>
        <pt x="2662" y="1446" on="0"/>
        <pt x="2725" y="1489" on="1"/>
        <pt x="2784" y="1529" on="0"/>
        <pt x="2804" y="1529" on="1"/>
        <pt x="2836" y="1529" on="0"/>
      </contour>
      <contour>
        <pt x="3562" y="173" on="1"/>
        <pt x="3562" y="116" on="0"/>
        <pt x="3539" y="54" on="1"/>
        <pt x="3510" y="-25" on="0"/>
        <pt x="3457" y="-54" on="1"/>
        <pt x="3432" y="-67" on="0"/>
        <pt x="3352" y="-67" on="1"/>
        <pt x="3264" y="-67" on="0"/>
        <pt x="3214" y="-36" on="1"/>
        <pt x="3142" y="7" on="0"/>
        <pt x="3074" y="137" on="1"/>
        <pt x="3015" y="79" on="0"/>
        <pt x="2903" y="-3" on="1"/>
        <pt x="2857" y="-23" on="0"/>
        <pt x="2758" y="-46" on="1"/>
        <pt x="2670" y="-67" on="0"/>
        <pt x="2645" y="-67" on="1"/>
        <pt x="2598" y="-67" on="0"/>
        <pt x="2508" y="-1" on="0"/>
        <pt x="2508" y="40" on="1"/>
        <pt x="2508" y="82" on="0"/>
        <pt x="2552" y="147" on="1"/>
        <pt x="2569" y="143" on="0"/>
        <pt x="2630" y="118" on="1"/>
        <pt x="2683" y="96" on="0"/>
        <pt x="2697" y="96" on="1"/>
        <pt x="2769" y="96" on="0"/>
        <pt x="2887" y="152" on="1"/>
        <pt x="3029" y="219" on="0"/>
        <pt x="3029" y="301" on="1"/>
        <pt x="3029" y="314" on="0"/>
        <pt x="2958" y="662" on="0"/>
        <pt x="2958" y="674" on="1"/>
        <pt x="2958" y="699" on="0"/>
        <pt x="2980" y="822" on="1"/>
        <pt x="3021" y="822" on="0"/>
        <pt x="3035" y="800" on="1"/>
        <pt x="3075" y="608" on="0"/>
        <pt x="3115" y="416" on="1"/>
        <pt x="3196" y="96" on="0"/>
        <pt x="3332" y="96" on="1"/>
        <pt x="3459" y="96" on="0"/>
        <pt x="3459" y="147" on="1"/>
        <pt x="3459" y="157" on="0"/>
        <pt x="3357" y="288" on="0"/>
        <pt x="3357" y="301" on="1"/>
        <pt x="3357" y="335" on="0"/>
        <pt x="3401" y="424" on="1"/>
        <pt x="3470" y="399" on="0"/>
        <pt x="3518" y="316" on="1"/>
        <pt x="3562" y="241" on="0"/>
      </contour>
      <contour>
        <pt x="3685" y="-354" on="1"/>
        <pt x="3685" y="-392" on="0"/>
        <pt x="3648" y="-421" on="1"/>
        <pt x="3616" y="-446" on="0"/>
        <pt x="3587" y="-446" on="1"/>
        <pt x="3577" y="-446" on="0"/>
        <pt x="3518" y="-425" on="0"/>
        <pt x="3505" y="-425" on="1"/>
        <pt x="3496" y="-425" on="0"/>
        <pt x="3433" y="-487" on="0"/>
        <pt x="3414" y="-487" on="1"/>
        <pt x="3374" y="-487" on="0"/>
        <pt x="3337" y="-451" on="1"/>
        <pt x="3306" y="-421" on="0"/>
        <pt x="3306" y="-405" on="1"/>
        <pt x="3306" y="-379" on="0"/>
        <pt x="3369" y="-293" on="0"/>
        <pt x="3393" y="-293" on="1"/>
        <pt x="3423" y="-293" on="0"/>
        <pt x="3485" y="-334" on="1"/>
        <pt x="3491" y="-330" on="0"/>
        <pt x="3535" y="-290" on="1"/>
        <pt x="3568" y="-262" on="0"/>
        <pt x="3582" y="-262" on="1"/>
        <pt x="3613" y="-262" on="0"/>
        <pt x="3651" y="-305" on="1"/>
        <pt x="3685" y="-343" on="0"/>
      </contour>
      <contour>
        <pt x="1299" y="1760" on="1"/>
        <pt x="1299" y="1714" on="0"/>
        <pt x="1176" y="1636" on="1"/>
        <pt x="1098" y="1591" on="0"/>
        <pt x="1020" y="1547" on="1"/>
        <pt x="890" y="1467" on="0"/>
        <pt x="667" y="1346" on="1"/>
        <pt x="667" y="1349" on="0"/>
        <pt x="655" y="1366" on="0"/>
        <pt x="655" y="1381" on="1"/>
        <pt x="655" y="1427" on="0"/>
        <pt x="757" y="1492" on="1"/>
        <pt x="819" y="1527" on="0"/>
        <pt x="882" y="1562" on="1"/>
        <pt x="1105" y="1698" on="0"/>
        <pt x="1252" y="1795" on="1"/>
        <pt x="1286" y="1795" on="1"/>
        <pt x="1299" y="1782" on="0"/>
      </contour>
      <contour>
        <pt x="2415" y="173" on="1"/>
        <pt x="2415" y="41" on="0"/>
        <pt x="2331" y="-101" on="1"/>
        <pt x="2232" y="-269" on="0"/>
        <pt x="2074" y="-330" on="1"/>
        <pt x="2051" y="-339" on="0"/>
        <pt x="1927" y="-353" on="1"/>
        <pt x="1813" y="-364" on="0"/>
        <pt x="1786" y="-364" on="1"/>
        <pt x="1706" y="-364" on="0"/>
        <pt x="1611" y="-341" on="1"/>
        <pt x="1580" y="-334" on="0"/>
        <pt x="1545" y="-299" on="1"/>
        <pt x="1579" y="-241" on="0"/>
        <pt x="1611" y="-241" on="1"/>
        <pt x="1624" y="-241" on="0"/>
        <pt x="1773" y="-272" on="0"/>
        <pt x="1786" y="-272" on="1"/>
        <pt x="1798" y="-272" on="0"/>
        <pt x="1848" y="-247" on="0"/>
        <pt x="1856" y="-245" on="1"/>
        <pt x="1930" y="-234" on="0"/>
        <pt x="1988" y="-208" on="1"/>
        <pt x="2073" y="-172" on="0"/>
        <pt x="2195" y="-45" on="1"/>
        <pt x="2323" y="88" on="0"/>
        <pt x="2323" y="152" on="1"/>
        <pt x="2323" y="185" on="0"/>
        <pt x="2244" y="251" on="1"/>
        <pt x="2199" y="287" on="0"/>
        <pt x="2153" y="323" on="1"/>
        <pt x="2128" y="350" on="0"/>
        <pt x="2128" y="387" on="1"/>
        <pt x="2128" y="414" on="0"/>
        <pt x="2141" y="441" on="1"/>
        <pt x="2157" y="475" on="0"/>
        <pt x="2180" y="475" on="1"/>
        <pt x="2226" y="475" on="0"/>
        <pt x="2304" y="404" on="1"/>
        <pt x="2377" y="338" on="0"/>
        <pt x="2390" y="297" on="1"/>
        <pt x="2415" y="221" on="0"/>
      </contour>
      <contour>
        <pt x="1770" y="285" on="1"/>
        <pt x="1770" y="210" on="0"/>
        <pt x="1715" y="129" on="1"/>
        <pt x="1683" y="85" on="0"/>
        <pt x="1588" y="57" on="1"/>
        <pt x="1508" y="34" on="0"/>
        <pt x="1438" y="34" on="1"/>
        <pt x="1356" y="34" on="0"/>
        <pt x="1315" y="85" on="1"/>
        <pt x="1293" y="113" on="0"/>
        <pt x="1274" y="179" on="1"/>
        <pt x="1260" y="229" on="0"/>
        <pt x="1243" y="229" on="1"/>
        <pt x="1233" y="229" on="0"/>
        <pt x="1162" y="169" on="1"/>
        <pt x="1086" y="103" on="0"/>
        <pt x="1050" y="88" on="1"/>
        <pt x="756" y="-27" on="0"/>
        <pt x="526" y="-27" on="1"/>
        <pt x="514" y="-27" on="0"/>
        <pt x="464" y="-10" on="0"/>
        <pt x="454" y="-9" on="1"/>
        <pt x="321" y="-1" on="0"/>
        <pt x="239" y="84" on="1"/>
        <pt x="163" y="165" on="0"/>
        <pt x="163" y="275" on="1"/>
        <pt x="163" y="438" on="0"/>
        <pt x="310" y="577" on="1"/>
        <pt x="333" y="577" on="0"/>
        <pt x="357" y="553" on="1"/>
        <pt x="329" y="501" on="0"/>
        <pt x="275" y="398" on="0"/>
        <pt x="275" y="347" on="1"/>
        <pt x="275" y="295" on="0"/>
        <pt x="301" y="259" on="1"/>
        <pt x="304" y="255" on="0"/>
        <pt x="366" y="189" on="1"/>
        <pt x="377" y="178" on="0"/>
        <pt x="435" y="164" on="1"/>
        <pt x="505" y="147" on="0"/>
        <pt x="614" y="147" on="1"/>
        <pt x="801" y="147" on="0"/>
        <pt x="972" y="209" on="1"/>
        <pt x="1171" y="281" on="0"/>
        <pt x="1238" y="404" on="1"/>
        <pt x="1145" y="1115" on="1"/>
        <pt x="1161" y="1194" on="0"/>
        <pt x="1189" y="1253" on="1"/>
        <pt x="1244" y="1240" on="0"/>
        <pt x="1254" y="1167" on="1"/>
        <pt x="1263" y="1097" on="0"/>
        <pt x="1275" y="972" on="1"/>
        <pt x="1284" y="867" on="0"/>
        <pt x="1326" y="532" on="1"/>
        <pt x="1346" y="370" on="0"/>
        <pt x="1384" y="236" on="1"/>
        <pt x="1391" y="209" on="0"/>
        <pt x="1484" y="209" on="1"/>
        <pt x="1610" y="209" on="0"/>
        <pt x="1668" y="256" on="1"/>
        <pt x="1645" y="303" on="0"/>
        <pt x="1600" y="366" on="1"/>
        <pt x="1575" y="401" on="0"/>
        <pt x="1575" y="439" on="1"/>
        <pt x="1575" y="449" on="0"/>
        <pt x="1587" y="510" on="0"/>
        <pt x="1588" y="535" on="1"/>
        <pt x="1591" y="535" on="0"/>
        <pt x="1612" y="546" on="0"/>
        <pt x="1627" y="546" on="1"/>
        <pt x="1685" y="546" on="0"/>
        <pt x="1733" y="421" on="1"/>
        <pt x="1770" y="324" on="0"/>
      </contour>
      <contour>
        <pt x="992" y="557" on="1"/>
        <pt x="992" y="472" on="0"/>
        <pt x="898" y="407" on="1"/>
        <pt x="818" y="352" on="0"/>
        <pt x="757" y="352" on="1"/>
        <pt x="732" y="352" on="0"/>
        <pt x="679" y="374" on="1"/>
        <pt x="619" y="401" on="0"/>
        <pt x="603" y="427" on="1"/>
        <pt x="599" y="464" on="0"/>
        <pt x="639" y="464" on="1"/>
        <pt x="651" y="464" on="0"/>
        <pt x="718" y="444" on="0"/>
        <pt x="731" y="444" on="1"/>
        <pt x="781" y="444" on="0"/>
        <pt x="818" y="470" on="1"/>
        <pt x="815" y="473" on="0"/>
        <pt x="750" y="514" on="1"/>
        <pt x="705" y="542" on="0"/>
        <pt x="705" y="582" on="1"/>
        <pt x="705" y="632" on="0"/>
        <pt x="770" y="741" on="1"/>
        <pt x="844" y="864" on="0"/>
        <pt x="910" y="864" on="1"/>
        <pt x="931" y="864" on="0"/>
        <pt x="981" y="831" on="0"/>
        <pt x="981" y="813" on="1"/>
        <pt x="981" y="785" on="0"/>
        <pt x="955" y="745" on="1"/>
        <pt x="926" y="700" on="0"/>
        <pt x="895" y="700" on="1"/>
        <pt x="890" y="700" on="0"/>
        <pt x="869" y="705" on="1"/>
        <pt x="855" y="709" on="0"/>
        <pt x="837" y="702" on="1"/>
        <pt x="837" y="697" on="0"/>
        <pt x="827" y="671" on="0"/>
        <pt x="827" y="665" on="1"/>
        <pt x="850" y="647" on="0"/>
        <pt x="936" y="619" on="1"/>
        <pt x="992" y="601" on="0"/>
      </contour>
      <contour>
        <pt x="2241" y="-528" on="1"/>
        <pt x="2241" y="-579" on="0"/>
        <pt x="2197" y="-597" on="1"/>
        <pt x="2139" y="-615" on="0"/>
        <pt x="2033" y="-654" on="1"/>
        <pt x="1962" y="-687" on="0"/>
        <pt x="1766" y="-774" on="1"/>
        <pt x="1732" y="-774" on="1"/>
        <pt x="1719" y="-760" on="0"/>
        <pt x="1719" y="-743" on="1"/>
        <pt x="1719" y="-691" on="0"/>
        <pt x="1753" y="-675" on="1"/>
        <pt x="2150" y="-498" on="0"/>
        <pt x="2176" y="-498" on="1"/>
        <pt x="2228" y="-498" on="1"/>
        <pt x="2241" y="-511" on="0"/>
      </contour>
      <contour>
        <pt x="1473" y="-231" on="1"/>
        <pt x="1473" y="-262" on="0"/>
        <pt x="1429" y="-300" on="1"/>
        <pt x="1392" y="-334" on="0"/>
        <pt x="1381" y="-334" on="1"/>
        <pt x="1368" y="-334" on="0"/>
        <pt x="1292" y="-282" on="0"/>
        <pt x="1279" y="-282" on="1"/>
        <pt x="1262" y="-282" on="0"/>
        <pt x="1202" y="-354" on="0"/>
        <pt x="1166" y="-354" on="1"/>
        <pt x="1134" y="-354" on="0"/>
        <pt x="1063" y="-291" on="0"/>
        <pt x="1063" y="-267" on="1"/>
        <pt x="1063" y="-248" on="0"/>
        <pt x="1132" y="-159" on="0"/>
        <pt x="1151" y="-159" on="1"/>
        <pt x="1163" y="-159" on="0"/>
        <pt x="1240" y="-211" on="0"/>
        <pt x="1253" y="-211" on="1"/>
        <pt x="1263" y="-211" on="0"/>
        <pt x="1346" y="-129" on="0"/>
        <pt x="1361" y="-129" on="1"/>
        <pt x="1386" y="-129" on="0"/>
        <pt x="1431" y="-172" on="1"/>
        <pt x="1473" y="-213" on="0"/>
      </contour>
    </TTGlyph>
    <TTGlyph name="irghizufinal" xMin="142" yMin="226" xMax="842" yMax="1588">
      <contour>
        <pt x="142" y="226" on="1"/>
        <pt x="142" y="1588" on="1"/>
        <pt x="842" y="1588" on="1"/>
        <pt x="842" y="226" on="1"/>
      </contour>
      <contour>
        <pt x="284" y="368" on="1"/>
        <pt x="700" y="368" on="1"/>
        <pt x="700" y="1447" on="1"/>
        <pt x="284" y="1447" on="1"/>
      </contour>
    </TTGlyph>
    <TTGlyph name="jehfinalarabic" xMin="142" yMin="226" xMax="842" yMax="1588">
      <contour>
        <pt x="142" y="226" on="1"/>
        <pt x="142" y="1588" on="1"/>
        <pt x="842" y="1588" on="1"/>
        <pt x="842" y="226" on="1"/>
      </contour>
      <contour>
        <pt x="284" y="368" on="1"/>
        <pt x="700" y="368" on="1"/>
        <pt x="700" y="1447" on="1"/>
        <pt x="284" y="1447" on="1"/>
      </contour>
    </TTGlyph>
    <TTGlyph name="kafringfinal" xMin="142" yMin="226" xMax="842" yMax="1588">
      <contour>
        <pt x="142" y="226" on="1"/>
        <pt x="142" y="1588" on="1"/>
        <pt x="842" y="1588" on="1"/>
        <pt x="842" y="226" on="1"/>
      </contour>
      <contour>
        <pt x="284" y="368" on="1"/>
        <pt x="700" y="368" on="1"/>
        <pt x="700" y="1447" on="1"/>
        <pt x="284" y="1447" on="1"/>
      </contour>
    </TTGlyph>
    <TTGlyph name="kafringinitial" xMin="142" yMin="226" xMax="842" yMax="1588">
      <contour>
        <pt x="142" y="226" on="1"/>
        <pt x="142" y="1588" on="1"/>
        <pt x="842" y="1588" on="1"/>
        <pt x="842" y="226" on="1"/>
      </contour>
      <contour>
        <pt x="284" y="368" on="1"/>
        <pt x="700" y="368" on="1"/>
        <pt x="700" y="1447" on="1"/>
        <pt x="284" y="1447" on="1"/>
      </contour>
    </TTGlyph>
    <TTGlyph name="kafringmedial" xMin="142" yMin="226" xMax="842" yMax="1588">
      <contour>
        <pt x="142" y="226" on="1"/>
        <pt x="142" y="1588" on="1"/>
        <pt x="842" y="1588" on="1"/>
        <pt x="842" y="226" on="1"/>
      </contour>
      <contour>
        <pt x="284" y="368" on="1"/>
        <pt x="700" y="368" on="1"/>
        <pt x="700" y="1447" on="1"/>
        <pt x="284" y="1447" on="1"/>
      </contour>
    </TTGlyph>
    <TTGlyph name="kashidaautoarabic" xMin="142" yMin="226" xMax="842" yMax="1588">
      <contour>
        <pt x="142" y="226" on="1"/>
        <pt x="142" y="1588" on="1"/>
        <pt x="842" y="1588" on="1"/>
        <pt x="842" y="226" on="1"/>
      </contour>
      <contour>
        <pt x="284" y="368" on="1"/>
        <pt x="700" y="368" on="1"/>
        <pt x="700" y="1447" on="1"/>
        <pt x="284" y="1447" on="1"/>
      </contour>
    </TTGlyph>
    <TTGlyph name="kashidaautonosidebearingarabic" xMin="142" yMin="226" xMax="842" yMax="1588">
      <contour>
        <pt x="142" y="226" on="1"/>
        <pt x="142" y="1588" on="1"/>
        <pt x="842" y="1588" on="1"/>
        <pt x="842" y="226" on="1"/>
      </contour>
      <contour>
        <pt x="284" y="368" on="1"/>
        <pt x="700" y="368" on="1"/>
        <pt x="700" y="1447" on="1"/>
        <pt x="284" y="1447" on="1"/>
      </contour>
    </TTGlyph>
    <TTGlyph name="kehehfinalarabic" xMin="142" yMin="226" xMax="842" yMax="1588">
      <contour>
        <pt x="142" y="226" on="1"/>
        <pt x="142" y="1588" on="1"/>
        <pt x="842" y="1588" on="1"/>
        <pt x="842" y="226" on="1"/>
      </contour>
      <contour>
        <pt x="284" y="368" on="1"/>
        <pt x="700" y="368" on="1"/>
        <pt x="700" y="1447" on="1"/>
        <pt x="284" y="1447" on="1"/>
      </contour>
    </TTGlyph>
    <TTGlyph name="kehehinitialarabic" xMin="142" yMin="226" xMax="842" yMax="1588">
      <contour>
        <pt x="142" y="226" on="1"/>
        <pt x="142" y="1588" on="1"/>
        <pt x="842" y="1588" on="1"/>
        <pt x="842" y="226" on="1"/>
      </contour>
      <contour>
        <pt x="284" y="368" on="1"/>
        <pt x="700" y="368" on="1"/>
        <pt x="700" y="1447" on="1"/>
        <pt x="284" y="1447" on="1"/>
      </contour>
    </TTGlyph>
    <TTGlyph name="kehehmedialarabic" xMin="142" yMin="226" xMax="842" yMax="1588">
      <contour>
        <pt x="142" y="226" on="1"/>
        <pt x="142" y="1588" on="1"/>
        <pt x="842" y="1588" on="1"/>
        <pt x="842" y="226" on="1"/>
      </contour>
      <contour>
        <pt x="284" y="368" on="1"/>
        <pt x="700" y="368" on="1"/>
        <pt x="700" y="1447" on="1"/>
        <pt x="284" y="1447" on="1"/>
      </contour>
    </TTGlyph>
    <TTGlyph name="kirghizyifinal" xMin="142" yMin="226" xMax="842" yMax="1588">
      <contour>
        <pt x="142" y="226" on="1"/>
        <pt x="142" y="1588" on="1"/>
        <pt x="842" y="1588" on="1"/>
        <pt x="842" y="226" on="1"/>
      </contour>
      <contour>
        <pt x="284" y="368" on="1"/>
        <pt x="700" y="368" on="1"/>
        <pt x="700" y="1447" on="1"/>
        <pt x="284" y="1447" on="1"/>
      </contour>
    </TTGlyph>
    <TTGlyph name="lammeemjeeminitialarabic" xMin="142" yMin="226" xMax="842" yMax="1588">
      <contour>
        <pt x="142" y="226" on="1"/>
        <pt x="142" y="1588" on="1"/>
        <pt x="842" y="1588" on="1"/>
        <pt x="842" y="226" on="1"/>
      </contour>
      <contour>
        <pt x="284" y="368" on="1"/>
        <pt x="700" y="368" on="1"/>
        <pt x="700" y="1447" on="1"/>
        <pt x="284" y="1447" on="1"/>
      </contour>
    </TTGlyph>
    <TTGlyph name="lammeemkhahinitialarabic" xMin="142" yMin="226" xMax="842" yMax="1588">
      <contour>
        <pt x="142" y="226" on="1"/>
        <pt x="142" y="1588" on="1"/>
        <pt x="842" y="1588" on="1"/>
        <pt x="842" y="226" on="1"/>
      </contour>
      <contour>
        <pt x="284" y="368" on="1"/>
        <pt x="700" y="368" on="1"/>
        <pt x="700" y="1447" on="1"/>
        <pt x="284" y="1447" on="1"/>
      </contour>
    </TTGlyph>
    <TTGlyph name="lamthreedotsabovefinal" xMin="142" yMin="226" xMax="842" yMax="1588">
      <contour>
        <pt x="142" y="226" on="1"/>
        <pt x="142" y="1588" on="1"/>
        <pt x="842" y="1588" on="1"/>
        <pt x="842" y="226" on="1"/>
      </contour>
      <contour>
        <pt x="284" y="368" on="1"/>
        <pt x="700" y="368" on="1"/>
        <pt x="700" y="1447" on="1"/>
        <pt x="284" y="1447" on="1"/>
      </contour>
    </TTGlyph>
    <TTGlyph name="lamthreedotsaboveinitial" xMin="142" yMin="226" xMax="842" yMax="1588">
      <contour>
        <pt x="142" y="226" on="1"/>
        <pt x="142" y="1588" on="1"/>
        <pt x="842" y="1588" on="1"/>
        <pt x="842" y="226" on="1"/>
      </contour>
      <contour>
        <pt x="284" y="368" on="1"/>
        <pt x="700" y="368" on="1"/>
        <pt x="700" y="1447" on="1"/>
        <pt x="284" y="1447" on="1"/>
      </contour>
    </TTGlyph>
    <TTGlyph name="lamthreedotsabovemedial" xMin="142" yMin="226" xMax="842" yMax="1588">
      <contour>
        <pt x="142" y="226" on="1"/>
        <pt x="142" y="1588" on="1"/>
        <pt x="842" y="1588" on="1"/>
        <pt x="842" y="226" on="1"/>
      </contour>
      <contour>
        <pt x="284" y="368" on="1"/>
        <pt x="700" y="368" on="1"/>
        <pt x="700" y="1447" on="1"/>
        <pt x="284" y="1447" on="1"/>
      </contour>
    </TTGlyph>
    <TTGlyph name="less" xMin="142" yMin="226" xMax="842" yMax="1588">
      <contour>
        <pt x="142" y="226" on="1"/>
        <pt x="142" y="1588" on="1"/>
        <pt x="842" y="1588" on="1"/>
        <pt x="842" y="226" on="1"/>
      </contour>
      <contour>
        <pt x="284" y="368" on="1"/>
        <pt x="700" y="368" on="1"/>
        <pt x="700" y="1447" on="1"/>
        <pt x="284" y="1447" on="1"/>
      </contour>
    </TTGlyph>
    <TTGlyph name="meemmeemisolatedarabic" xMin="142" yMin="226" xMax="842" yMax="1588">
      <contour>
        <pt x="142" y="226" on="1"/>
        <pt x="142" y="1588" on="1"/>
        <pt x="842" y="1588" on="1"/>
        <pt x="842" y="226" on="1"/>
      </contour>
      <contour>
        <pt x="284" y="368" on="1"/>
        <pt x="700" y="368" on="1"/>
        <pt x="700" y="1447" on="1"/>
        <pt x="284" y="1447" on="1"/>
      </contour>
    </TTGlyph>
    <TTGlyph name="multiply" xMin="142" yMin="226" xMax="842" yMax="1588">
      <contour>
        <pt x="142" y="226" on="1"/>
        <pt x="142" y="1588" on="1"/>
        <pt x="842" y="1588" on="1"/>
        <pt x="842" y="226" on="1"/>
      </contour>
      <contour>
        <pt x="284" y="368" on="1"/>
        <pt x="700" y="368" on="1"/>
        <pt x="700" y="1447" on="1"/>
        <pt x="284" y="1447" on="1"/>
      </contour>
    </TTGlyph>
    <TTGlyph name="noonghunnafinalarabic" xMin="142" yMin="226" xMax="842" yMax="1588">
      <contour>
        <pt x="142" y="226" on="1"/>
        <pt x="142" y="1588" on="1"/>
        <pt x="842" y="1588" on="1"/>
        <pt x="842" y="226" on="1"/>
      </contour>
      <contour>
        <pt x="284" y="368" on="1"/>
        <pt x="700" y="368" on="1"/>
        <pt x="700" y="1447" on="1"/>
        <pt x="284" y="1447" on="1"/>
      </contour>
    </TTGlyph>
    <TTGlyph name="noonjeemisolatedarabic" xMin="142" yMin="226" xMax="842" yMax="1588">
      <contour>
        <pt x="142" y="226" on="1"/>
        <pt x="142" y="1588" on="1"/>
        <pt x="842" y="1588" on="1"/>
        <pt x="842" y="226" on="1"/>
      </contour>
      <contour>
        <pt x="284" y="368" on="1"/>
        <pt x="700" y="368" on="1"/>
        <pt x="700" y="1447" on="1"/>
        <pt x="284" y="1447" on="1"/>
      </contour>
    </TTGlyph>
    <TTGlyph name="noonmeemisolatedarabic" xMin="142" yMin="226" xMax="842" yMax="1588">
      <contour>
        <pt x="142" y="226" on="1"/>
        <pt x="142" y="1588" on="1"/>
        <pt x="842" y="1588" on="1"/>
        <pt x="842" y="226" on="1"/>
      </contour>
      <contour>
        <pt x="284" y="368" on="1"/>
        <pt x="700" y="368" on="1"/>
        <pt x="700" y="1447" on="1"/>
        <pt x="284" y="1447" on="1"/>
      </contour>
    </TTGlyph>
    <TTGlyph name="noonringfinal" xMin="142" yMin="226" xMax="842" yMax="1588">
      <contour>
        <pt x="142" y="226" on="1"/>
        <pt x="142" y="1588" on="1"/>
        <pt x="842" y="1588" on="1"/>
        <pt x="842" y="226" on="1"/>
      </contour>
      <contour>
        <pt x="284" y="368" on="1"/>
        <pt x="700" y="368" on="1"/>
        <pt x="700" y="1447" on="1"/>
        <pt x="284" y="1447" on="1"/>
      </contour>
    </TTGlyph>
    <TTGlyph name="noonringinitial" xMin="142" yMin="226" xMax="842" yMax="1588">
      <contour>
        <pt x="142" y="226" on="1"/>
        <pt x="142" y="1588" on="1"/>
        <pt x="842" y="1588" on="1"/>
        <pt x="842" y="226" on="1"/>
      </contour>
      <contour>
        <pt x="284" y="368" on="1"/>
        <pt x="700" y="368" on="1"/>
        <pt x="700" y="1447" on="1"/>
        <pt x="284" y="1447" on="1"/>
      </contour>
    </TTGlyph>
    <TTGlyph name="noonringmedial" xMin="142" yMin="226" xMax="842" yMax="1588">
      <contour>
        <pt x="142" y="226" on="1"/>
        <pt x="142" y="1588" on="1"/>
        <pt x="842" y="1588" on="1"/>
        <pt x="842" y="226" on="1"/>
      </contour>
      <contour>
        <pt x="284" y="368" on="1"/>
        <pt x="700" y="368" on="1"/>
        <pt x="700" y="1447" on="1"/>
        <pt x="284" y="1447" on="1"/>
      </contour>
    </TTGlyph>
    <TTGlyph name="numbersign" xMin="142" yMin="226" xMax="842" yMax="1588">
      <contour>
        <pt x="142" y="226" on="1"/>
        <pt x="142" y="1588" on="1"/>
        <pt x="842" y="1588" on="1"/>
        <pt x="842" y="226" on="1"/>
      </contour>
      <contour>
        <pt x="284" y="368" on="1"/>
        <pt x="700" y="368" on="1"/>
        <pt x="700" y="1447" on="1"/>
        <pt x="284" y="1447" on="1"/>
      </contour>
    </TTGlyph>
    <TTGlyph name="parenleft" xMin="142" yMin="226" xMax="842" yMax="1588">
      <contour>
        <pt x="142" y="226" on="1"/>
        <pt x="142" y="1588" on="1"/>
        <pt x="842" y="1588" on="1"/>
        <pt x="842" y="226" on="1"/>
      </contour>
      <contour>
        <pt x="284" y="368" on="1"/>
        <pt x="700" y="368" on="1"/>
        <pt x="700" y="1447" on="1"/>
        <pt x="284" y="1447" on="1"/>
      </contour>
    </TTGlyph>
    <TTGlyph name="parenright" xMin="142" yMin="226" xMax="842" yMax="1588">
      <contour>
        <pt x="142" y="226" on="1"/>
        <pt x="142" y="1588" on="1"/>
        <pt x="842" y="1588" on="1"/>
        <pt x="842" y="226" on="1"/>
      </contour>
      <contour>
        <pt x="284" y="368" on="1"/>
        <pt x="700" y="368" on="1"/>
        <pt x="700" y="1447" on="1"/>
        <pt x="284" y="1447" on="1"/>
      </contour>
    </TTGlyph>
    <TTGlyph name="pashtoefinal" xMin="142" yMin="226" xMax="842" yMax="1588">
      <contour>
        <pt x="142" y="226" on="1"/>
        <pt x="142" y="1588" on="1"/>
        <pt x="842" y="1588" on="1"/>
        <pt x="842" y="226" on="1"/>
      </contour>
      <contour>
        <pt x="284" y="368" on="1"/>
        <pt x="700" y="368" on="1"/>
        <pt x="700" y="1447" on="1"/>
        <pt x="284" y="1447" on="1"/>
      </contour>
    </TTGlyph>
    <TTGlyph name="pashtoeinitial" xMin="142" yMin="226" xMax="842" yMax="1588">
      <contour>
        <pt x="142" y="226" on="1"/>
        <pt x="142" y="1588" on="1"/>
        <pt x="842" y="1588" on="1"/>
        <pt x="842" y="226" on="1"/>
      </contour>
      <contour>
        <pt x="284" y="368" on="1"/>
        <pt x="700" y="368" on="1"/>
        <pt x="700" y="1447" on="1"/>
        <pt x="284" y="1447" on="1"/>
      </contour>
    </TTGlyph>
    <TTGlyph name="pashtoemedial" xMin="142" yMin="226" xMax="842" yMax="1588">
      <contour>
        <pt x="142" y="226" on="1"/>
        <pt x="142" y="1588" on="1"/>
        <pt x="842" y="1588" on="1"/>
        <pt x="842" y="226" on="1"/>
      </contour>
      <contour>
        <pt x="284" y="368" on="1"/>
        <pt x="700" y="368" on="1"/>
        <pt x="700" y="1447" on="1"/>
        <pt x="284" y="1447" on="1"/>
      </contour>
    </TTGlyph>
    <TTGlyph name="pehfinalarabic" xMin="142" yMin="226" xMax="842" yMax="1588">
      <contour>
        <pt x="142" y="226" on="1"/>
        <pt x="142" y="1588" on="1"/>
        <pt x="842" y="1588" on="1"/>
        <pt x="842" y="226" on="1"/>
      </contour>
      <contour>
        <pt x="284" y="368" on="1"/>
        <pt x="700" y="368" on="1"/>
        <pt x="700" y="1447" on="1"/>
        <pt x="284" y="1447" on="1"/>
      </contour>
    </TTGlyph>
    <TTGlyph name="pehinitialarabic" xMin="142" yMin="226" xMax="842" yMax="1588">
      <contour>
        <pt x="142" y="226" on="1"/>
        <pt x="142" y="1588" on="1"/>
        <pt x="842" y="1588" on="1"/>
        <pt x="842" y="226" on="1"/>
      </contour>
      <contour>
        <pt x="284" y="368" on="1"/>
        <pt x="700" y="368" on="1"/>
        <pt x="700" y="1447" on="1"/>
        <pt x="284" y="1447" on="1"/>
      </contour>
    </TTGlyph>
    <TTGlyph name="pehmedialarabic" xMin="142" yMin="226" xMax="842" yMax="1588">
      <contour>
        <pt x="142" y="226" on="1"/>
        <pt x="142" y="1588" on="1"/>
        <pt x="842" y="1588" on="1"/>
        <pt x="842" y="226" on="1"/>
      </contour>
      <contour>
        <pt x="284" y="368" on="1"/>
        <pt x="700" y="368" on="1"/>
        <pt x="700" y="1447" on="1"/>
        <pt x="284" y="1447" on="1"/>
      </contour>
    </TTGlyph>
    <TTGlyph name="percent" xMin="142" yMin="226" xMax="842" yMax="1588">
      <contour>
        <pt x="142" y="226" on="1"/>
        <pt x="142" y="1588" on="1"/>
        <pt x="842" y="1588" on="1"/>
        <pt x="842" y="226" on="1"/>
      </contour>
      <contour>
        <pt x="284" y="368" on="1"/>
        <pt x="700" y="368" on="1"/>
        <pt x="700" y="1447" on="1"/>
        <pt x="284" y="1447" on="1"/>
      </contour>
    </TTGlyph>
    <TTGlyph name="period" xMin="142" yMin="226" xMax="842" yMax="1588">
      <contour>
        <pt x="142" y="226" on="1"/>
        <pt x="142" y="1588" on="1"/>
        <pt x="842" y="1588" on="1"/>
        <pt x="842" y="226" on="1"/>
      </contour>
      <contour>
        <pt x="284" y="368" on="1"/>
        <pt x="700" y="368" on="1"/>
        <pt x="700" y="1447" on="1"/>
        <pt x="284" y="1447" on="1"/>
      </contour>
    </TTGlyph>
    <TTGlyph name="plus" xMin="142" yMin="226" xMax="842" yMax="1588">
      <contour>
        <pt x="142" y="226" on="1"/>
        <pt x="142" y="1588" on="1"/>
        <pt x="842" y="1588" on="1"/>
        <pt x="842" y="226" on="1"/>
      </contour>
      <contour>
        <pt x="284" y="368" on="1"/>
        <pt x="700" y="368" on="1"/>
        <pt x="700" y="1447" on="1"/>
        <pt x="284" y="1447" on="1"/>
      </contour>
    </TTGlyph>
    <TTGlyph name="quotedbl" xMin="142" yMin="226" xMax="842" yMax="1588">
      <contour>
        <pt x="142" y="226" on="1"/>
        <pt x="142" y="1588" on="1"/>
        <pt x="842" y="1588" on="1"/>
        <pt x="842" y="226" on="1"/>
      </contour>
      <contour>
        <pt x="284" y="368" on="1"/>
        <pt x="700" y="368" on="1"/>
        <pt x="700" y="1447" on="1"/>
        <pt x="284" y="1447" on="1"/>
      </contour>
    </TTGlyph>
    <TTGlyph name="quotesingle" xMin="142" yMin="226" xMax="842" yMax="1588">
      <contour>
        <pt x="142" y="226" on="1"/>
        <pt x="142" y="1588" on="1"/>
        <pt x="842" y="1588" on="1"/>
        <pt x="842" y="226" on="1"/>
      </contour>
      <contour>
        <pt x="284" y="368" on="1"/>
        <pt x="700" y="368" on="1"/>
        <pt x="700" y="1447" on="1"/>
        <pt x="284" y="1447" on="1"/>
      </contour>
    </TTGlyph>
    <TTGlyph name="rehdotbelowdotabovefinal" xMin="142" yMin="226" xMax="842" yMax="1588">
      <contour>
        <pt x="142" y="226" on="1"/>
        <pt x="142" y="1588" on="1"/>
        <pt x="842" y="1588" on="1"/>
        <pt x="842" y="226" on="1"/>
      </contour>
      <contour>
        <pt x="284" y="368" on="1"/>
        <pt x="700" y="368" on="1"/>
        <pt x="700" y="1447" on="1"/>
        <pt x="284" y="1447" on="1"/>
      </contour>
    </TTGlyph>
    <TTGlyph name="rehringfinal" xMin="142" yMin="226" xMax="842" yMax="1588">
      <contour>
        <pt x="142" y="226" on="1"/>
        <pt x="142" y="1588" on="1"/>
        <pt x="842" y="1588" on="1"/>
        <pt x="842" y="226" on="1"/>
      </contour>
      <contour>
        <pt x="284" y="368" on="1"/>
        <pt x="700" y="368" on="1"/>
        <pt x="700" y="1447" on="1"/>
        <pt x="284" y="1447" on="1"/>
      </contour>
    </TTGlyph>
    <TTGlyph name="rrehfinalarabic" xMin="142" yMin="226" xMax="842" yMax="1588">
      <contour>
        <pt x="142" y="226" on="1"/>
        <pt x="142" y="1588" on="1"/>
        <pt x="842" y="1588" on="1"/>
        <pt x="842" y="226" on="1"/>
      </contour>
      <contour>
        <pt x="284" y="368" on="1"/>
        <pt x="700" y="368" on="1"/>
        <pt x="700" y="1447" on="1"/>
        <pt x="284" y="1447" on="1"/>
      </contour>
    </TTGlyph>
    <TTGlyph name="seendotbelowdotabovefinal" xMin="142" yMin="226" xMax="842" yMax="1588">
      <contour>
        <pt x="142" y="226" on="1"/>
        <pt x="142" y="1588" on="1"/>
        <pt x="842" y="1588" on="1"/>
        <pt x="842" y="226" on="1"/>
      </contour>
      <contour>
        <pt x="284" y="368" on="1"/>
        <pt x="700" y="368" on="1"/>
        <pt x="700" y="1447" on="1"/>
        <pt x="284" y="1447" on="1"/>
      </contour>
    </TTGlyph>
    <TTGlyph name="seendotbelowdotaboveinitial" xMin="142" yMin="226" xMax="842" yMax="1588">
      <contour>
        <pt x="142" y="226" on="1"/>
        <pt x="142" y="1588" on="1"/>
        <pt x="842" y="1588" on="1"/>
        <pt x="842" y="226" on="1"/>
      </contour>
      <contour>
        <pt x="284" y="368" on="1"/>
        <pt x="700" y="368" on="1"/>
        <pt x="700" y="1447" on="1"/>
        <pt x="284" y="1447" on="1"/>
      </contour>
    </TTGlyph>
    <TTGlyph name="seendotbelowdotabovemedial" xMin="142" yMin="226" xMax="842" yMax="1588">
      <contour>
        <pt x="142" y="226" on="1"/>
        <pt x="142" y="1588" on="1"/>
        <pt x="842" y="1588" on="1"/>
        <pt x="842" y="226" on="1"/>
      </contour>
      <contour>
        <pt x="284" y="368" on="1"/>
        <pt x="700" y="368" on="1"/>
        <pt x="700" y="1447" on="1"/>
        <pt x="284" y="1447" on="1"/>
      </contour>
    </TTGlyph>
    <TTGlyph name="shaddadammaarabic" xMin="142" yMin="226" xMax="842" yMax="1588">
      <contour>
        <pt x="142" y="226" on="1"/>
        <pt x="142" y="1588" on="1"/>
        <pt x="842" y="1588" on="1"/>
        <pt x="842" y="226" on="1"/>
      </contour>
      <contour>
        <pt x="284" y="368" on="1"/>
        <pt x="700" y="368" on="1"/>
        <pt x="700" y="1447" on="1"/>
        <pt x="284" y="1447" on="1"/>
      </contour>
    </TTGlyph>
    <TTGlyph name="shaddadammatanarabic" xMin="142" yMin="226" xMax="842" yMax="1588">
      <contour>
        <pt x="142" y="226" on="1"/>
        <pt x="142" y="1588" on="1"/>
        <pt x="842" y="1588" on="1"/>
        <pt x="842" y="226" on="1"/>
      </contour>
      <contour>
        <pt x="284" y="368" on="1"/>
        <pt x="700" y="368" on="1"/>
        <pt x="700" y="1447" on="1"/>
        <pt x="284" y="1447" on="1"/>
      </contour>
    </TTGlyph>
    <TTGlyph name="shaddafathaarabic" xMin="142" yMin="226" xMax="842" yMax="1588">
      <contour>
        <pt x="142" y="226" on="1"/>
        <pt x="142" y="1588" on="1"/>
        <pt x="842" y="1588" on="1"/>
        <pt x="842" y="226" on="1"/>
      </contour>
      <contour>
        <pt x="284" y="368" on="1"/>
        <pt x="700" y="368" on="1"/>
        <pt x="700" y="1447" on="1"/>
        <pt x="284" y="1447" on="1"/>
      </contour>
    </TTGlyph>
    <TTGlyph name="shaddakasraarabic" xMin="142" yMin="226" xMax="842" yMax="1588">
      <contour>
        <pt x="142" y="226" on="1"/>
        <pt x="142" y="1588" on="1"/>
        <pt x="842" y="1588" on="1"/>
        <pt x="842" y="226" on="1"/>
      </contour>
      <contour>
        <pt x="284" y="368" on="1"/>
        <pt x="700" y="368" on="1"/>
        <pt x="700" y="1447" on="1"/>
        <pt x="284" y="1447" on="1"/>
      </contour>
    </TTGlyph>
    <TTGlyph name="shaddakasratanarabic" xMin="142" yMin="226" xMax="842" yMax="1588">
      <contour>
        <pt x="142" y="226" on="1"/>
        <pt x="142" y="1588" on="1"/>
        <pt x="842" y="1588" on="1"/>
        <pt x="842" y="226" on="1"/>
      </contour>
      <contour>
        <pt x="284" y="368" on="1"/>
        <pt x="700" y="368" on="1"/>
        <pt x="700" y="1447" on="1"/>
        <pt x="284" y="1447" on="1"/>
      </contour>
    </TTGlyph>
    <TTGlyph name="slash" xMin="142" yMin="226" xMax="842" yMax="1588">
      <contour>
        <pt x="142" y="226" on="1"/>
        <pt x="142" y="1588" on="1"/>
        <pt x="842" y="1588" on="1"/>
        <pt x="842" y="226" on="1"/>
      </contour>
      <contour>
        <pt x="284" y="368" on="1"/>
        <pt x="700" y="368" on="1"/>
        <pt x="700" y="1447" on="1"/>
        <pt x="284" y="1447" on="1"/>
      </contour>
    </TTGlyph>
    <TTGlyph name="space" xMin="142" yMin="226" xMax="842" yMax="1588">
      <contour>
        <pt x="142" y="226" on="1"/>
        <pt x="142" y="1588" on="1"/>
        <pt x="842" y="1588" on="1"/>
        <pt x="842" y="226" on="1"/>
      </contour>
      <contour>
        <pt x="284" y="368" on="1"/>
        <pt x="700" y="368" on="1"/>
        <pt x="700" y="1447" on="1"/>
        <pt x="284" y="1447" on="1"/>
      </contour>
    </TTGlyph>
    <TTGlyph name="tchehfinalarabic" xMin="142" yMin="226" xMax="842" yMax="1588">
      <contour>
        <pt x="142" y="226" on="1"/>
        <pt x="142" y="1588" on="1"/>
        <pt x="842" y="1588" on="1"/>
        <pt x="842" y="226" on="1"/>
      </contour>
      <contour>
        <pt x="284" y="368" on="1"/>
        <pt x="700" y="368" on="1"/>
        <pt x="700" y="1447" on="1"/>
        <pt x="284" y="1447" on="1"/>
      </contour>
    </TTGlyph>
    <TTGlyph name="tchehinitialarabic" xMin="142" yMin="226" xMax="842" yMax="1588">
      <contour>
        <pt x="142" y="226" on="1"/>
        <pt x="142" y="1588" on="1"/>
        <pt x="842" y="1588" on="1"/>
        <pt x="842" y="226" on="1"/>
      </contour>
      <contour>
        <pt x="284" y="368" on="1"/>
        <pt x="700" y="368" on="1"/>
        <pt x="700" y="1447" on="1"/>
        <pt x="284" y="1447" on="1"/>
      </contour>
    </TTGlyph>
    <TTGlyph name="tchehmedialarabic" xMin="142" yMin="226" xMax="842" yMax="1588">
      <contour>
        <pt x="142" y="226" on="1"/>
        <pt x="142" y="1588" on="1"/>
        <pt x="842" y="1588" on="1"/>
        <pt x="842" y="226" on="1"/>
      </contour>
      <contour>
        <pt x="284" y="368" on="1"/>
        <pt x="700" y="368" on="1"/>
        <pt x="700" y="1447" on="1"/>
        <pt x="284" y="1447" on="1"/>
      </contour>
    </TTGlyph>
    <TTGlyph name="tehhahisolatedarabic" xMin="142" yMin="226" xMax="842" yMax="1588">
      <contour>
        <pt x="142" y="226" on="1"/>
        <pt x="142" y="1588" on="1"/>
        <pt x="842" y="1588" on="1"/>
        <pt x="842" y="226" on="1"/>
      </contour>
      <contour>
        <pt x="284" y="368" on="1"/>
        <pt x="700" y="368" on="1"/>
        <pt x="700" y="1447" on="1"/>
        <pt x="284" y="1447" on="1"/>
      </contour>
    </TTGlyph>
    <TTGlyph name="tehjeemisolatedarabic" xMin="142" yMin="226" xMax="842" yMax="1588">
      <contour>
        <pt x="142" y="226" on="1"/>
        <pt x="142" y="1588" on="1"/>
        <pt x="842" y="1588" on="1"/>
        <pt x="842" y="226" on="1"/>
      </contour>
      <contour>
        <pt x="284" y="368" on="1"/>
        <pt x="700" y="368" on="1"/>
        <pt x="700" y="1447" on="1"/>
        <pt x="284" y="1447" on="1"/>
      </contour>
    </TTGlyph>
    <TTGlyph name="tehmeemisolatedarabic" xMin="142" yMin="226" xMax="842" yMax="1588">
      <contour>
        <pt x="142" y="226" on="1"/>
        <pt x="142" y="1588" on="1"/>
        <pt x="842" y="1588" on="1"/>
        <pt x="842" y="226" on="1"/>
      </contour>
      <contour>
        <pt x="284" y="368" on="1"/>
        <pt x="700" y="368" on="1"/>
        <pt x="700" y="1447" on="1"/>
        <pt x="284" y="1447" on="1"/>
      </contour>
    </TTGlyph>
    <TTGlyph name="tehnoonfinalarabic" xMin="142" yMin="226" xMax="842" yMax="1588">
      <contour>
        <pt x="142" y="226" on="1"/>
        <pt x="142" y="1588" on="1"/>
        <pt x="842" y="1588" on="1"/>
        <pt x="842" y="226" on="1"/>
      </contour>
      <contour>
        <pt x="284" y="368" on="1"/>
        <pt x="700" y="368" on="1"/>
        <pt x="700" y="1447" on="1"/>
        <pt x="284" y="1447" on="1"/>
      </contour>
    </TTGlyph>
    <TTGlyph name="tehringfinal" xMin="142" yMin="226" xMax="842" yMax="1588">
      <contour>
        <pt x="142" y="226" on="1"/>
        <pt x="142" y="1588" on="1"/>
        <pt x="842" y="1588" on="1"/>
        <pt x="842" y="226" on="1"/>
      </contour>
      <contour>
        <pt x="284" y="368" on="1"/>
        <pt x="700" y="368" on="1"/>
        <pt x="700" y="1447" on="1"/>
        <pt x="284" y="1447" on="1"/>
      </contour>
    </TTGlyph>
    <TTGlyph name="tehringinitial" xMin="142" yMin="226" xMax="842" yMax="1588">
      <contour>
        <pt x="142" y="226" on="1"/>
        <pt x="142" y="1588" on="1"/>
        <pt x="842" y="1588" on="1"/>
        <pt x="842" y="226" on="1"/>
      </contour>
      <contour>
        <pt x="284" y="368" on="1"/>
        <pt x="700" y="368" on="1"/>
        <pt x="700" y="1447" on="1"/>
        <pt x="284" y="1447" on="1"/>
      </contour>
    </TTGlyph>
    <TTGlyph name="tehringmedial" xMin="142" yMin="226" xMax="842" yMax="1588">
      <contour>
        <pt x="142" y="226" on="1"/>
        <pt x="142" y="1588" on="1"/>
        <pt x="842" y="1588" on="1"/>
        <pt x="842" y="226" on="1"/>
      </contour>
      <contour>
        <pt x="284" y="368" on="1"/>
        <pt x="700" y="368" on="1"/>
        <pt x="700" y="1447" on="1"/>
        <pt x="284" y="1447" on="1"/>
      </contour>
    </TTGlyph>
    <TTGlyph name="ttehfinalarabic" xMin="142" yMin="226" xMax="842" yMax="1588">
      <contour>
        <pt x="142" y="226" on="1"/>
        <pt x="142" y="1588" on="1"/>
        <pt x="842" y="1588" on="1"/>
        <pt x="842" y="226" on="1"/>
      </contour>
      <contour>
        <pt x="284" y="368" on="1"/>
        <pt x="700" y="368" on="1"/>
        <pt x="700" y="1447" on="1"/>
        <pt x="284" y="1447" on="1"/>
      </contour>
    </TTGlyph>
    <TTGlyph name="ttehinitialarabic" xMin="142" yMin="226" xMax="842" yMax="1588">
      <contour>
        <pt x="142" y="226" on="1"/>
        <pt x="142" y="1588" on="1"/>
        <pt x="842" y="1588" on="1"/>
        <pt x="842" y="226" on="1"/>
      </contour>
      <contour>
        <pt x="284" y="368" on="1"/>
        <pt x="700" y="368" on="1"/>
        <pt x="700" y="1447" on="1"/>
        <pt x="284" y="1447" on="1"/>
      </contour>
    </TTGlyph>
    <TTGlyph name="ttehmedialarabic" xMin="142" yMin="226" xMax="842" yMax="1588">
      <contour>
        <pt x="142" y="226" on="1"/>
        <pt x="142" y="1588" on="1"/>
        <pt x="842" y="1588" on="1"/>
        <pt x="842" y="226" on="1"/>
      </contour>
      <contour>
        <pt x="284" y="368" on="1"/>
        <pt x="700" y="368" on="1"/>
        <pt x="700" y="1447" on="1"/>
        <pt x="284" y="1447" on="1"/>
      </contour>
    </TTGlyph>
    <TTGlyph name="uni000D" xMin="142" yMin="226" xMax="842" yMax="1588">
      <contour>
        <pt x="142" y="226" on="1"/>
        <pt x="142" y="1588" on="1"/>
        <pt x="842" y="1588" on="1"/>
        <pt x="842" y="226" on="1"/>
      </contour>
      <contour>
        <pt x="284" y="368" on="1"/>
        <pt x="700" y="368" on="1"/>
        <pt x="700" y="1447" on="1"/>
        <pt x="284" y="1447" on="1"/>
      </contour>
    </TTGlyph>
    <TTGlyph name="uni00A0" xMin="142" yMin="226" xMax="842" yMax="1588">
      <contour>
        <pt x="142" y="226" on="1"/>
        <pt x="142" y="1588" on="1"/>
        <pt x="842" y="1588" on="1"/>
        <pt x="842" y="226" on="1"/>
      </contour>
      <contour>
        <pt x="284" y="368" on="1"/>
        <pt x="700" y="368" on="1"/>
        <pt x="700" y="1447" on="1"/>
        <pt x="284" y="1447" on="1"/>
      </contour>
    </TTGlyph>
    <TTGlyph name="uni00AD" xMin="142" yMin="226" xMax="842" yMax="1588">
      <contour>
        <pt x="142" y="226" on="1"/>
        <pt x="142" y="1588" on="1"/>
        <pt x="842" y="1588" on="1"/>
        <pt x="842" y="226" on="1"/>
      </contour>
      <contour>
        <pt x="284" y="368" on="1"/>
        <pt x="700" y="368" on="1"/>
        <pt x="700" y="1447" on="1"/>
        <pt x="284" y="1447" on="1"/>
      </contour>
    </TTGlyph>
    <TTGlyph name="uni0653" xMin="142" yMin="226" xMax="842" yMax="1588">
      <contour>
        <pt x="142" y="226" on="1"/>
        <pt x="142" y="1588" on="1"/>
        <pt x="842" y="1588" on="1"/>
        <pt x="842" y="226" on="1"/>
      </contour>
      <contour>
        <pt x="284" y="368" on="1"/>
        <pt x="700" y="368" on="1"/>
        <pt x="700" y="1447" on="1"/>
        <pt x="284" y="1447" on="1"/>
      </contour>
    </TTGlyph>
    <TTGlyph name="uni0654" xMin="142" yMin="226" xMax="842" yMax="1588">
      <contour>
        <pt x="142" y="226" on="1"/>
        <pt x="142" y="1588" on="1"/>
        <pt x="842" y="1588" on="1"/>
        <pt x="842" y="226" on="1"/>
      </contour>
      <contour>
        <pt x="284" y="368" on="1"/>
        <pt x="700" y="368" on="1"/>
        <pt x="700" y="1447" on="1"/>
        <pt x="284" y="1447" on="1"/>
      </contour>
    </TTGlyph>
    <TTGlyph name="uni0655" xMin="142" yMin="226" xMax="842" yMax="1588">
      <contour>
        <pt x="142" y="226" on="1"/>
        <pt x="142" y="1588" on="1"/>
        <pt x="842" y="1588" on="1"/>
        <pt x="842" y="226" on="1"/>
      </contour>
      <contour>
        <pt x="284" y="368" on="1"/>
        <pt x="700" y="368" on="1"/>
        <pt x="700" y="1447" on="1"/>
        <pt x="284" y="1447" on="1"/>
      </contour>
    </TTGlyph>
    <TTGlyph name="uni066B" xMin="142" yMin="226" xMax="842" yMax="1588">
      <contour>
        <pt x="142" y="226" on="1"/>
        <pt x="142" y="1588" on="1"/>
        <pt x="842" y="1588" on="1"/>
        <pt x="842" y="226" on="1"/>
      </contour>
      <contour>
        <pt x="284" y="368" on="1"/>
        <pt x="700" y="368" on="1"/>
        <pt x="700" y="1447" on="1"/>
        <pt x="284" y="1447" on="1"/>
      </contour>
    </TTGlyph>
    <TTGlyph name="uni066C" xMin="142" yMin="226" xMax="842" yMax="1588">
      <contour>
        <pt x="142" y="226" on="1"/>
        <pt x="142" y="1588" on="1"/>
        <pt x="842" y="1588" on="1"/>
        <pt x="842" y="226" on="1"/>
      </contour>
      <contour>
        <pt x="284" y="368" on="1"/>
        <pt x="700" y="368" on="1"/>
        <pt x="700" y="1447" on="1"/>
        <pt x="284" y="1447" on="1"/>
      </contour>
    </TTGlyph>
    <TTGlyph name="uni0671" xMin="142" yMin="226" xMax="842" yMax="1588">
      <contour>
        <pt x="142" y="226" on="1"/>
        <pt x="142" y="1588" on="1"/>
        <pt x="842" y="1588" on="1"/>
        <pt x="842" y="226" on="1"/>
      </contour>
      <contour>
        <pt x="284" y="368" on="1"/>
        <pt x="700" y="368" on="1"/>
        <pt x="700" y="1447" on="1"/>
        <pt x="284" y="1447" on="1"/>
      </contour>
    </TTGlyph>
    <TTGlyph name="uni067C" xMin="142" yMin="226" xMax="842" yMax="1588">
      <contour>
        <pt x="142" y="226" on="1"/>
        <pt x="142" y="1588" on="1"/>
        <pt x="842" y="1588" on="1"/>
        <pt x="842" y="226" on="1"/>
      </contour>
      <contour>
        <pt x="284" y="368" on="1"/>
        <pt x="700" y="368" on="1"/>
        <pt x="700" y="1447" on="1"/>
        <pt x="284" y="1447" on="1"/>
      </contour>
    </TTGlyph>
    <TTGlyph name="uni0681" xMin="142" yMin="226" xMax="842" yMax="1588">
      <contour>
        <pt x="142" y="226" on="1"/>
        <pt x="142" y="1588" on="1"/>
        <pt x="842" y="1588" on="1"/>
        <pt x="842" y="226" on="1"/>
      </contour>
      <contour>
        <pt x="284" y="368" on="1"/>
        <pt x="700" y="368" on="1"/>
        <pt x="700" y="1447" on="1"/>
        <pt x="284" y="1447" on="1"/>
      </contour>
    </TTGlyph>
    <TTGlyph name="uni0685" xMin="142" yMin="226" xMax="842" yMax="1588">
      <contour>
        <pt x="142" y="226" on="1"/>
        <pt x="142" y="1588" on="1"/>
        <pt x="842" y="1588" on="1"/>
        <pt x="842" y="226" on="1"/>
      </contour>
      <contour>
        <pt x="284" y="368" on="1"/>
        <pt x="700" y="368" on="1"/>
        <pt x="700" y="1447" on="1"/>
        <pt x="284" y="1447" on="1"/>
      </contour>
    </TTGlyph>
    <TTGlyph name="uni0689" xMin="142" yMin="226" xMax="842" yMax="1588">
      <contour>
        <pt x="142" y="226" on="1"/>
        <pt x="142" y="1588" on="1"/>
        <pt x="842" y="1588" on="1"/>
        <pt x="842" y="226" on="1"/>
      </contour>
      <contour>
        <pt x="284" y="368" on="1"/>
        <pt x="700" y="368" on="1"/>
        <pt x="700" y="1447" on="1"/>
        <pt x="284" y="1447" on="1"/>
      </contour>
    </TTGlyph>
    <TTGlyph name="uni0693" xMin="142" yMin="226" xMax="842" yMax="1588">
      <contour>
        <pt x="142" y="226" on="1"/>
        <pt x="142" y="1588" on="1"/>
        <pt x="842" y="1588" on="1"/>
        <pt x="842" y="226" on="1"/>
      </contour>
      <contour>
        <pt x="284" y="368" on="1"/>
        <pt x="700" y="368" on="1"/>
        <pt x="700" y="1447" on="1"/>
        <pt x="284" y="1447" on="1"/>
      </contour>
    </TTGlyph>
    <TTGlyph name="uni0696" xMin="142" yMin="226" xMax="842" yMax="1588">
      <contour>
        <pt x="142" y="226" on="1"/>
        <pt x="142" y="1588" on="1"/>
        <pt x="842" y="1588" on="1"/>
        <pt x="842" y="226" on="1"/>
      </contour>
      <contour>
        <pt x="284" y="368" on="1"/>
        <pt x="700" y="368" on="1"/>
        <pt x="700" y="1447" on="1"/>
        <pt x="284" y="1447" on="1"/>
      </contour>
    </TTGlyph>
    <TTGlyph name="uni069A" xMin="142" yMin="226" xMax="842" yMax="1588">
      <contour>
        <pt x="142" y="226" on="1"/>
        <pt x="142" y="1588" on="1"/>
        <pt x="842" y="1588" on="1"/>
        <pt x="842" y="226" on="1"/>
      </contour>
      <contour>
        <pt x="284" y="368" on="1"/>
        <pt x="700" y="368" on="1"/>
        <pt x="700" y="1447" on="1"/>
        <pt x="284" y="1447" on="1"/>
      </contour>
    </TTGlyph>
    <TTGlyph name="uni06A9" xMin="142" yMin="226" xMax="842" yMax="1588">
      <contour>
        <pt x="142" y="226" on="1"/>
        <pt x="142" y="1588" on="1"/>
        <pt x="842" y="1588" on="1"/>
        <pt x="842" y="226" on="1"/>
      </contour>
      <contour>
        <pt x="284" y="368" on="1"/>
        <pt x="700" y="368" on="1"/>
        <pt x="700" y="1447" on="1"/>
        <pt x="284" y="1447" on="1"/>
      </contour>
    </TTGlyph>
    <TTGlyph name="uni06AB" xMin="142" yMin="226" xMax="842" yMax="1588">
      <contour>
        <pt x="142" y="226" on="1"/>
        <pt x="142" y="1588" on="1"/>
        <pt x="842" y="1588" on="1"/>
        <pt x="842" y="226" on="1"/>
      </contour>
      <contour>
        <pt x="284" y="368" on="1"/>
        <pt x="700" y="368" on="1"/>
        <pt x="700" y="1447" on="1"/>
        <pt x="284" y="1447" on="1"/>
      </contour>
    </TTGlyph>
    <TTGlyph name="uni06B7" xMin="142" yMin="226" xMax="842" yMax="1588">
      <contour>
        <pt x="142" y="226" on="1"/>
        <pt x="142" y="1588" on="1"/>
        <pt x="842" y="1588" on="1"/>
        <pt x="842" y="226" on="1"/>
      </contour>
      <contour>
        <pt x="284" y="368" on="1"/>
        <pt x="700" y="368" on="1"/>
        <pt x="700" y="1447" on="1"/>
        <pt x="284" y="1447" on="1"/>
      </contour>
    </TTGlyph>
    <TTGlyph name="uni06BC" xMin="142" yMin="226" xMax="842" yMax="1588">
      <contour>
        <pt x="142" y="226" on="1"/>
        <pt x="142" y="1588" on="1"/>
        <pt x="842" y="1588" on="1"/>
        <pt x="842" y="226" on="1"/>
      </contour>
      <contour>
        <pt x="284" y="368" on="1"/>
        <pt x="700" y="368" on="1"/>
        <pt x="700" y="1447" on="1"/>
        <pt x="284" y="1447" on="1"/>
      </contour>
    </TTGlyph>
    <TTGlyph name="uni06BE" xMin="142" yMin="226" xMax="842" yMax="1588">
      <contour>
        <pt x="142" y="226" on="1"/>
        <pt x="142" y="1588" on="1"/>
        <pt x="842" y="1588" on="1"/>
        <pt x="842" y="226" on="1"/>
      </contour>
      <contour>
        <pt x="284" y="368" on="1"/>
        <pt x="700" y="368" on="1"/>
        <pt x="700" y="1447" on="1"/>
        <pt x="284" y="1447" on="1"/>
      </contour>
    </TTGlyph>
    <TTGlyph name="uni06C2" xMin="142" yMin="226" xMax="842" yMax="1588">
      <contour>
        <pt x="142" y="226" on="1"/>
        <pt x="142" y="1588" on="1"/>
        <pt x="842" y="1588" on="1"/>
        <pt x="842" y="226" on="1"/>
      </contour>
      <contour>
        <pt x="284" y="368" on="1"/>
        <pt x="700" y="368" on="1"/>
        <pt x="700" y="1447" on="1"/>
        <pt x="284" y="1447" on="1"/>
      </contour>
    </TTGlyph>
    <TTGlyph name="uni06C7" xMin="142" yMin="226" xMax="842" yMax="1588">
      <contour>
        <pt x="142" y="226" on="1"/>
        <pt x="142" y="1588" on="1"/>
        <pt x="842" y="1588" on="1"/>
        <pt x="842" y="226" on="1"/>
      </contour>
      <contour>
        <pt x="284" y="368" on="1"/>
        <pt x="700" y="368" on="1"/>
        <pt x="700" y="1447" on="1"/>
        <pt x="284" y="1447" on="1"/>
      </contour>
    </TTGlyph>
    <TTGlyph name="uni06C9" xMin="142" yMin="226" xMax="842" yMax="1588">
      <contour>
        <pt x="142" y="226" on="1"/>
        <pt x="142" y="1588" on="1"/>
        <pt x="842" y="1588" on="1"/>
        <pt x="842" y="226" on="1"/>
      </contour>
      <contour>
        <pt x="284" y="368" on="1"/>
        <pt x="700" y="368" on="1"/>
        <pt x="700" y="1447" on="1"/>
        <pt x="284" y="1447" on="1"/>
      </contour>
    </TTGlyph>
    <TTGlyph name="uni06CC" xMin="142" yMin="226" xMax="842" yMax="1588">
      <contour>
        <pt x="142" y="226" on="1"/>
        <pt x="142" y="1588" on="1"/>
        <pt x="842" y="1588" on="1"/>
        <pt x="842" y="226" on="1"/>
      </contour>
      <contour>
        <pt x="284" y="368" on="1"/>
        <pt x="700" y="368" on="1"/>
        <pt x="700" y="1447" on="1"/>
        <pt x="284" y="1447" on="1"/>
      </contour>
    </TTGlyph>
    <TTGlyph name="uni06CD" xMin="142" yMin="226" xMax="842" yMax="1588">
      <contour>
        <pt x="142" y="226" on="1"/>
        <pt x="142" y="1588" on="1"/>
        <pt x="842" y="1588" on="1"/>
        <pt x="842" y="226" on="1"/>
      </contour>
      <contour>
        <pt x="284" y="368" on="1"/>
        <pt x="700" y="368" on="1"/>
        <pt x="700" y="1447" on="1"/>
        <pt x="284" y="1447" on="1"/>
      </contour>
    </TTGlyph>
    <TTGlyph name="uni06D0" xMin="142" yMin="226" xMax="842" yMax="1588">
      <contour>
        <pt x="142" y="226" on="1"/>
        <pt x="142" y="1588" on="1"/>
        <pt x="842" y="1588" on="1"/>
        <pt x="842" y="226" on="1"/>
      </contour>
      <contour>
        <pt x="284" y="368" on="1"/>
        <pt x="700" y="368" on="1"/>
        <pt x="700" y="1447" on="1"/>
        <pt x="284" y="1447" on="1"/>
      </contour>
    </TTGlyph>
    <TTGlyph name="uni06D1" xMin="142" yMin="226" xMax="842" yMax="1588">
      <contour>
        <pt x="142" y="226" on="1"/>
        <pt x="142" y="1588" on="1"/>
        <pt x="842" y="1588" on="1"/>
        <pt x="842" y="226" on="1"/>
      </contour>
      <contour>
        <pt x="284" y="368" on="1"/>
        <pt x="700" y="368" on="1"/>
        <pt x="700" y="1447" on="1"/>
        <pt x="284" y="1447" on="1"/>
      </contour>
    </TTGlyph>
    <TTGlyph name="uni06D3" xMin="142" yMin="226" xMax="842" yMax="1588">
      <contour>
        <pt x="142" y="226" on="1"/>
        <pt x="142" y="1588" on="1"/>
        <pt x="842" y="1588" on="1"/>
        <pt x="842" y="226" on="1"/>
      </contour>
      <contour>
        <pt x="284" y="368" on="1"/>
        <pt x="700" y="368" on="1"/>
        <pt x="700" y="1447" on="1"/>
        <pt x="284" y="1447" on="1"/>
      </contour>
    </TTGlyph>
    <TTGlyph name="uni06D4" xMin="142" yMin="226" xMax="842" yMax="1588">
      <contour>
        <pt x="142" y="226" on="1"/>
        <pt x="142" y="1588" on="1"/>
        <pt x="842" y="1588" on="1"/>
        <pt x="842" y="226" on="1"/>
      </contour>
      <contour>
        <pt x="284" y="368" on="1"/>
        <pt x="700" y="368" on="1"/>
        <pt x="700" y="1447" on="1"/>
        <pt x="284" y="1447" on="1"/>
      </contour>
    </TTGlyph>
    <TTGlyph name="uni06F0" xMin="142" yMin="226" xMax="842" yMax="1588">
      <contour>
        <pt x="142" y="226" on="1"/>
        <pt x="142" y="1588" on="1"/>
        <pt x="842" y="1588" on="1"/>
        <pt x="842" y="226" on="1"/>
      </contour>
      <contour>
        <pt x="284" y="368" on="1"/>
        <pt x="700" y="368" on="1"/>
        <pt x="700" y="1447" on="1"/>
        <pt x="284" y="1447" on="1"/>
      </contour>
    </TTGlyph>
    <TTGlyph name="uni06F1" xMin="142" yMin="226" xMax="842" yMax="1588">
      <contour>
        <pt x="142" y="226" on="1"/>
        <pt x="142" y="1588" on="1"/>
        <pt x="842" y="1588" on="1"/>
        <pt x="842" y="226" on="1"/>
      </contour>
      <contour>
        <pt x="284" y="368" on="1"/>
        <pt x="700" y="368" on="1"/>
        <pt x="700" y="1447" on="1"/>
        <pt x="284" y="1447" on="1"/>
      </contour>
    </TTGlyph>
    <TTGlyph name="uni06F2" xMin="142" yMin="226" xMax="842" yMax="1588">
      <contour>
        <pt x="142" y="226" on="1"/>
        <pt x="142" y="1588" on="1"/>
        <pt x="842" y="1588" on="1"/>
        <pt x="842" y="226" on="1"/>
      </contour>
      <contour>
        <pt x="284" y="368" on="1"/>
        <pt x="700" y="368" on="1"/>
        <pt x="700" y="1447" on="1"/>
        <pt x="284" y="1447" on="1"/>
      </contour>
    </TTGlyph>
    <TTGlyph name="uni06F3" xMin="142" yMin="226" xMax="842" yMax="1588">
      <contour>
        <pt x="142" y="226" on="1"/>
        <pt x="142" y="1588" on="1"/>
        <pt x="842" y="1588" on="1"/>
        <pt x="842" y="226" on="1"/>
      </contour>
      <contour>
        <pt x="284" y="368" on="1"/>
        <pt x="700" y="368" on="1"/>
        <pt x="700" y="1447" on="1"/>
        <pt x="284" y="1447" on="1"/>
      </contour>
    </TTGlyph>
    <TTGlyph name="uni06F4" xMin="142" yMin="226" xMax="842" yMax="1588">
      <contour>
        <pt x="142" y="226" on="1"/>
        <pt x="142" y="1588" on="1"/>
        <pt x="842" y="1588" on="1"/>
        <pt x="842" y="226" on="1"/>
      </contour>
      <contour>
        <pt x="284" y="368" on="1"/>
        <pt x="700" y="368" on="1"/>
        <pt x="700" y="1447" on="1"/>
        <pt x="284" y="1447" on="1"/>
      </contour>
    </TTGlyph>
    <TTGlyph name="uni06F5" xMin="142" yMin="226" xMax="842" yMax="1588">
      <contour>
        <pt x="142" y="226" on="1"/>
        <pt x="142" y="1588" on="1"/>
        <pt x="842" y="1588" on="1"/>
        <pt x="842" y="226" on="1"/>
      </contour>
      <contour>
        <pt x="284" y="368" on="1"/>
        <pt x="700" y="368" on="1"/>
        <pt x="700" y="1447" on="1"/>
        <pt x="284" y="1447" on="1"/>
      </contour>
    </TTGlyph>
    <TTGlyph name="uni06F6" xMin="142" yMin="226" xMax="842" yMax="1588">
      <contour>
        <pt x="142" y="226" on="1"/>
        <pt x="142" y="1588" on="1"/>
        <pt x="842" y="1588" on="1"/>
        <pt x="842" y="226" on="1"/>
      </contour>
      <contour>
        <pt x="284" y="368" on="1"/>
        <pt x="700" y="368" on="1"/>
        <pt x="700" y="1447" on="1"/>
        <pt x="284" y="1447" on="1"/>
      </contour>
    </TTGlyph>
    <TTGlyph name="uni06F7" xMin="142" yMin="226" xMax="842" yMax="1588">
      <contour>
        <pt x="142" y="226" on="1"/>
        <pt x="142" y="1588" on="1"/>
        <pt x="842" y="1588" on="1"/>
        <pt x="842" y="226" on="1"/>
      </contour>
      <contour>
        <pt x="284" y="368" on="1"/>
        <pt x="700" y="368" on="1"/>
        <pt x="700" y="1447" on="1"/>
        <pt x="284" y="1447" on="1"/>
      </contour>
    </TTGlyph>
    <TTGlyph name="uni06F8" xMin="142" yMin="226" xMax="842" yMax="1588">
      <contour>
        <pt x="142" y="226" on="1"/>
        <pt x="142" y="1588" on="1"/>
        <pt x="842" y="1588" on="1"/>
        <pt x="842" y="226" on="1"/>
      </contour>
      <contour>
        <pt x="284" y="368" on="1"/>
        <pt x="700" y="368" on="1"/>
        <pt x="700" y="1447" on="1"/>
        <pt x="284" y="1447" on="1"/>
      </contour>
    </TTGlyph>
    <TTGlyph name="uni06F9" xMin="142" yMin="226" xMax="842" yMax="1588">
      <contour>
        <pt x="142" y="226" on="1"/>
        <pt x="142" y="1588" on="1"/>
        <pt x="842" y="1588" on="1"/>
        <pt x="842" y="226" on="1"/>
      </contour>
      <contour>
        <pt x="284" y="368" on="1"/>
        <pt x="700" y="368" on="1"/>
        <pt x="700" y="1447" on="1"/>
        <pt x="284" y="1447" on="1"/>
      </contour>
    </TTGlyph>
    <TTGlyph name="uni2010" xMin="163" yMin="-774" xMax="3685" yMax="1795">
      <contour>
        <pt x="3500" y="1397" on="1"/>
        <pt x="3500" y="1345" on="0"/>
        <pt x="3464" y="1345" on="1"/>
        <pt x="3450" y="1345" on="0"/>
        <pt x="3409" y="1368" on="1"/>
        <pt x="3346" y="1405" on="0"/>
        <pt x="3343" y="1407" on="1"/>
        <pt x="3309" y="1353" on="0"/>
        <pt x="3187" y="1265" on="1"/>
        <pt x="3056" y="1171" on="0"/>
        <pt x="3002" y="1172" on="1"/>
        <pt x="2929" y="1172" on="1"/>
        <pt x="2928" y="1190" on="0"/>
        <pt x="2930" y="1199" on="1"/>
        <pt x="3037" y="1271" on="0"/>
        <pt x="3245" y="1434" on="1"/>
        <pt x="3245" y="1461" on="1"/>
        <pt x="3210" y="1479" on="0"/>
        <pt x="3175" y="1499" on="1"/>
        <pt x="3132" y="1526" on="0"/>
        <pt x="3132" y="1555" on="1"/>
        <pt x="3132" y="1594" on="0"/>
        <pt x="3192" y="1672" on="1"/>
        <pt x="3256" y="1755" on="0"/>
        <pt x="3301" y="1755" on="1"/>
        <pt x="3363" y="1755" on="0"/>
        <pt x="3382" y="1647" on="1"/>
        <pt x="3391" y="1582" on="0"/>
        <pt x="3400" y="1516" on="1"/>
        <pt x="3425" y="1497" on="0"/>
        <pt x="3450" y="1477" on="1"/>
        <pt x="3493" y="1442" on="0"/>
        <pt x="3496" y="1412" on="1"/>
        <pt x="3497" y="1414" on="0"/>
        <pt x="3497" y="1414" on="1"/>
        <pt x="3499" y="1415" on="0"/>
        <pt x="3500" y="1412" on="1"/>
        <pt x="3500" y="1407" on="0"/>
      </contour>
      <contour>
        <pt x="3039" y="1446" on="1"/>
        <pt x="3023" y="1371" on="0"/>
        <pt x="2910" y="1324" on="1"/>
        <pt x="2824" y="1294" on="0"/>
        <pt x="2738" y="1263" on="1"/>
        <pt x="2724" y="1274" on="0"/>
        <pt x="2715" y="1274" on="1"/>
        <pt x="2712" y="1280" on="0"/>
        <pt x="2712" y="1286" on="1"/>
        <pt x="2712" y="1305" on="0"/>
        <pt x="2750" y="1333" on="1"/>
        <pt x="2809" y="1375" on="0"/>
        <pt x="2825" y="1391" on="1"/>
        <pt x="2811" y="1407" on="0"/>
        <pt x="2779" y="1407" on="1"/>
        <pt x="2765" y="1407" on="0"/>
        <pt x="2730" y="1396" on="1"/>
        <pt x="2686" y="1382" on="0"/>
        <pt x="2662" y="1377" on="1"/>
        <pt x="2662" y="1420" on="1"/>
        <pt x="2662" y="1446" on="0"/>
        <pt x="2725" y="1489" on="1"/>
        <pt x="2784" y="1529" on="0"/>
        <pt x="2804" y="1529" on="1"/>
        <pt x="2836" y="1529" on="0"/>
      </contour>
      <contour>
        <pt x="3562" y="173" on="1"/>
        <pt x="3562" y="116" on="0"/>
        <pt x="3539" y="54" on="1"/>
        <pt x="3510" y="-25" on="0"/>
        <pt x="3457" y="-54" on="1"/>
        <pt x="3432" y="-67" on="0"/>
        <pt x="3352" y="-67" on="1"/>
        <pt x="3264" y="-67" on="0"/>
        <pt x="3214" y="-36" on="1"/>
        <pt x="3142" y="7" on="0"/>
        <pt x="3074" y="137" on="1"/>
        <pt x="3015" y="79" on="0"/>
        <pt x="2903" y="-3" on="1"/>
        <pt x="2857" y="-23" on="0"/>
        <pt x="2758" y="-46" on="1"/>
        <pt x="2670" y="-67" on="0"/>
        <pt x="2645" y="-67" on="1"/>
        <pt x="2598" y="-67" on="0"/>
        <pt x="2508" y="-1" on="0"/>
        <pt x="2508" y="40" on="1"/>
        <pt x="2508" y="82" on="0"/>
        <pt x="2552" y="147" on="1"/>
        <pt x="2569" y="143" on="0"/>
        <pt x="2630" y="118" on="1"/>
        <pt x="2683" y="96" on="0"/>
        <pt x="2697" y="96" on="1"/>
        <pt x="2769" y="96" on="0"/>
        <pt x="2887" y="152" on="1"/>
        <pt x="3029" y="219" on="0"/>
        <pt x="3029" y="301" on="1"/>
        <pt x="3029" y="314" on="0"/>
        <pt x="2958" y="662" on="0"/>
        <pt x="2958" y="674" on="1"/>
        <pt x="2958" y="699" on="0"/>
        <pt x="2980" y="822" on="1"/>
        <pt x="3021" y="822" on="0"/>
        <pt x="3035" y="800" on="1"/>
        <pt x="3075" y="608" on="0"/>
        <pt x="3115" y="416" on="1"/>
        <pt x="3196" y="96" on="0"/>
        <pt x="3332" y="96" on="1"/>
        <pt x="3459" y="96" on="0"/>
        <pt x="3459" y="147" on="1"/>
        <pt x="3459" y="157" on="0"/>
        <pt x="3357" y="288" on="0"/>
        <pt x="3357" y="301" on="1"/>
        <pt x="3357" y="335" on="0"/>
        <pt x="3401" y="424" on="1"/>
        <pt x="3470" y="399" on="0"/>
        <pt x="3518" y="316" on="1"/>
        <pt x="3562" y="241" on="0"/>
      </contour>
      <contour>
        <pt x="3685" y="-354" on="1"/>
        <pt x="3685" y="-392" on="0"/>
        <pt x="3648" y="-421" on="1"/>
        <pt x="3616" y="-446" on="0"/>
        <pt x="3587" y="-446" on="1"/>
        <pt x="3577" y="-446" on="0"/>
        <pt x="3518" y="-425" on="0"/>
        <pt x="3505" y="-425" on="1"/>
        <pt x="3496" y="-425" on="0"/>
        <pt x="3433" y="-487" on="0"/>
        <pt x="3414" y="-487" on="1"/>
        <pt x="3374" y="-487" on="0"/>
        <pt x="3337" y="-451" on="1"/>
        <pt x="3306" y="-421" on="0"/>
        <pt x="3306" y="-405" on="1"/>
        <pt x="3306" y="-379" on="0"/>
        <pt x="3369" y="-293" on="0"/>
        <pt x="3393" y="-293" on="1"/>
        <pt x="3423" y="-293" on="0"/>
        <pt x="3485" y="-334" on="1"/>
        <pt x="3491" y="-330" on="0"/>
        <pt x="3535" y="-290" on="1"/>
        <pt x="3568" y="-262" on="0"/>
        <pt x="3582" y="-262" on="1"/>
        <pt x="3613" y="-262" on="0"/>
        <pt x="3651" y="-305" on="1"/>
        <pt x="3685" y="-343" on="0"/>
      </contour>
      <contour>
        <pt x="1299" y="1760" on="1"/>
        <pt x="1299" y="1714" on="0"/>
        <pt x="1176" y="1636" on="1"/>
        <pt x="1098" y="1591" on="0"/>
        <pt x="1020" y="1547" on="1"/>
        <pt x="890" y="1467" on="0"/>
        <pt x="667" y="1346" on="1"/>
        <pt x="667" y="1349" on="0"/>
        <pt x="655" y="1366" on="0"/>
        <pt x="655" y="1381" on="1"/>
        <pt x="655" y="1427" on="0"/>
        <pt x="757" y="1492" on="1"/>
        <pt x="819" y="1527" on="0"/>
        <pt x="882" y="1562" on="1"/>
        <pt x="1105" y="1698" on="0"/>
        <pt x="1252" y="1795" on="1"/>
        <pt x="1286" y="1795" on="1"/>
        <pt x="1299" y="1782" on="0"/>
      </contour>
      <contour>
        <pt x="2415" y="173" on="1"/>
        <pt x="2415" y="41" on="0"/>
        <pt x="2331" y="-101" on="1"/>
        <pt x="2232" y="-269" on="0"/>
        <pt x="2074" y="-330" on="1"/>
        <pt x="2051" y="-339" on="0"/>
        <pt x="1927" y="-353" on="1"/>
        <pt x="1813" y="-364" on="0"/>
        <pt x="1786" y="-364" on="1"/>
        <pt x="1706" y="-364" on="0"/>
        <pt x="1611" y="-341" on="1"/>
        <pt x="1580" y="-334" on="0"/>
        <pt x="1545" y="-299" on="1"/>
        <pt x="1579" y="-241" on="0"/>
        <pt x="1611" y="-241" on="1"/>
        <pt x="1624" y="-241" on="0"/>
        <pt x="1773" y="-272" on="0"/>
        <pt x="1786" y="-272" on="1"/>
        <pt x="1798" y="-272" on="0"/>
        <pt x="1848" y="-247" on="0"/>
        <pt x="1856" y="-245" on="1"/>
        <pt x="1930" y="-234" on="0"/>
        <pt x="1988" y="-208" on="1"/>
        <pt x="2073" y="-172" on="0"/>
        <pt x="2195" y="-45" on="1"/>
        <pt x="2323" y="88" on="0"/>
        <pt x="2323" y="152" on="1"/>
        <pt x="2323" y="185" on="0"/>
        <pt x="2244" y="251" on="1"/>
        <pt x="2199" y="287" on="0"/>
        <pt x="2153" y="323" on="1"/>
        <pt x="2128" y="350" on="0"/>
        <pt x="2128" y="387" on="1"/>
        <pt x="2128" y="414" on="0"/>
        <pt x="2141" y="441" on="1"/>
        <pt x="2157" y="475" on="0"/>
        <pt x="2180" y="475" on="1"/>
        <pt x="2226" y="475" on="0"/>
        <pt x="2304" y="404" on="1"/>
        <pt x="2377" y="338" on="0"/>
        <pt x="2390" y="297" on="1"/>
        <pt x="2415" y="221" on="0"/>
      </contour>
      <contour>
        <pt x="1770" y="285" on="1"/>
        <pt x="1770" y="210" on="0"/>
        <pt x="1715" y="129" on="1"/>
        <pt x="1683" y="85" on="0"/>
        <pt x="1588" y="57" on="1"/>
        <pt x="1508" y="34" on="0"/>
        <pt x="1438" y="34" on="1"/>
        <pt x="1356" y="34" on="0"/>
        <pt x="1315" y="85" on="1"/>
        <pt x="1293" y="113" on="0"/>
        <pt x="1274" y="179" on="1"/>
        <pt x="1260" y="229" on="0"/>
        <pt x="1243" y="229" on="1"/>
        <pt x="1233" y="229" on="0"/>
        <pt x="1162" y="169" on="1"/>
        <pt x="1086" y="103" on="0"/>
        <pt x="1050" y="88" on="1"/>
        <pt x="756" y="-27" on="0"/>
        <pt x="526" y="-27" on="1"/>
        <pt x="514" y="-27" on="0"/>
        <pt x="464" y="-10" on="0"/>
        <pt x="454" y="-9" on="1"/>
        <pt x="321" y="-1" on="0"/>
        <pt x="239" y="84" on="1"/>
        <pt x="163" y="165" on="0"/>
        <pt x="163" y="275" on="1"/>
        <pt x="163" y="438" on="0"/>
        <pt x="310" y="577" on="1"/>
        <pt x="333" y="577" on="0"/>
        <pt x="357" y="553" on="1"/>
        <pt x="329" y="501" on="0"/>
        <pt x="275" y="398" on="0"/>
        <pt x="275" y="347" on="1"/>
        <pt x="275" y="295" on="0"/>
        <pt x="301" y="259" on="1"/>
        <pt x="304" y="255" on="0"/>
        <pt x="366" y="189" on="1"/>
        <pt x="377" y="178" on="0"/>
        <pt x="435" y="164" on="1"/>
        <pt x="505" y="147" on="0"/>
        <pt x="614" y="147" on="1"/>
        <pt x="801" y="147" on="0"/>
        <pt x="972" y="209" on="1"/>
        <pt x="1171" y="281" on="0"/>
        <pt x="1238" y="404" on="1"/>
        <pt x="1145" y="1115" on="1"/>
        <pt x="1161" y="1194" on="0"/>
        <pt x="1189" y="1253" on="1"/>
        <pt x="1244" y="1240" on="0"/>
        <pt x="1254" y="1167" on="1"/>
        <pt x="1263" y="1097" on="0"/>
        <pt x="1275" y="972" on="1"/>
        <pt x="1284" y="867" on="0"/>
        <pt x="1326" y="532" on="1"/>
        <pt x="1346" y="370" on="0"/>
        <pt x="1384" y="236" on="1"/>
        <pt x="1391" y="209" on="0"/>
        <pt x="1484" y="209" on="1"/>
        <pt x="1610" y="209" on="0"/>
        <pt x="1668" y="256" on="1"/>
        <pt x="1645" y="303" on="0"/>
        <pt x="1600" y="366" on="1"/>
        <pt x="1575" y="401" on="0"/>
        <pt x="1575" y="439" on="1"/>
        <pt x="1575" y="449" on="0"/>
        <pt x="1587" y="510" on="0"/>
        <pt x="1588" y="535" on="1"/>
        <pt x="1591" y="535" on="0"/>
        <pt x="1612" y="546" on="0"/>
        <pt x="1627" y="546" on="1"/>
        <pt x="1685" y="546" on="0"/>
        <pt x="1733" y="421" on="1"/>
        <pt x="1770" y="324" on="0"/>
      </contour>
      <contour>
        <pt x="992" y="557" on="1"/>
        <pt x="992" y="472" on="0"/>
        <pt x="898" y="407" on="1"/>
        <pt x="818" y="352" on="0"/>
        <pt x="757" y="352" on="1"/>
        <pt x="732" y="352" on="0"/>
        <pt x="679" y="374" on="1"/>
        <pt x="619" y="401" on="0"/>
        <pt x="603" y="427" on="1"/>
        <pt x="599" y="464" on="0"/>
        <pt x="639" y="464" on="1"/>
        <pt x="651" y="464" on="0"/>
        <pt x="718" y="444" on="0"/>
        <pt x="731" y="444" on="1"/>
        <pt x="781" y="444" on="0"/>
        <pt x="818" y="470" on="1"/>
        <pt x="815" y="473" on="0"/>
        <pt x="750" y="514" on="1"/>
        <pt x="705" y="542" on="0"/>
        <pt x="705" y="582" on="1"/>
        <pt x="705" y="632" on="0"/>
        <pt x="770" y="741" on="1"/>
        <pt x="844" y="864" on="0"/>
        <pt x="910" y="864" on="1"/>
        <pt x="931" y="864" on="0"/>
        <pt x="981" y="831" on="0"/>
        <pt x="981" y="813" on="1"/>
        <pt x="981" y="785" on="0"/>
        <pt x="955" y="745" on="1"/>
        <pt x="926" y="700" on="0"/>
        <pt x="895" y="700" on="1"/>
        <pt x="890" y="700" on="0"/>
        <pt x="869" y="705" on="1"/>
        <pt x="855" y="709" on="0"/>
        <pt x="837" y="702" on="1"/>
        <pt x="837" y="697" on="0"/>
        <pt x="827" y="671" on="0"/>
        <pt x="827" y="665" on="1"/>
        <pt x="850" y="647" on="0"/>
        <pt x="936" y="619" on="1"/>
        <pt x="992" y="601" on="0"/>
      </contour>
      <contour>
        <pt x="2241" y="-528" on="1"/>
        <pt x="2241" y="-579" on="0"/>
        <pt x="2197" y="-597" on="1"/>
        <pt x="2139" y="-615" on="0"/>
        <pt x="2033" y="-654" on="1"/>
        <pt x="1962" y="-687" on="0"/>
        <pt x="1766" y="-774" on="1"/>
        <pt x="1732" y="-774" on="1"/>
        <pt x="1719" y="-760" on="0"/>
        <pt x="1719" y="-743" on="1"/>
        <pt x="1719" y="-691" on="0"/>
        <pt x="1753" y="-675" on="1"/>
        <pt x="2150" y="-498" on="0"/>
        <pt x="2176" y="-498" on="1"/>
        <pt x="2228" y="-498" on="1"/>
        <pt x="2241" y="-511" on="0"/>
      </contour>
      <contour>
        <pt x="1473" y="-231" on="1"/>
        <pt x="1473" y="-262" on="0"/>
        <pt x="1429" y="-300" on="1"/>
        <pt x="1392" y="-334" on="0"/>
        <pt x="1381" y="-334" on="1"/>
        <pt x="1368" y="-334" on="0"/>
        <pt x="1292" y="-282" on="0"/>
        <pt x="1279" y="-282" on="1"/>
        <pt x="1262" y="-282" on="0"/>
        <pt x="1202" y="-354" on="0"/>
        <pt x="1166" y="-354" on="1"/>
        <pt x="1134" y="-354" on="0"/>
        <pt x="1063" y="-291" on="0"/>
        <pt x="1063" y="-267" on="1"/>
        <pt x="1063" y="-248" on="0"/>
        <pt x="1132" y="-159" on="0"/>
        <pt x="1151" y="-159" on="1"/>
        <pt x="1163" y="-159" on="0"/>
        <pt x="1240" y="-211" on="0"/>
        <pt x="1253" y="-211" on="1"/>
        <pt x="1263" y="-211" on="0"/>
        <pt x="1346" y="-129" on="0"/>
        <pt x="1361" y="-129" on="1"/>
        <pt x="1386" y="-129" on="0"/>
        <pt x="1431" y="-172" on="1"/>
        <pt x="1473" y="-213" on="0"/>
      </contour>
    </TTGlyph>
    <TTGlyph name="uni2011" xMin="163" yMin="-774" xMax="3685" yMax="1795">
      <contour>
        <pt x="3500" y="1397" on="1"/>
        <pt x="3500" y="1345" on="0"/>
        <pt x="3464" y="1345" on="1"/>
        <pt x="3450" y="1345" on="0"/>
        <pt x="3409" y="1368" on="1"/>
        <pt x="3346" y="1405" on="0"/>
        <pt x="3343" y="1407" on="1"/>
        <pt x="3309" y="1353" on="0"/>
        <pt x="3187" y="1265" on="1"/>
        <pt x="3056" y="1171" on="0"/>
        <pt x="3002" y="1172" on="1"/>
        <pt x="2929" y="1172" on="1"/>
        <pt x="2928" y="1190" on="0"/>
        <pt x="2930" y="1199" on="1"/>
        <pt x="3037" y="1271" on="0"/>
        <pt x="3245" y="1434" on="1"/>
        <pt x="3245" y="1461" on="1"/>
        <pt x="3210" y="1479" on="0"/>
        <pt x="3175" y="1499" on="1"/>
        <pt x="3132" y="1526" on="0"/>
        <pt x="3132" y="1555" on="1"/>
        <pt x="3132" y="1594" on="0"/>
        <pt x="3192" y="1672" on="1"/>
        <pt x="3256" y="1755" on="0"/>
        <pt x="3301" y="1755" on="1"/>
        <pt x="3363" y="1755" on="0"/>
        <pt x="3382" y="1647" on="1"/>
        <pt x="3391" y="1582" on="0"/>
        <pt x="3400" y="1516" on="1"/>
        <pt x="3425" y="1497" on="0"/>
        <pt x="3450" y="1477" on="1"/>
        <pt x="3493" y="1442" on="0"/>
        <pt x="3496" y="1412" on="1"/>
        <pt x="3497" y="1414" on="0"/>
        <pt x="3497" y="1414" on="1"/>
        <pt x="3499" y="1415" on="0"/>
        <pt x="3500" y="1412" on="1"/>
        <pt x="3500" y="1407" on="0"/>
      </contour>
      <contour>
        <pt x="3039" y="1446" on="1"/>
        <pt x="3023" y="1371" on="0"/>
        <pt x="2910" y="1324" on="1"/>
        <pt x="2824" y="1294" on="0"/>
        <pt x="2738" y="1263" on="1"/>
        <pt x="2724" y="1274" on="0"/>
        <pt x="2715" y="1274" on="1"/>
        <pt x="2712" y="1280" on="0"/>
        <pt x="2712" y="1286" on="1"/>
        <pt x="2712" y="1305" on="0"/>
        <pt x="2750" y="1333" on="1"/>
        <pt x="2809" y="1375" on="0"/>
        <pt x="2825" y="1391" on="1"/>
        <pt x="2811" y="1407" on="0"/>
        <pt x="2779" y="1407" on="1"/>
        <pt x="2765" y="1407" on="0"/>
        <pt x="2730" y="1396" on="1"/>
        <pt x="2686" y="1382" on="0"/>
        <pt x="2662" y="1377" on="1"/>
        <pt x="2662" y="1420" on="1"/>
        <pt x="2662" y="1446" on="0"/>
        <pt x="2725" y="1489" on="1"/>
        <pt x="2784" y="1529" on="0"/>
        <pt x="2804" y="1529" on="1"/>
        <pt x="2836" y="1529" on="0"/>
      </contour>
      <contour>
        <pt x="3562" y="173" on="1"/>
        <pt x="3562" y="116" on="0"/>
        <pt x="3539" y="54" on="1"/>
        <pt x="3510" y="-25" on="0"/>
        <pt x="3457" y="-54" on="1"/>
        <pt x="3432" y="-67" on="0"/>
        <pt x="3352" y="-67" on="1"/>
        <pt x="3264" y="-67" on="0"/>
        <pt x="3214" y="-36" on="1"/>
        <pt x="3142" y="7" on="0"/>
        <pt x="3074" y="137" on="1"/>
        <pt x="3015" y="79" on="0"/>
        <pt x="2903" y="-3" on="1"/>
        <pt x="2857" y="-23" on="0"/>
        <pt x="2758" y="-46" on="1"/>
        <pt x="2670" y="-67" on="0"/>
        <pt x="2645" y="-67" on="1"/>
        <pt x="2598" y="-67" on="0"/>
        <pt x="2508" y="-1" on="0"/>
        <pt x="2508" y="40" on="1"/>
        <pt x="2508" y="82" on="0"/>
        <pt x="2552" y="147" on="1"/>
        <pt x="2569" y="143" on="0"/>
        <pt x="2630" y="118" on="1"/>
        <pt x="2683" y="96" on="0"/>
        <pt x="2697" y="96" on="1"/>
        <pt x="2769" y="96" on="0"/>
        <pt x="2887" y="152" on="1"/>
        <pt x="3029" y="219" on="0"/>
        <pt x="3029" y="301" on="1"/>
        <pt x="3029" y="314" on="0"/>
        <pt x="2958" y="662" on="0"/>
        <pt x="2958" y="674" on="1"/>
        <pt x="2958" y="699" on="0"/>
        <pt x="2980" y="822" on="1"/>
        <pt x="3021" y="822" on="0"/>
        <pt x="3035" y="800" on="1"/>
        <pt x="3075" y="608" on="0"/>
        <pt x="3115" y="416" on="1"/>
        <pt x="3196" y="96" on="0"/>
        <pt x="3332" y="96" on="1"/>
        <pt x="3459" y="96" on="0"/>
        <pt x="3459" y="147" on="1"/>
        <pt x="3459" y="157" on="0"/>
        <pt x="3357" y="288" on="0"/>
        <pt x="3357" y="301" on="1"/>
        <pt x="3357" y="335" on="0"/>
        <pt x="3401" y="424" on="1"/>
        <pt x="3470" y="399" on="0"/>
        <pt x="3518" y="316" on="1"/>
        <pt x="3562" y="241" on="0"/>
      </contour>
      <contour>
        <pt x="3685" y="-354" on="1"/>
        <pt x="3685" y="-392" on="0"/>
        <pt x="3648" y="-421" on="1"/>
        <pt x="3616" y="-446" on="0"/>
        <pt x="3587" y="-446" on="1"/>
        <pt x="3577" y="-446" on="0"/>
        <pt x="3518" y="-425" on="0"/>
        <pt x="3505" y="-425" on="1"/>
        <pt x="3496" y="-425" on="0"/>
        <pt x="3433" y="-487" on="0"/>
        <pt x="3414" y="-487" on="1"/>
        <pt x="3374" y="-487" on="0"/>
        <pt x="3337" y="-451" on="1"/>
        <pt x="3306" y="-421" on="0"/>
        <pt x="3306" y="-405" on="1"/>
        <pt x="3306" y="-379" on="0"/>
        <pt x="3369" y="-293" on="0"/>
        <pt x="3393" y="-293" on="1"/>
        <pt x="3423" y="-293" on="0"/>
        <pt x="3485" y="-334" on="1"/>
        <pt x="3491" y="-330" on="0"/>
        <pt x="3535" y="-290" on="1"/>
        <pt x="3568" y="-262" on="0"/>
        <pt x="3582" y="-262" on="1"/>
        <pt x="3613" y="-262" on="0"/>
        <pt x="3651" y="-305" on="1"/>
        <pt x="3685" y="-343" on="0"/>
      </contour>
      <contour>
        <pt x="1299" y="1760" on="1"/>
        <pt x="1299" y="1714" on="0"/>
        <pt x="1176" y="1636" on="1"/>
        <pt x="1098" y="1591" on="0"/>
        <pt x="1020" y="1547" on="1"/>
        <pt x="890" y="1467" on="0"/>
        <pt x="667" y="1346" on="1"/>
        <pt x="667" y="1349" on="0"/>
        <pt x="655" y="1366" on="0"/>
        <pt x="655" y="1381" on="1"/>
        <pt x="655" y="1427" on="0"/>
        <pt x="757" y="1492" on="1"/>
        <pt x="819" y="1527" on="0"/>
        <pt x="882" y="1562" on="1"/>
        <pt x="1105" y="1698" on="0"/>
        <pt x="1252" y="1795" on="1"/>
        <pt x="1286" y="1795" on="1"/>
        <pt x="1299" y="1782" on="0"/>
      </contour>
      <contour>
        <pt x="2415" y="173" on="1"/>
        <pt x="2415" y="41" on="0"/>
        <pt x="2331" y="-101" on="1"/>
        <pt x="2232" y="-269" on="0"/>
        <pt x="2074" y="-330" on="1"/>
        <pt x="2051" y="-339" on="0"/>
        <pt x="1927" y="-353" on="1"/>
        <pt x="1813" y="-364" on="0"/>
        <pt x="1786" y="-364" on="1"/>
        <pt x="1706" y="-364" on="0"/>
        <pt x="1611" y="-341" on="1"/>
        <pt x="1580" y="-334" on="0"/>
        <pt x="1545" y="-299" on="1"/>
        <pt x="1579" y="-241" on="0"/>
        <pt x="1611" y="-241" on="1"/>
        <pt x="1624" y="-241" on="0"/>
        <pt x="1773" y="-272" on="0"/>
        <pt x="1786" y="-272" on="1"/>
        <pt x="1798" y="-272" on="0"/>
        <pt x="1848" y="-247" on="0"/>
        <pt x="1856" y="-245" on="1"/>
        <pt x="1930" y="-234" on="0"/>
        <pt x="1988" y="-208" on="1"/>
        <pt x="2073" y="-172" on="0"/>
        <pt x="2195" y="-45" on="1"/>
        <pt x="2323" y="88" on="0"/>
        <pt x="2323" y="152" on="1"/>
        <pt x="2323" y="185" on="0"/>
        <pt x="2244" y="251" on="1"/>
        <pt x="2199" y="287" on="0"/>
        <pt x="2153" y="323" on="1"/>
        <pt x="2128" y="350" on="0"/>
        <pt x="2128" y="387" on="1"/>
        <pt x="2128" y="414" on="0"/>
        <pt x="2141" y="441" on="1"/>
        <pt x="2157" y="475" on="0"/>
        <pt x="2180" y="475" on="1"/>
        <pt x="2226" y="475" on="0"/>
        <pt x="2304" y="404" on="1"/>
        <pt x="2377" y="338" on="0"/>
        <pt x="2390" y="297" on="1"/>
        <pt x="2415" y="221" on="0"/>
      </contour>
      <contour>
        <pt x="1770" y="285" on="1"/>
        <pt x="1770" y="210" on="0"/>
        <pt x="1715" y="129" on="1"/>
        <pt x="1683" y="85" on="0"/>
        <pt x="1588" y="57" on="1"/>
        <pt x="1508" y="34" on="0"/>
        <pt x="1438" y="34" on="1"/>
        <pt x="1356" y="34" on="0"/>
        <pt x="1315" y="85" on="1"/>
        <pt x="1293" y="113" on="0"/>
        <pt x="1274" y="179" on="1"/>
        <pt x="1260" y="229" on="0"/>
        <pt x="1243" y="229" on="1"/>
        <pt x="1233" y="229" on="0"/>
        <pt x="1162" y="169" on="1"/>
        <pt x="1086" y="103" on="0"/>
        <pt x="1050" y="88" on="1"/>
        <pt x="756" y="-27" on="0"/>
        <pt x="526" y="-27" on="1"/>
        <pt x="514" y="-27" on="0"/>
        <pt x="464" y="-10" on="0"/>
        <pt x="454" y="-9" on="1"/>
        <pt x="321" y="-1" on="0"/>
        <pt x="239" y="84" on="1"/>
        <pt x="163" y="165" on="0"/>
        <pt x="163" y="275" on="1"/>
        <pt x="163" y="438" on="0"/>
        <pt x="310" y="577" on="1"/>
        <pt x="333" y="577" on="0"/>
        <pt x="357" y="553" on="1"/>
        <pt x="329" y="501" on="0"/>
        <pt x="275" y="398" on="0"/>
        <pt x="275" y="347" on="1"/>
        <pt x="275" y="295" on="0"/>
        <pt x="301" y="259" on="1"/>
        <pt x="304" y="255" on="0"/>
        <pt x="366" y="189" on="1"/>
        <pt x="377" y="178" on="0"/>
        <pt x="435" y="164" on="1"/>
        <pt x="505" y="147" on="0"/>
        <pt x="614" y="147" on="1"/>
        <pt x="801" y="147" on="0"/>
        <pt x="972" y="209" on="1"/>
        <pt x="1171" y="281" on="0"/>
        <pt x="1238" y="404" on="1"/>
        <pt x="1145" y="1115" on="1"/>
        <pt x="1161" y="1194" on="0"/>
        <pt x="1189" y="1253" on="1"/>
        <pt x="1244" y="1240" on="0"/>
        <pt x="1254" y="1167" on="1"/>
        <pt x="1263" y="1097" on="0"/>
        <pt x="1275" y="972" on="1"/>
        <pt x="1284" y="867" on="0"/>
        <pt x="1326" y="532" on="1"/>
        <pt x="1346" y="370" on="0"/>
        <pt x="1384" y="236" on="1"/>
        <pt x="1391" y="209" on="0"/>
        <pt x="1484" y="209" on="1"/>
        <pt x="1610" y="209" on="0"/>
        <pt x="1668" y="256" on="1"/>
        <pt x="1645" y="303" on="0"/>
        <pt x="1600" y="366" on="1"/>
        <pt x="1575" y="401" on="0"/>
        <pt x="1575" y="439" on="1"/>
        <pt x="1575" y="449" on="0"/>
        <pt x="1587" y="510" on="0"/>
        <pt x="1588" y="535" on="1"/>
        <pt x="1591" y="535" on="0"/>
        <pt x="1612" y="546" on="0"/>
        <pt x="1627" y="546" on="1"/>
        <pt x="1685" y="546" on="0"/>
        <pt x="1733" y="421" on="1"/>
        <pt x="1770" y="324" on="0"/>
      </contour>
      <contour>
        <pt x="992" y="557" on="1"/>
        <pt x="992" y="472" on="0"/>
        <pt x="898" y="407" on="1"/>
        <pt x="818" y="352" on="0"/>
        <pt x="757" y="352" on="1"/>
        <pt x="732" y="352" on="0"/>
        <pt x="679" y="374" on="1"/>
        <pt x="619" y="401" on="0"/>
        <pt x="603" y="427" on="1"/>
        <pt x="599" y="464" on="0"/>
        <pt x="639" y="464" on="1"/>
        <pt x="651" y="464" on="0"/>
        <pt x="718" y="444" on="0"/>
        <pt x="731" y="444" on="1"/>
        <pt x="781" y="444" on="0"/>
        <pt x="818" y="470" on="1"/>
        <pt x="815" y="473" on="0"/>
        <pt x="750" y="514" on="1"/>
        <pt x="705" y="542" on="0"/>
        <pt x="705" y="582" on="1"/>
        <pt x="705" y="632" on="0"/>
        <pt x="770" y="741" on="1"/>
        <pt x="844" y="864" on="0"/>
        <pt x="910" y="864" on="1"/>
        <pt x="931" y="864" on="0"/>
        <pt x="981" y="831" on="0"/>
        <pt x="981" y="813" on="1"/>
        <pt x="981" y="785" on="0"/>
        <pt x="955" y="745" on="1"/>
        <pt x="926" y="700" on="0"/>
        <pt x="895" y="700" on="1"/>
        <pt x="890" y="700" on="0"/>
        <pt x="869" y="705" on="1"/>
        <pt x="855" y="709" on="0"/>
        <pt x="837" y="702" on="1"/>
        <pt x="837" y="697" on="0"/>
        <pt x="827" y="671" on="0"/>
        <pt x="827" y="665" on="1"/>
        <pt x="850" y="647" on="0"/>
        <pt x="936" y="619" on="1"/>
        <pt x="992" y="601" on="0"/>
      </contour>
      <contour>
        <pt x="2241" y="-528" on="1"/>
        <pt x="2241" y="-579" on="0"/>
        <pt x="2197" y="-597" on="1"/>
        <pt x="2139" y="-615" on="0"/>
        <pt x="2033" y="-654" on="1"/>
        <pt x="1962" y="-687" on="0"/>
        <pt x="1766" y="-774" on="1"/>
        <pt x="1732" y="-774" on="1"/>
        <pt x="1719" y="-760" on="0"/>
        <pt x="1719" y="-743" on="1"/>
        <pt x="1719" y="-691" on="0"/>
        <pt x="1753" y="-675" on="1"/>
        <pt x="2150" y="-498" on="0"/>
        <pt x="2176" y="-498" on="1"/>
        <pt x="2228" y="-498" on="1"/>
        <pt x="2241" y="-511" on="0"/>
      </contour>
      <contour>
        <pt x="1473" y="-231" on="1"/>
        <pt x="1473" y="-262" on="0"/>
        <pt x="1429" y="-300" on="1"/>
        <pt x="1392" y="-334" on="0"/>
        <pt x="1381" y="-334" on="1"/>
        <pt x="1368" y="-334" on="0"/>
        <pt x="1292" y="-282" on="0"/>
        <pt x="1279" y="-282" on="1"/>
        <pt x="1262" y="-282" on="0"/>
        <pt x="1202" y="-354" on="0"/>
        <pt x="1166" y="-354" on="1"/>
        <pt x="1134" y="-354" on="0"/>
        <pt x="1063" y="-291" on="0"/>
        <pt x="1063" y="-267" on="1"/>
        <pt x="1063" y="-248" on="0"/>
        <pt x="1132" y="-159" on="0"/>
        <pt x="1151" y="-159" on="1"/>
        <pt x="1163" y="-159" on="0"/>
        <pt x="1240" y="-211" on="0"/>
        <pt x="1253" y="-211" on="1"/>
        <pt x="1263" y="-211" on="0"/>
        <pt x="1346" y="-129" on="0"/>
        <pt x="1361" y="-129" on="1"/>
        <pt x="1386" y="-129" on="0"/>
        <pt x="1431" y="-172" on="1"/>
        <pt x="1473" y="-213" on="0"/>
      </contour>
    </TTGlyph>
    <TTGlyph name="uniE000" xMin="0" yMin="0" xMax="1990" yMax="1990">
      <contour>
        <pt x="0" y="1990" on="1"/>
        <pt x="1990" y="1990" on="1"/>
        <pt x="1990" y="0" on="1"/>
        <pt x="0" y="0" on="1"/>
      </contour>
    </TTGlyph>
    <TTGlyph name="uniFB51" xMin="304" yMin="-417" xMax="3816" yMax="1722">
      <contour>
        <pt x="3775" y="1440" on="1"/>
        <pt x="3775" y="1380" on="0"/>
        <pt x="3711" y="1346" on="1"/>
        <pt x="3392" y="1179" on="0"/>
        <pt x="3338" y="1180" on="1"/>
        <pt x="3287" y="1180" on="1"/>
        <pt x="3274" y="1193" on="0"/>
        <pt x="3274" y="1215" on="1"/>
        <pt x="3274" y="1233" on="0"/>
        <pt x="3303" y="1282" on="0"/>
        <pt x="3317" y="1288" on="1"/>
        <pt x="3528" y="1375" on="0"/>
        <pt x="3750" y="1486" on="1"/>
        <pt x="3775" y="1461" on="0"/>
      </contour>
      <contour>
        <pt x="3171" y="1226" on="1"/>
        <pt x="3171" y="1182" on="0"/>
        <pt x="3017" y="1121" on="1"/>
        <pt x="2883" y="1067" on="0"/>
        <pt x="2853" y="1067" on="1"/>
        <pt x="2842" y="1067" on="0"/>
        <pt x="2785" y="1077" on="0"/>
        <pt x="2775" y="1077" on="1"/>
        <pt x="2762" y="1090" on="1"/>
        <pt x="2762" y="1117" on="1"/>
        <pt x="2818" y="1140" on="0"/>
        <pt x="2925" y="1194" on="1"/>
        <pt x="2898" y="1210" on="0"/>
        <pt x="2874" y="1210" on="1"/>
        <pt x="2858" y="1210" on="0"/>
        <pt x="2756" y="1159" on="1"/>
        <pt x="2742" y="1171" on="0"/>
        <pt x="2731" y="1171" on="1"/>
        <pt x="2731" y="1203" on="1"/>
        <pt x="2730" y="1239" on="0"/>
        <pt x="2845" y="1318" on="1"/>
        <pt x="2867" y="1333" on="0"/>
        <pt x="2920" y="1333" on="1"/>
        <pt x="2981" y="1333" on="0"/>
        <pt x="3126" y="1288" on="1"/>
        <pt x="3171" y="1274" on="0"/>
      </contour>
      <contour>
        <pt x="2485" y="1328" on="1"/>
        <pt x="2485" y="1276" on="0"/>
        <pt x="2441" y="1254" on="1"/>
        <pt x="2229" y="1145" on="0"/>
        <pt x="1979" y="995" on="1"/>
        <pt x="1945" y="995" on="1"/>
        <pt x="1922" y="1019" on="0"/>
        <pt x="1922" y="1031" on="1"/>
        <pt x="1922" y="1112" on="0"/>
        <pt x="2427" y="1363" on="1"/>
        <pt x="2462" y="1363" on="1"/>
        <pt x="2485" y="1339" on="0"/>
      </contour>
      <contour>
        <pt x="3816" y="-299" on="1"/>
        <pt x="3816" y="-336" on="0"/>
        <pt x="3753" y="-397" on="0"/>
        <pt x="3723" y="-397" on="1"/>
        <pt x="3711" y="-397" on="0"/>
        <pt x="3629" y="-346" on="0"/>
        <pt x="3616" y="-346" on="1"/>
        <pt x="3604" y="-346" on="0"/>
        <pt x="3516" y="-417" on="0"/>
        <pt x="3504" y="-417" on="1"/>
        <pt x="3488" y="-417" on="0"/>
        <pt x="3387" y="-344" on="1"/>
        <pt x="3387" y="-317" on="0"/>
        <pt x="3468" y="-223" on="0"/>
        <pt x="3488" y="-223" on="1"/>
        <pt x="3503" y="-223" on="0"/>
        <pt x="3590" y="-274" on="0"/>
        <pt x="3600" y="-274" on="1"/>
        <pt x="3614" y="-274" on="0"/>
        <pt x="3700" y="-192" on="0"/>
        <pt x="3714" y="-192" on="1"/>
        <pt x="3742" y="-192" on="0"/>
        <pt x="3816" y="-275" on="0"/>
      </contour>
      <contour>
        <pt x="1963" y="1399" on="1"/>
        <pt x="1963" y="1379" on="0"/>
        <pt x="1928" y="1333" on="0"/>
        <pt x="1911" y="1333" on="1"/>
        <pt x="1876" y="1333" on="0"/>
        <pt x="1824" y="1384" on="1"/>
        <pt x="1627" y="1189" on="0"/>
        <pt x="1507" y="1189" on="1"/>
        <pt x="1476" y="1189" on="0"/>
        <pt x="1461" y="1204" on="1"/>
        <pt x="1484" y="1239" on="0"/>
        <pt x="1577" y="1303" on="1"/>
        <pt x="1685" y="1377" on="0"/>
        <pt x="1727" y="1420" on="1"/>
        <pt x="1625" y="1507" on="0"/>
        <pt x="1625" y="1533" on="1"/>
        <pt x="1625" y="1578" on="0"/>
        <pt x="1757" y="1722" on="0"/>
        <pt x="1799" y="1722" on="1"/>
        <pt x="1860" y="1722" on="0"/>
        <pt x="1869" y="1624" on="1"/>
        <pt x="1871" y="1570" on="0"/>
        <pt x="1872" y="1516" on="1"/>
        <pt x="1884" y="1499" on="0"/>
        <pt x="1933" y="1456" on="1"/>
        <pt x="1963" y="1430" on="0"/>
      </contour>
      <contour>
        <pt x="2516" y="514" on="1"/>
        <pt x="2516" y="497" on="0"/>
        <pt x="2468" y="448" on="0"/>
        <pt x="2450" y="445" on="1"/>
        <pt x="2422" y="446" on="0"/>
        <pt x="2368" y="438" on="1"/>
        <pt x="2322" y="427" on="0"/>
        <pt x="2275" y="415" on="1"/>
        <pt x="2223" y="399" on="0"/>
        <pt x="2184" y="370" on="1"/>
        <pt x="2152" y="370" on="1"/>
        <pt x="2137" y="370" on="0"/>
        <pt x="2137" y="396" on="1"/>
        <pt x="2137" y="415" on="0"/>
        <pt x="2143" y="434" on="1"/>
        <pt x="2137" y="442" on="0"/>
        <pt x="2087" y="502" on="0"/>
        <pt x="2075" y="519" on="1"/>
        <pt x="2110" y="570" on="0"/>
        <pt x="2170" y="632" on="1"/>
        <pt x="2254" y="718" on="0"/>
        <pt x="2295" y="718" on="1"/>
        <pt x="2327" y="718" on="0"/>
        <pt x="2356" y="685" on="1"/>
        <pt x="2382" y="655" on="0"/>
        <pt x="2382" y="632" on="1"/>
        <pt x="2382" y="601" on="0"/>
        <pt x="2342" y="555" on="0"/>
        <pt x="2316" y="555" on="1"/>
        <pt x="2283" y="555" on="0"/>
        <pt x="2262" y="596" on="1"/>
        <pt x="2236" y="596" on="1"/>
        <pt x="2232" y="587" on="0"/>
        <pt x="2218" y="569" on="1"/>
        <pt x="2227" y="534" on="0"/>
        <pt x="2291" y="534" on="1"/>
        <pt x="2406" y="534" on="0"/>
        <pt x="2504" y="543" on="1"/>
        <pt x="2504" y="540" on="0"/>
        <pt x="2516" y="528" on="0"/>
      </contour>
      <contour>
        <pt x="1368" y="1562" on="1"/>
        <pt x="1369" y="1524" on="0"/>
        <pt x="1185" y="1430" on="1"/>
        <pt x="943" y="1307" on="0"/>
        <pt x="895" y="1272" on="1"/>
        <pt x="859" y="1272" on="1"/>
        <pt x="847" y="1285" on="0"/>
        <pt x="847" y="1307" on="1"/>
        <pt x="847" y="1356" on="0"/>
        <pt x="891" y="1380" on="1"/>
        <pt x="1312" y="1610" on="0"/>
        <pt x="1333" y="1610" on="1"/>
        <pt x="1348" y="1610" on="0"/>
        <pt x="1365" y="1597" on="0"/>
        <pt x="1368" y="1597" on="1"/>
      </contour>
      <contour>
        <pt x="3744" y="299" on="1"/>
        <pt x="3744" y="224" on="0"/>
        <pt x="3709" y="138" on="1"/>
        <pt x="3668" y="33" on="0"/>
        <pt x="3606" y="33" on="1"/>
        <pt x="3442" y="33" on="1"/>
        <pt x="3394" y="33" on="0"/>
        <pt x="3269" y="115" on="1"/>
        <pt x="3200" y="47" on="0"/>
        <pt x="3164" y="31" on="1"/>
        <pt x="3143" y="22" on="0"/>
        <pt x="3089" y="22" on="1"/>
        <pt x="3076" y="22" on="0"/>
        <pt x="2999" y="43" on="0"/>
        <pt x="2987" y="43" on="1"/>
        <pt x="2974" y="43" on="0"/>
        <pt x="2851" y="12" on="0"/>
        <pt x="2838" y="12" on="1"/>
        <pt x="2801" y="12" on="0"/>
        <pt x="2706" y="43" on="0"/>
        <pt x="2700" y="43" on="1"/>
        <pt x="2690" y="43" on="0"/>
        <pt x="2637" y="26" on="1"/>
        <pt x="2580" y="8" on="0"/>
        <pt x="2552" y="5" on="1"/>
        <pt x="2368" y="-18" on="0"/>
        <pt x="2193" y="-18" on="1"/>
        <pt x="2058" y="-18" on="0"/>
        <pt x="2018" y="-13" on="1"/>
        <pt x="1900" y="4" on="0"/>
        <pt x="1774" y="74" on="1"/>
        <pt x="1747" y="-3" on="0"/>
        <pt x="1719" y="-80" on="1"/>
        <pt x="1667" y="-203" on="0"/>
        <pt x="1589" y="-203" on="1"/>
        <pt x="1522" y="-203" on="0"/>
        <pt x="1456" y="-145" on="1"/>
        <pt x="1393" y="-91" on="0"/>
        <pt x="1371" y="-25" on="1"/>
        <pt x="1362" y="15" on="0"/>
        <pt x="1353" y="54" on="1"/>
        <pt x="1335" y="125" on="0"/>
        <pt x="1323" y="125" on="1"/>
        <pt x="1314" y="125" on="0"/>
        <pt x="1268" y="84" on="1"/>
        <pt x="1216" y="36" on="0"/>
        <pt x="1199" y="25" on="1"/>
        <pt x="1113" y="-27" on="0"/>
        <pt x="1037" y="-46" on="1"/>
        <pt x="908" y="-80" on="0"/>
        <pt x="709" y="-80" on="1"/>
        <pt x="304" y="-80" on="0"/>
        <pt x="304" y="217" on="1"/>
        <pt x="304" y="364" on="0"/>
        <pt x="451" y="513" on="1"/>
        <pt x="498" y="513" on="1"/>
        <pt x="488" y="478" on="0"/>
        <pt x="450" y="383" on="1"/>
        <pt x="417" y="301" on="0"/>
        <pt x="417" y="288" on="1"/>
        <pt x="417" y="236" on="0"/>
        <pt x="465" y="178" on="1"/>
        <pt x="504" y="130" on="0"/>
        <pt x="537" y="116" on="1"/>
        <pt x="642" y="74" on="0"/>
        <pt x="791" y="74" on="1"/>
        <pt x="802" y="74" on="0"/>
        <pt x="912" y="94" on="0"/>
        <pt x="923" y="94" on="1"/>
        <pt x="1005" y="94" on="0"/>
        <pt x="1140" y="146" on="1"/>
        <pt x="1317" y="213" on="0"/>
        <pt x="1317" y="309" on="1"/>
        <pt x="1276" y="928" on="1"/>
        <pt x="1276" y="976" on="0"/>
        <pt x="1320" y="1067" on="1"/>
        <pt x="1353" y="1067" on="1"/>
        <pt x="1384" y="1067" on="0"/>
        <pt x="1385" y="1011" on="1"/>
        <pt x="1393" y="791" on="0"/>
        <pt x="1416" y="356" on="1"/>
        <pt x="1424" y="256" on="0"/>
        <pt x="1450" y="162" on="1"/>
        <pt x="1504" y="-28" on="0"/>
        <pt x="1604" y="-28" on="1"/>
        <pt x="1662" y="-28" on="0"/>
        <pt x="1662" y="29" on="1"/>
        <pt x="1662" y="39" on="0"/>
        <pt x="1656" y="74" on="1"/>
        <pt x="1574" y="867" on="1"/>
        <pt x="1574" y="986" on="0"/>
        <pt x="1628" y="1076" on="1"/>
        <pt x="1664" y="1076" on="1"/>
        <pt x="1700" y="791" on="0"/>
        <pt x="1735" y="507" on="1"/>
        <pt x="1770" y="289" on="0"/>
        <pt x="1867" y="216" on="1"/>
        <pt x="1975" y="135" on="0"/>
        <pt x="2270" y="135" on="1"/>
        <pt x="2458" y="135" on="0"/>
        <pt x="2642" y="179" on="1"/>
        <pt x="2667" y="184" on="0"/>
        <pt x="2715" y="233" on="1"/>
        <pt x="2776" y="297" on="0"/>
        <pt x="2807" y="319" on="1"/>
        <pt x="2828" y="306" on="0"/>
        <pt x="2830" y="278" on="1"/>
        <pt x="2830" y="261" on="0"/>
        <pt x="2821" y="174" on="1"/>
        <pt x="2825" y="174" on="0"/>
        <pt x="2844" y="165" on="0"/>
        <pt x="2858" y="165" on="1"/>
        <pt x="2959" y="165" on="0"/>
        <pt x="3003" y="225" on="1"/>
        <pt x="3066" y="307" on="0"/>
        <pt x="3115" y="329" on="1"/>
        <pt x="3127" y="314" on="0"/>
        <pt x="3127" y="295" on="1"/>
        <pt x="3127" y="278" on="0"/>
        <pt x="3104" y="220" on="0"/>
        <pt x="3104" y="211" on="1"/>
        <pt x="3104" y="201" on="0"/>
        <pt x="3111" y="195" on="1"/>
        <pt x="3108" y="194" on="0"/>
        <pt x="3107" y="193" on="1"/>
        <pt x="3104" y="190" on="0"/>
        <pt x="3106" y="188" on="1"/>
        <pt x="3108" y="186" on="0"/>
        <pt x="3120" y="186" on="1"/>
        <pt x="3161" y="186" on="1"/>
        <pt x="3207" y="186" on="0"/>
        <pt x="3304" y="371" on="0"/>
        <pt x="3341" y="371" on="1"/>
        <pt x="3347" y="371" on="0"/>
        <pt x="3352" y="369" on="1"/>
        <pt x="3378" y="345" on="0"/>
        <pt x="3345" y="254" on="1"/>
        <pt x="3409" y="206" on="0"/>
        <pt x="3504" y="206" on="1"/>
        <pt x="3513" y="206" on="0"/>
        <pt x="3591" y="216" on="0"/>
        <pt x="3614" y="216" on="1"/>
        <pt x="3617" y="219" on="0"/>
        <pt x="3627" y="221" on="1"/>
        <pt x="3632" y="222" on="0"/>
        <pt x="3632" y="238" on="1"/>
        <pt x="3632" y="260" on="0"/>
        <pt x="3601" y="338" on="1"/>
        <pt x="3568" y="425" on="0"/>
        <pt x="3537" y="464" on="1"/>
        <pt x="3509" y="478" on="0"/>
        <pt x="3471" y="517" on="1"/>
        <pt x="3458" y="547" on="0"/>
        <pt x="3458" y="580" on="1"/>
        <pt x="3458" y="620" on="0"/>
        <pt x="3501" y="728" on="1"/>
        <pt x="3547" y="728" on="1"/>
        <pt x="3593" y="673" on="0"/>
        <pt x="3664" y="528" on="1"/>
        <pt x="3744" y="365" on="0"/>
      </contour>
      <contour>
        <pt x="1113" y="481" on="1"/>
        <pt x="1102" y="431" on="0"/>
        <pt x="1067" y="352" on="1"/>
        <pt x="1000" y="268" on="0"/>
        <pt x="888" y="268" on="1"/>
        <pt x="744" y="268" on="0"/>
        <pt x="714" y="387" on="1"/>
        <pt x="739" y="411" on="1"/>
        <pt x="862" y="350" on="0"/>
        <pt x="873" y="350" on="1"/>
        <pt x="920" y="350" on="0"/>
        <pt x="959" y="376" on="1"/>
        <pt x="950" y="387" on="0"/>
        <pt x="918" y="398" on="1"/>
        <pt x="873" y="413" on="0"/>
        <pt x="870" y="415" on="1"/>
        <pt x="816" y="440" on="0"/>
        <pt x="816" y="509" on="1"/>
        <pt x="816" y="562" on="0"/>
        <pt x="882" y="657" on="1"/>
        <pt x="955" y="759" on="0"/>
        <pt x="1016" y="759" on="1"/>
        <pt x="1047" y="759" on="0"/>
        <pt x="1092" y="714" on="1"/>
        <pt x="1035" y="596" on="0"/>
        <pt x="995" y="596" on="1"/>
        <pt x="981" y="596" on="0"/>
        <pt x="959" y="617" on="0"/>
        <pt x="956" y="617" on="1"/>
        <pt x="939" y="600" on="0"/>
        <pt x="939" y="586" on="1"/>
        <pt x="939" y="570" on="0"/>
        <pt x="956" y="557" on="1"/>
        <pt x="1011" y="543" on="0"/>
        <pt x="1031" y="535" on="1"/>
        <pt x="1074" y="517" on="0"/>
      </contour>
    </TTGlyph>
    <TTGlyph name="uniFB52" xMin="138" yMin="-389" xMax="3353" yMax="1781">
      <contour>
        <pt x="3353" y="1505" on="1"/>
        <pt x="3353" y="1428" on="0"/>
        <pt x="3280" y="1366" on="1"/>
        <pt x="3203" y="1300" on="0"/>
        <pt x="3144" y="1300" on="1"/>
        <pt x="3132" y="1300" on="0"/>
        <pt x="3044" y="1331" on="0"/>
        <pt x="3031" y="1331" on="1"/>
        <pt x="3025" y="1331" on="0"/>
        <pt x="2950" y="1260" on="1"/>
        <pt x="2945" y="1260" on="0"/>
        <pt x="2919" y="1271" on="0"/>
        <pt x="2913" y="1271" on="1"/>
        <pt x="2913" y="1304" on="1"/>
        <pt x="2913" y="1367" on="0"/>
        <pt x="3008" y="1420" on="1"/>
        <pt x="3059" y="1443" on="0"/>
        <pt x="3109" y="1466" on="1"/>
        <pt x="3149" y="1507" on="0"/>
        <pt x="3187" y="1547" on="1"/>
        <pt x="3234" y="1597" on="0"/>
        <pt x="3276" y="1597" on="1"/>
        <pt x="3353" y="1597" on="0"/>
      </contour>
      <contour>
        <pt x="2421" y="1758" on="1"/>
        <pt x="2421" y="1751" on="0"/>
        <pt x="2406" y="1712" on="1"/>
        <pt x="2342" y="1647" on="0"/>
        <pt x="2205" y="1575" on="1"/>
        <pt x="2044" y="1491" on="0"/>
        <pt x="2000" y="1457" on="1"/>
        <pt x="1968" y="1434" on="0"/>
        <pt x="1923" y="1434" on="1"/>
        <pt x="1915" y="1439" on="0"/>
        <pt x="1899" y="1448" on="0"/>
        <pt x="1899" y="1464" on="1"/>
        <pt x="1899" y="1502" on="0"/>
        <pt x="1948" y="1534" on="1"/>
        <pt x="1986" y="1556" on="0"/>
        <pt x="2025" y="1579" on="1"/>
        <pt x="2148" y="1662" on="0"/>
        <pt x="2387" y="1781" on="1"/>
        <pt x="2392" y="1776" on="0"/>
        <pt x="2416" y="1763" on="0"/>
      </contour>
      <contour>
        <pt x="3169" y="179" on="1"/>
        <pt x="3169" y="102" on="0"/>
        <pt x="3126" y="-9" on="1"/>
        <pt x="3089" y="-9" on="1"/>
        <pt x="2964" y="998" on="1"/>
        <pt x="2964" y="1026" on="0"/>
        <pt x="2988" y="1081" on="1"/>
        <pt x="3012" y="1138" on="0"/>
        <pt x="3039" y="1167" on="1"/>
        <pt x="3058" y="1167" on="0"/>
        <pt x="3072" y="1143" on="1"/>
        <pt x="3072" y="1071" on="0"/>
        <pt x="3079" y="927" on="1"/>
        <pt x="3169" y="201" on="0"/>
      </contour>
      <contour>
        <pt x="2349" y="1253" on="1"/>
        <pt x="2350" y="1194" on="0"/>
        <pt x="2273" y="1152" on="1"/>
        <pt x="2221" y="1123" on="0"/>
        <pt x="2161" y="1112" on="1"/>
        <pt x="2146" y="1109" on="0"/>
        <pt x="2095" y="1091" on="1"/>
        <pt x="2050" y="1075" on="0"/>
        <pt x="2038" y="1075" on="1"/>
        <pt x="2023" y="1075" on="0"/>
        <pt x="2007" y="1085" on="0"/>
        <pt x="2004" y="1085" on="1"/>
        <pt x="1992" y="1108" on="0"/>
        <pt x="1992" y="1152" on="1"/>
        <pt x="1992" y="1237" on="0"/>
        <pt x="2070" y="1289" on="1"/>
        <pt x="2091" y="1253" on="0"/>
        <pt x="2084" y="1225" on="1"/>
        <pt x="2099" y="1208" on="1"/>
        <pt x="2119" y="1244" on="0"/>
        <pt x="2170" y="1321" on="1"/>
        <pt x="2188" y="1310" on="0"/>
        <pt x="2233" y="1249" on="1"/>
        <pt x="2256" y="1289" on="0"/>
        <pt x="2311" y="1371" on="1"/>
        <pt x="2317" y="1371" on="0"/>
        <pt x="2343" y="1360" on="0"/>
        <pt x="2349" y="1360" on="1"/>
      </contour>
      <contour>
        <pt x="2401" y="517" on="1"/>
        <pt x="2401" y="481" on="0"/>
        <pt x="2370" y="449" on="1"/>
        <pt x="2342" y="419" on="0"/>
        <pt x="2320" y="419" on="1"/>
        <pt x="2274" y="419" on="0"/>
        <pt x="2206" y="483" on="1"/>
        <pt x="2234" y="614" on="0"/>
        <pt x="2288" y="614" on="1"/>
        <pt x="2316" y="614" on="0"/>
        <pt x="2356" y="582" on="1"/>
        <pt x="2401" y="549" on="0"/>
      </contour>
      <contour>
        <pt x="2780" y="251" on="1"/>
        <pt x="2780" y="150" on="0"/>
        <pt x="2739" y="74" on="1"/>
        <pt x="2688" y="-20" on="0"/>
        <pt x="2596" y="-20" on="1"/>
        <pt x="2584" y="-20" on="0"/>
        <pt x="2406" y="30" on="0"/>
        <pt x="2396" y="30" on="1"/>
        <pt x="2394" y="30" on="0"/>
        <pt x="2155" y="-81" on="0"/>
        <pt x="2043" y="-81" on="1"/>
        <pt x="1853" y="-81" on="0"/>
        <pt x="1780" y="33" on="1"/>
        <pt x="1761" y="62" on="0"/>
        <pt x="1738" y="157" on="1"/>
        <pt x="1705" y="296" on="0"/>
        <pt x="1705" y="406" on="1"/>
        <pt x="1705" y="690" on="1"/>
        <pt x="1705" y="702" on="0"/>
        <pt x="1644" y="1134" on="0"/>
        <pt x="1644" y="1147" on="1"/>
        <pt x="1644" y="1178" on="0"/>
        <pt x="1697" y="1258" on="1"/>
        <pt x="1744" y="1258" on="0"/>
        <pt x="1752" y="1225" on="1"/>
        <pt x="1767" y="1161" on="0"/>
        <pt x="1779" y="1008" on="1"/>
        <pt x="1811" y="619" on="0"/>
        <pt x="1810" y="496" on="1"/>
        <pt x="1809" y="418" on="0"/>
        <pt x="1820" y="354" on="1"/>
        <pt x="1831" y="286" on="0"/>
        <pt x="1838" y="261" on="1"/>
        <pt x="1850" y="208" on="0"/>
        <pt x="1871" y="171" on="1"/>
        <pt x="1897" y="124" on="0"/>
        <pt x="1977" y="105" on="1"/>
        <pt x="2031" y="92" on="0"/>
        <pt x="2099" y="92" on="1"/>
        <pt x="2213" y="92" on="0"/>
        <pt x="2384" y="205" on="0"/>
        <pt x="2422" y="205" on="1"/>
        <pt x="2431" y="205" on="0"/>
        <pt x="2603" y="153" on="0"/>
        <pt x="2616" y="153" on="1"/>
        <pt x="2678" y="153" on="0"/>
        <pt x="2678" y="184" on="1"/>
        <pt x="2678" y="256" on="0"/>
        <pt x="2653" y="403" on="1"/>
        <pt x="2632" y="574" on="0"/>
        <pt x="2571" y="915" on="1"/>
        <pt x="2568" y="932" on="0"/>
        <pt x="2544" y="986" on="1"/>
        <pt x="2524" y="1034" on="0"/>
        <pt x="2524" y="1049" on="1"/>
        <pt x="2524" y="1094" on="0"/>
        <pt x="2619" y="1258" on="1"/>
        <pt x="2623" y="1258" on="0"/>
        <pt x="2660" y="1248" on="0"/>
        <pt x="2666" y="1248" on="1"/>
        <pt x="2666" y="1224" on="0"/>
        <pt x="2646" y="1150" on="0"/>
        <pt x="2646" y="1141" on="1"/>
        <pt x="2646" y="1113" on="0"/>
        <pt x="2681" y="1085" on="1"/>
        <pt x="2702" y="1069" on="0"/>
        <pt x="2723" y="1053" on="1"/>
        <pt x="2739" y="1032" on="0"/>
        <pt x="2739" y="993" on="1"/>
        <pt x="2739" y="967" on="0"/>
        <pt x="2734" y="954" on="1"/>
        <pt x="2698" y="918" on="0"/>
        <pt x="2698" y="840" on="1"/>
        <pt x="2698" y="827" on="0"/>
        <pt x="2780" y="264" on="0"/>
      </contour>
      <contour>
        <pt x="1296" y="1111" on="1"/>
        <pt x="1296" y="1079" on="0"/>
        <pt x="1240" y="1024" on="1"/>
        <pt x="1228" y="1028" on="0"/>
        <pt x="1158" y="1075" on="1"/>
        <pt x="963" y="872" on="0"/>
        <pt x="738" y="819" on="1"/>
        <pt x="692" y="831" on="1"/>
        <pt x="692" y="840" on="0"/>
        <pt x="695" y="854" on="1"/>
        <pt x="787" y="911" on="0"/>
        <pt x="879" y="967" on="1"/>
        <pt x="984" y="1035" on="0"/>
        <pt x="1050" y="1103" on="1"/>
        <pt x="1050" y="1129" on="1"/>
        <pt x="937" y="1201" on="0"/>
        <pt x="937" y="1234" on="1"/>
        <pt x="937" y="1290" on="0"/>
        <pt x="1003" y="1370" on="1"/>
        <pt x="1074" y="1455" on="0"/>
        <pt x="1142" y="1455" on="1"/>
        <pt x="1151" y="1455" on="0"/>
        <pt x="1160" y="1453" on="1"/>
        <pt x="1204" y="1413" on="0"/>
        <pt x="1204" y="1339" on="1"/>
        <pt x="1204" y="1318" on="0"/>
        <pt x="1196" y="1234" on="0"/>
        <pt x="1196" y="1215" on="1"/>
        <pt x="1206" y="1198" on="0"/>
        <pt x="1255" y="1158" on="1"/>
        <pt x="1296" y="1123" on="0"/>
      </contour>
      <contour>
        <pt x="1510" y="302" on="1"/>
        <pt x="1510" y="102" on="0"/>
        <pt x="1341" y="102" on="1"/>
        <pt x="1330" y="102" on="0"/>
        <pt x="1227" y="133" on="0"/>
        <pt x="1214" y="133" on="1"/>
        <pt x="1201" y="133" on="0"/>
        <pt x="1140" y="111" on="1"/>
        <pt x="1067" y="86" on="0"/>
        <pt x="1037" y="79" on="1"/>
        <pt x="1012" y="39" on="0"/>
        <pt x="1011" y="15" on="1"/>
        <pt x="1003" y="-185" on="0"/>
        <pt x="817" y="-299" on="1"/>
        <pt x="669" y="-389" on="0"/>
        <pt x="492" y="-389" on="1"/>
        <pt x="353" y="-389" on="0"/>
        <pt x="250" y="-304" on="1"/>
        <pt x="138" y="-213" on="0"/>
        <pt x="138" y="-72" on="1"/>
        <pt x="138" y="45" on="0"/>
        <pt x="285" y="256" on="1"/>
        <pt x="290" y="256" on="0"/>
        <pt x="317" y="244" on="0"/>
        <pt x="322" y="244" on="1"/>
        <pt x="322" y="198" on="1"/>
        <pt x="322" y="186" on="0"/>
        <pt x="308" y="161" on="1"/>
        <pt x="288" y="126" on="0"/>
        <pt x="284" y="116" on="1"/>
        <pt x="251" y="34" on="0"/>
        <pt x="251" y="-10" on="1"/>
        <pt x="251" y="-131" on="0"/>
        <pt x="366" y="-186" on="1"/>
        <pt x="445" y="-225" on="0"/>
        <pt x="553" y="-225" on="1"/>
        <pt x="628" y="-225" on="0"/>
        <pt x="756" y="-175" on="1"/>
        <pt x="916" y="-113" on="0"/>
        <pt x="916" y="-31" on="1"/>
        <pt x="916" y="11" on="0"/>
        <pt x="902" y="55" on="1"/>
        <pt x="892" y="87" on="0"/>
        <pt x="846" y="166" on="1"/>
        <pt x="804" y="238" on="0"/>
        <pt x="804" y="251" on="1"/>
        <pt x="804" y="292" on="0"/>
        <pt x="847" y="378" on="1"/>
        <pt x="883" y="378" on="1"/>
        <pt x="938" y="246" on="0"/>
        <pt x="1050" y="246" on="1"/>
        <pt x="1133" y="246" on="0"/>
        <pt x="1161" y="270" on="1"/>
        <pt x="1174" y="283" on="0"/>
        <pt x="1214" y="396" on="0"/>
        <pt x="1258" y="440" on="1"/>
        <pt x="1307" y="430" on="0"/>
        <pt x="1307" y="378" on="1"/>
        <pt x="1307" y="387" on="0"/>
        <pt x="1298" y="315" on="1"/>
        <pt x="1329" y="270" on="0"/>
        <pt x="1380" y="265" on="1"/>
        <pt x="1395" y="290" on="0"/>
        <pt x="1397" y="371" on="1"/>
        <pt x="1399" y="448" on="0"/>
        <pt x="1432" y="491" on="1"/>
        <pt x="1461" y="491" on="0"/>
        <pt x="1475" y="468" on="1"/>
        <pt x="1510" y="394" on="0"/>
      </contour>
      <contour>
        <pt x="3239" y="1445" on="1"/>
        <pt x="3239" y="1454" on="0"/>
        <pt x="3228" y="1474" on="1"/>
        <pt x="3221" y="1474" on="0"/>
        <pt x="3191" y="1443" on="0"/>
        <pt x="3191" y="1434" on="1"/>
        <pt x="3196" y="1434" on="0"/>
        <pt x="3234" y="1445" on="0"/>
      </contour>
      <contour>
        <pt x="1120" y="1250" on="1"/>
        <pt x="1120" y="1286" on="1"/>
        <pt x="1105" y="1321" on="0"/>
        <pt x="1083" y="1321" on="1"/>
        <pt x="1060" y="1297" on="0"/>
        <pt x="1060" y="1285" on="1"/>
        <pt x="1060" y="1250" on="0"/>
      </contour>
    </TTGlyph>
    <TTGlyph name="uniFB53" xMin="222" yMin="-800" xMax="1839" yMax="1411">
      <contour>
        <pt x="1675" y="1340" on="1"/>
        <pt x="1499" y="1232" on="0"/>
        <pt x="1149" y="1022" on="1"/>
        <pt x="1113" y="1022" on="1"/>
        <pt x="1113" y="1026" on="0"/>
        <pt x="1102" y="1043" on="0"/>
        <pt x="1102" y="1058" on="1"/>
        <pt x="1102" y="1105" on="0"/>
        <pt x="1138" y="1130" on="1"/>
        <pt x="1252" y="1208" on="0"/>
        <pt x="1420" y="1308" on="1"/>
        <pt x="1592" y="1411" on="0"/>
        <pt x="1611" y="1411" on="1"/>
        <pt x="1662" y="1411" on="1"/>
        <pt x="1675" y="1398" on="1"/>
      </contour>
      <contour>
        <pt x="1839" y="392" on="1"/>
        <pt x="1839" y="298" on="0"/>
        <pt x="1674" y="184" on="1"/>
        <pt x="1574" y="114" on="0"/>
        <pt x="1457" y="62" on="1"/>
        <pt x="1390" y="45" on="0"/>
        <pt x="1253" y="1" on="1"/>
        <pt x="1246" y="-1" on="0"/>
        <pt x="1235" y="-1" on="1"/>
        <pt x="1228" y="-1" on="0"/>
        <pt x="1192" y="2" on="0"/>
        <pt x="1182" y="2" on="1"/>
        <pt x="1132" y="2" on="0"/>
        <pt x="1115" y="-40" on="1"/>
        <pt x="1107" y="-81" on="0"/>
        <pt x="1088" y="-162" on="1"/>
        <pt x="1071" y="-224" on="0"/>
        <pt x="1025" y="-290" on="1"/>
        <pt x="968" y="-372" on="0"/>
        <pt x="904" y="-398" on="1"/>
        <pt x="718" y="-473" on="0"/>
        <pt x="605" y="-473" on="1"/>
        <pt x="457" y="-473" on="0"/>
        <pt x="347" y="-396" on="1"/>
        <pt x="222" y="-308" on="0"/>
        <pt x="222" y="-160" on="1"/>
        <pt x="222" y="-82" on="0"/>
        <pt x="259" y="-1" on="1"/>
        <pt x="303" y="94" on="0"/>
        <pt x="381" y="141" on="1"/>
        <pt x="396" y="129" on="0"/>
        <pt x="396" y="90" on="1"/>
        <pt x="396" y="77" on="0"/>
        <pt x="334" y="-81" on="0"/>
        <pt x="334" y="-94" on="1"/>
        <pt x="334" y="-192" on="0"/>
        <pt x="449" y="-258" on="1"/>
        <pt x="537" y="-309" on="0"/>
        <pt x="605" y="-309" on="1"/>
        <pt x="719" y="-309" on="0"/>
        <pt x="841" y="-264" on="1"/>
        <pt x="1010" y="-203" on="0"/>
        <pt x="1010" y="-94" on="1"/>
        <pt x="1010" y="-5" on="0"/>
        <pt x="963" y="57" on="1"/>
        <pt x="902" y="141" on="0"/>
        <pt x="900" y="145" on="1"/>
        <pt x="898" y="156" on="0"/>
        <pt x="898" y="182" on="1"/>
        <pt x="898" y="250" on="0"/>
        <pt x="943" y="305" on="1"/>
        <pt x="1013" y="229" on="0"/>
        <pt x="1108" y="152" on="1"/>
        <pt x="1187" y="152" on="1"/>
        <pt x="1189" y="153" on="0"/>
        <pt x="1200" y="156" on="1"/>
        <pt x="1204" y="156" on="0"/>
        <pt x="1204" y="172" on="1"/>
        <pt x="1204" y="183" on="0"/>
        <pt x="1163" y="271" on="0"/>
        <pt x="1163" y="284" on="1"/>
        <pt x="1163" y="290" on="0"/>
        <pt x="1191" y="353" on="1"/>
        <pt x="1252" y="494" on="0"/>
        <pt x="1294" y="552" on="1"/>
        <pt x="1368" y="653" on="0"/>
        <pt x="1461" y="653" on="1"/>
        <pt x="1523" y="653" on="0"/>
        <pt x="1679" y="565" on="0"/>
        <pt x="1696" y="524" on="1"/>
        <pt x="1690" y="514" on="0"/>
        <pt x="1683" y="503" on="1"/>
        <pt x="1676" y="489" on="0"/>
        <pt x="1661" y="489" on="1"/>
        <pt x="1649" y="489" on="0"/>
        <pt x="1562" y="530" on="0"/>
        <pt x="1547" y="530" on="1"/>
        <pt x="1498" y="530" on="0"/>
        <pt x="1423" y="485" on="1"/>
        <pt x="1359" y="442" on="0"/>
        <pt x="1296" y="401" on="1"/>
        <pt x="1288" y="365" on="0"/>
        <pt x="1342" y="290" on="1"/>
        <pt x="1399" y="213" on="0"/>
        <pt x="1445" y="213" on="1"/>
        <pt x="1489" y="213" on="0"/>
        <pt x="1630" y="306" on="1"/>
        <pt x="1711" y="361" on="0"/>
        <pt x="1792" y="417" on="1"/>
        <pt x="1827" y="417" on="1"/>
        <pt x="1839" y="416" on="0"/>
      </contour>
      <contour>
        <pt x="703" y="443" on="1"/>
        <pt x="703" y="407" on="0"/>
        <pt x="650" y="346" on="0"/>
        <pt x="621" y="346" on="1"/>
        <pt x="588" y="346" on="0"/>
        <pt x="541" y="379" on="1"/>
        <pt x="498" y="410" on="0"/>
        <pt x="498" y="428" on="1"/>
        <pt x="498" y="456" on="0"/>
        <pt x="569" y="541" on="0"/>
        <pt x="596" y="541" on="1"/>
        <pt x="638" y="541" on="0"/>
        <pt x="673" y="500" on="1"/>
        <pt x="703" y="465" on="0"/>
      </contour>
      <contour>
        <pt x="1020" y="-565" on="1"/>
        <pt x="1020" y="-620" on="0"/>
        <pt x="956" y="-645" on="1"/>
        <pt x="899" y="-663" on="0"/>
        <pt x="843" y="-681" on="1"/>
        <pt x="745" y="-720" on="0"/>
        <pt x="543" y="-800" on="1"/>
        <pt x="519" y="-775" on="0"/>
        <pt x="519" y="-765" on="1"/>
        <pt x="519" y="-711" on="0"/>
        <pt x="583" y="-682" on="1"/>
        <pt x="790" y="-588" on="0"/>
        <pt x="996" y="-524" on="1"/>
        <pt x="1020" y="-548" on="0"/>
      </contour>
    </TTGlyph>
</ttFont>
